SplineFontDB: 1.0
FontName: DejaVuSerifCondensed-Oblique
FullName: DejaVu Serif Condensed Oblique
FamilyName: DejaVu Serif Condensed
Weight: Book
Copyright: Copyright (c) 2003 by Bitstream, Inc. All Rights Reserved.\nDejaVu changes are in public domain\n
Version: 2.2
ItalicAngle: -11
UnderlinePosition: -213
UnderlineWidth: 133
Ascent: 1556
Descent: 492
Order2: 1
NeedsXUIDChange: 1
FSType: 0
PfmFamily: 17
TTFWeight: 400
TTFWidth: 5
LineGap: 0
VLineGap: 0
Panose: 2 6 6 6 5 3 5 11 2 4
OS2TypoAscent: 1556
OS2TypoAOffset: 0
OS2TypoDescent: -492
OS2TypoDOffset: 0
OS2TypoLinegap: 410
OS2WinAscent: 1901
OS2WinAOffset: 0
OS2WinDescent: 483
OS2WinDOffset: 0
HheadAscent: 1901
HheadAOffset: 0
HheadDescent: -483
HheadDOffset: 0
OS2Vendor: 'PfEd'
ScriptLang: 2
 1 latn 1 dflt 
 1 DFLT 1 dflt 
TtfTable: prep 1374
\,q1Gi5bg!`Y/Hn`$>N*A-9e9"N2Pf_[Q^b_']E'A-9Xq"2J1E^O63s$Nn!K"1l#W"hHGk\J,.U
1'>#b"1J12[Jg97rWBJ*"0o(#"gRn+YX\f!rWB<O"0MP)X:>?5WXK'3'Eb?D"0"$XW+6".*Wr2n
"/DT$"f)&!U1=A"Q4=(l,m0fb$3d(K".r3gSe)!p/d%W"*X/)5".P_j"e-M7RLfRhQjs:f,m0NZ
$3ce,".2=VQ^/*bQP9OgJ-;/J"-u1TPpHNsKJ3RorWA@I'*XRG"-ScU"d0N$P.1NX5R@RUO9u/R
%0Ma&!<>AV"HWrmOMD![Dg_eM]*"(E$O)P&"-,VLNI_H@NB.0#Mn9.OrWA(9>m6.u",h[4MMWV_
MHp=A5Qlq"*X.BH",M^E"c+3%Lq*K#5lUtB&Hd`?0Em/@",&?1K,+Q@Q32[G"+Xom"b?RSIr#Z"
Ii/?;I1?F01';q7"+5G+"agscHOg4)Q32CE"*b.TGBP)4GPVDbFW:R.+9Qa+"*A>j"`tdfF8c8^
rW@.Z%0^bN")n\OE'OPEI04A(4p>h>")U4(ChjF_C_-\bJ-9Wr")C.)C1LiYCAJ$HBY+F^rW?hH
>m4oR")*2fB4`FnB3bUP5Qk[F"(c"R"_IN4A7PdP'a%qE"(D02?sbMi@/^78/d#GZ"'tm.>Y>0'
I03[P"'J"o=T/D(rW?35"',=&;e,u.'E_2f"&Mc("]0UL:CdP&5sRa=9FCqpA-5CI#R*ec"%Y0L
7fs;+7hYto&d(Q($3`j9"%5Ki"[m,.6UD=f6PBPg5mmi_&-G3`#mEU&"$d.p5e-j05Z7eMQ30;R
/Hn=4"$Ja\"[,K\4?ElR4;7l[5Qj.U"$/FT"Zfok3B.TS3>)ER&Has$"#g,\2)H!N2?!\71D9pK
'E^-H$3`4!"#;S;"YpDe1:[A"5lUsA#m2k7(^2T]""u8A"YU\p0>I]C*XW'''a$(=">'pj"YH#B
/1VD</5$'q+p\?&'E]jN"=aH["Y+$b.4?kR.7"%a">'d*0EW[*/HmO$""$&2,n1[p-!^Tu,8(/*
;Ze6g#R)Fc"!^&6+p\8o+;b8*>lu2k&Hs9o"!GA^+!(am*t\SsJ-6o#"!0]1*?tY+%g*ar!u`%2

StartChar: .notdef
Encoding: 0 -1 0
AltUni: 0
Width: 1167
Flags: W
Fore
153.2 -362 m 1,0,-1
 153.2 1444 l 1,1,-1
 1074.8 1444 l 1,2,-1
 1074.8 -362 l 1,3,-1
 153.2 -362 l 1,0,-1
256.7 -248 m 1,4,-1
 972.2 -248 l 1,5,-1
 972.2 1329 l 1,6,-1
 256.7 1329 l 1,7,-1
 256.7 -248 l 1,4,-1
EndSplineSet
EndChar
StartChar: exclam
Encoding: 33 33 33
Width: 782
Flags: W
Fore
183.386 104 m 0,0,1
 193.183 160 193.183 160 234.206 199 c 128,-1,2
 275.229 238 275.229 238 326.529 238 c 0,3,4
 376.029 238 376.029 238 404.306 199 c 128,-1,5
 432.582 160 432.582 160 422.786 104 c 0,6,7
 413.164 49 413.164 49 371.241 10 c 128,-1,8
 329.318 -29 329.318 -29 279.818 -29 c 0,9,10
 228.518 -29 228.518 -29 201.055 9.5 c 128,-1,11
 173.589 48 173.589 48 183.386 104 c 0,0,1
429.981 1493 m 1,12,-1
 662.182 1493 l 1,13,-1
 457.353 672 l 1,14,-1
 413.269 420 l 1,15,-1
 302.568 420 l 1,16,-1
 346.653 672 l 1,17,-1
 429.981 1493 l 1,12,-1
EndSplineSet
EndChar
StartChar: quotedbl
Encoding: 34 34 34
Width: 894
Flags: W
Fore
371.1 1493 m 1,0,-1
 371.1 938 l 1,1,-1
 228 938 l 1,2,-1
 228 1493 l 1,3,-1
 371.1 1493 l 1,0,-1
714 1493 m 1,4,-1
 714 938 l 1,5,-1
 570.9 938 l 1,6,-1
 570.9 1493 l 1,7,-1
 714 1493 l 1,4,-1
EndSplineSet
EndChar
StartChar: numbersign
Encoding: 35 35 35
Width: 1630
Flags: W
Fore
1023.65 901 m 1,0,-1
 769.85 901 l 1,1,-1
 694.25 567 l 1,2,-1
 950.75 567 l 1,3,-1
 1023.65 901 l 1,0,-1
896.75 1470 m 1,4,-1
 804.95 1055 l 1,5,-1
 1058.75 1055 l 1,6,-1
 1151.45 1470 l 1,7,-1
 1306.25 1470 l 1,8,-1
 1211.75 1055 l 1,9,-1
 1488.95 1055 l 1,10,-1
 1488.95 901 l 1,11,-1
 1176.65 901 l 1,12,-1
 1102.85 567 l 1,13,-1
 1385.45 567 l 1,14,-1
 1385.45 414 l 1,15,-1
 1068.65 414 l 1,16,-1
 975.95 0 l 1,17,-1
 821.15 0 l 1,18,-1
 915.65 414 l 1,19,-1
 660.95 414 l 1,20,-1
 567.35 0 l 1,21,-1
 414.35 0 l 1,22,-1
 506.15 414 l 1,23,-1
 228.05 414 l 1,24,-1
 228.05 567 l 1,25,-1
 541.25 567 l 1,26,-1
 615.05 901 l 1,27,-1
 330.65 901 l 1,28,-1
 330.65 1055 l 1,29,-1
 650.15 1055 l 1,30,-1
 743.75 1470 l 1,31,-1
 896.75 1470 l 1,4,-1
EndSplineSet
EndChar
StartChar: dollar
Encoding: 36 36 36
Width: 1234
Flags: W
Fore
585.338 68 m 1,0,1
 688.787 78 688.787 78 751.959 133 c 128,-1,2
 815.131 188 815.131 188 831.75 283 c 0,3,4
 846.796 369 846.796 369 804.191 429 c 128,-1,5
 761.588 489 761.588 489 664.412 520 c 1,6,-1
 585.338 68 l 1,0,1
691.099 1187 m 1,7,8
 597.175 1180 597.175 1180 536.689 1127.5 c 128,-1,9
 476.204 1075 476.204 1075 460.811 987 c 0,10,11
 446.814 907 446.814 907 484.792 854 c 128,-1,12
 522.771 801 522.771 801 617.798 768 c 1,13,-1
 691.099 1187 l 1,7,8
123.438 72 m 1,14,-1
 171.722 348 l 1,15,-1
 268.922 348 l 1,16,17
 248.555 211 248.555 211 304.709 141 c 128,-1,18
 360.862 71 360.862 71 495.338 68 c 1,19,-1
 580.186 553 l 1,20,21
 384.381 617 384.381 617 315.288 700.5 c 128,-1,22
 246.197 784 246.197 784 270.339 922 c 0,23,24
 298.329 1082 298.329 1082 414.299 1179 c 128,-1,25
 530.269 1276 530.269 1276 708.769 1288 c 1,26,-1
 755.652 1556 l 1,27,-1
 845.652 1556 l 1,28,-1
 798.769 1288 l 1,29,30
 888.268 1280 888.268 1280 968.131 1255.5 c 128,-1,31
 1048 1231 1048 1231 1120.92 1190 c 1,32,-1
 1075.09 928 l 1,33,-1
 976.987 928 l 1,34,35
 986.482 1044 986.482 1044 936.102 1111 c 128,-1,36
 885.724 1178 885.724 1178 781.099 1187 c 1,37,-1
 702.024 735 l 1,38,39
 911.703 668 911.703 668 985.222 581.5 c 128,-1,40
 1058.73 495 1058.73 495 1033.37 350 c 0,41,42
 1004.33 184 1004.33 184 882.437 84 c 128,-1,43
 760.543 -16 760.543 -16 568.019 -31 c 1,44,-1
 520.784 -301 l 1,45,-1
 430.784 -301 l 1,46,-1
 478.019 -31 l 1,47,48
 391.969 -29 391.969 -29 303.729 -3.5 c 128,-1,49
 215.491 22 215.491 22 123.438 72 c 1,14,-1
EndSplineSet
EndChar
StartChar: percent
Encoding: 37 37 37
Width: 1848
Flags: W
Fore
629.615 1427 m 0,0,1
 550.415 1427 550.415 1427 491.346 1344 c 128,-1,2
 432.275 1261 432.275 1261 406.208 1112 c 0,3,4
 380.491 965 380.491 965 411.247 881 c 128,-1,5
 442.002 797 442.002 797 519.402 797 c 0,6,7
 595.902 797 595.902 797 655.06 880.5 c 128,-1,8
 714.217 964 714.217 964 740.108 1112 c 0,9,10
 766 1260 766 1260 736.058 1343.5 c 128,-1,11
 706.115 1427 706.115 1427 629.615 1427 c 0,0,1
1428.38 694 m 0,12,13
 1350.08 694 1350.08 694 1290.84 610 c 128,-1,14
 1231.59 526 1231.59 526 1205.53 377 c 0,15,16
 1179.81 230 1179.81 230 1210.21 146.5 c 128,-1,17
 1240.6 63 1240.6 63 1317.99 63 c 0,18,19
 1395.4 63 1395.4 63 1454.11 146.5 c 128,-1,20
 1512.81 230 1512.81 230 1538.53 377 c 0,21,22
 1564.42 525 1564.42 525 1534.65 609.5 c 128,-1,23
 1504.88 694 1504.88 694 1428.38 694 c 0,12,13
1444.12 784 m 0,24,25
 1586.32 784 1586.32 784 1650.78 674 c 128,-1,26
 1715.24 564 1715.24 564 1682.53 377 c 0,27,28
 1649.81 190 1649.81 190 1546.51 80.5 c 128,-1,29
 1443.2 -29 1443.2 -29 1301.9 -29 c 0,30,31
 1157.9 -29 1157.9 -29 1093.36 80.5 c 128,-1,32
 1028.81 190 1028.81 190 1061.53 377 c 0,33,34
 1094.41 565 1094.41 565 1197.72 674.5 c 128,-1,35
 1301.02 784 1301.02 784 1444.12 784 c 0,24,25
1460.39 1520 m 1,36,-1
 1597.19 1520 l 1,37,-1
 485.599 -29 l 1,38,-1
 348.799 -29 l 1,39,-1
 1460.39 1520 l 1,36,-1
644.085 1520 m 0,40,41
 786.285 1520 786.285 1520 851.729 1410.5 c 128,-1,42
 917.173 1301 917.173 1301 884.458 1114 c 0,43,44
 851.395 925 851.395 925 748.176 816 c 128,-1,45
 644.958 707 644.958 707 501.857 707 c 0,46,47
 358.758 707 358.758 707 294.663 816.5 c 128,-1,48
 230.569 926 230.569 926 263.458 1114 c 0,49,50
 295.998 1300 295.998 1300 398.941 1410 c 128,-1,51
 501.886 1520 501.886 1520 644.085 1520 c 0,40,41
EndSplineSet
EndChar
StartChar: ampersand
Encoding: 38 38 38
Width: 1730
Flags: W
Fore
994.902 231 m 1,0,-1
 578.346 844 l 1,1,2
 486.393 766 486.393 766 431.412 675.5 c 0,3,4
 376.431 585 376.431 585 358.593 483 c 0,5,6
 351.123 440.28 351.123 440.28 351.123 401.11 c 0,7,8
 351.123 288.05 351.123 288.05 413.367 204.5 c 0,9,10
 497.184 92 497.184 92 651.984 92 c 0,11,12
 743.784 92 743.784 92 831.444 127.5 c 128,-1,13
 919.104 163 919.104 163 994.902 231 c 1,0,-1
1512.49 0 m 1,14,-1
 1151.59 0 l 1,15,-1
 1053.65 145 l 1,16,17
 943.764 57 943.764 57 829.14 14 c 128,-1,18
 714.516 -29 714.516 -29 590.316 -29 c 0,19,20
 358.116 -29 358.116 -29 245.31 103 c 0,21,22
 161.781 200.74 161.781 200.74 161.781 350.03 c 0,23,24
 161.781 402.35 161.781 402.35 172.041 461 c 0,25,26
 195.306 594 195.306 594 284.361 709.5 c 0,27,28
 373.416 825 373.416 825 530.592 926 c 1,29,30
 495.357 987 495.357 987 484.341 1047.5 c 0,31,32
 478.959 1077.04 478.959 1077.04 478.959 1107.89 c 0,33,34
 478.959 1140.22 478.959 1140.22 484.872 1174 c 0,35,36
 512.691 1333 512.691 1333 632.094 1426.5 c 0,37,38
 751.506 1520 751.506 1520 928.806 1520 c 0,39,40
 989.106 1520 989.106 1520 1066.68 1503 c 0,41,42
 1144.26 1486 1144.26 1486 1241.81 1452 c 1,43,-1
 1196.67 1194 l 1,44,-1
 1094.97 1194 l 1,45,46
 1095.67 1206.14 1095.67 1206.14 1095.67 1217.63 c 0,47,48
 1095.67 1307.36 1095.67 1307.36 1053.29 1357 c 0,49,50
 1005.49 1413 1005.49 1413 906.486 1413 c 0,51,52
 813.786 1413 813.786 1413 746.304 1356.5 c 0,53,54
 678.813 1300 678.813 1300 663.072 1210 c 0,55,56
 659.364 1188.78 659.364 1188.78 659.364 1167.63 c 0,57,58
 659.364 1127.96 659.364 1127.96 672.414 1088.5 c 0,59,60
 691.737 1030.11 691.737 1030.11 769.866 915 c 2,61,-1
 1139.09 371 l 1,62,63
 1215.19 451 1215.19 451 1266.93 543.5 c 0,64,65
 1318.66 636 1318.66 636 1346.02 741 c 1,66,-1
 1364.74 848 l 1,67,-1
 1628.44 848 l 1,68,-1
 1609.72 741 l 1,69,-1
 1454.92 741 l 1,70,71
 1416.88 611 1416.88 611 1352.56 498 c 0,72,73
 1288.25 385 1288.25 385 1196.75 289 c 1,74,-1
 1319.53 106 l 1,75,-1
 1531.03 106 l 1,76,-1
 1512.49 0 l 1,14,-1
EndSplineSet
EndChar
StartChar: quotesingle
Encoding: 39 39 39
Width: 534
Flags: W
Fore
352.05 1493 m 1,0,-1
 352.05 938 l 1,1,-1
 208.95 938 l 1,2,-1
 208.95 1493 l 1,3,-1
 352.05 1493 l 1,0,-1
EndSplineSet
EndChar
StartChar: parenleft
Encoding: 40 40 40
Width: 767
Flags: W
Fore
471.93 -319 m 1,0,1
 272.298 -210 272.298 -210 202.071 26.5 c 128,-1,2
 131.845 263 131.845 263 193.949 618 c 0,3,4
 256.23 974 256.23 974 409.203 1210.5 c 128,-1,5
 562.177 1447 562.177 1447 799.945 1556 c 1,6,-1
 782.802 1458 l 1,7,8
 625.657 1352 625.657 1352 531.682 1159.5 c 128,-1,9
 437.704 967 437.704 967 376.649 618 c 0,10,11
 315.771 270 315.771 270 342.394 77.5 c 128,-1,12
 369.018 -115 369.018 -115 489.072 -221 c 1,13,-1
 471.93 -319 l 1,0,1
EndSplineSet
EndChar
StartChar: parenright
Encoding: 41 41 41
Width: 750
Flags: W
Fore
-1.89844 -319 m 1,0,-1
 15.2451 -221 l 1,1,2
 172.39 -115 172.39 -115 266.815 77.5 c 128,-1,3
 361.243 270 361.243 270 422.122 618 c 0,4,5
 483.177 967 483.177 967 456.104 1159.5 c 128,-1,6
 429.03 1352 429.03 1352 308.975 1458 c 1,7,-1
 326.118 1556 l 1,8,9
 526.649 1447 526.649 1447 596.876 1210.5 c 128,-1,10
 667.103 974 667.103 974 604.821 618 c 0,11,12
 542.717 263 542.717 263 389.744 26.5 c 128,-1,13
 236.771 -210 236.771 -210 -1.89844 -319 c 1,0,-1
EndSplineSet
EndChar
StartChar: asterisk
Encoding: 42 42 42
Width: 972
Flags: W
Fore
943.1 1237 m 1,0,-1
 591.2 1055 l 1,1,-1
 943.1 870 l 1,2,-1
 874.7 752 l 1,3,-1
 561.5 969 l 1,4,-1
 573.2 588 l 1,5,-1
 450.8 588 l 1,6,-1
 462.5 969 l 1,7,-1
 149.3 752 l 1,8,-1
 80.9004 870 l 1,9,-1
 432.8 1053 l 1,10,-1
 80.9004 1237 l 1,11,-1
 149.3 1356 l 1,12,-1
 462.5 1139 l 1,13,-1
 450.8 1520 l 1,14,-1
 573.2 1520 l 1,15,-1
 561.5 1139 l 1,16,-1
 874.7 1356 l 1,17,-1
 943.1 1237 l 1,0,-1
EndSplineSet
EndChar
StartChar: plus
Encoding: 43 43 43
Width: 1630
Flags: W
Fore
930 1284 m 1,0,-1
 930 723 l 1,1,-1
 1434.9 723 l 1,2,-1
 1434.9 561 l 1,3,-1
 930 561 l 1,4,-1
 930 0 l 1,5,-1
 786 0 l 1,6,-1
 786 561 l 1,7,-1
 281.1 561 l 1,8,-1
 281.1 723 l 1,9,-1
 786 723 l 1,10,-1
 786 1284 l 1,11,-1
 930 1284 l 1,0,-1
EndSplineSet
EndChar
StartChar: comma
Encoding: 44 44 44
Width: 613
Flags: W
Fore
63.4619 -199 m 1,0,1
 160.133 -130 160.133 -130 216.091 -36.5 c 128,-1,2
 272.048 57 272.048 57 295.314 190 c 2,3,-1
 301.788 227 l 1,4,-1
 479.088 227 l 1,5,6
 441.973 56 441.973 56 355.293 -66.5 c 128,-1,7
 268.612 -189 268.612 -189 121.468 -279 c 1,8,-1
 63.4619 -199 l 1,0,1
EndSplineSet
EndChar
StartChar: hyphen
Encoding: 45 45 45
Width: 657
Flags: W
Fore
129.246 627 m 1,0,-1
 590.046 627 l 1,1,-1
 562.754 471 l 1,2,-1
 101.954 471 l 1,3,-1
 129.246 627 l 1,0,-1
EndSplineSet
KernsSLIFO: 356 -73 0 0 221 -225 0 0 376 -225 0 0 89 -225 0 0 88 -73 0 0 87 -112 0 0 86 -149 0 0 84 -73 0 0
EndChar
StartChar: period
Encoding: 46 46 46
Width: 618
Flags: W
Fore
206.199 104 m 0,0,1
 215.996 160 215.996 160 257.02 199 c 128,-1,2
 298.042 238 298.042 238 349.342 238 c 0,3,4
 398.842 238 398.842 238 427.119 199 c 128,-1,5
 455.396 160 455.396 160 445.599 104 c 0,6,7
 435.978 49 435.978 49 394.055 10 c 128,-1,8
 352.132 -29 352.132 -29 302.632 -29 c 0,9,10
 251.332 -29 251.332 -29 223.868 9.5 c 128,-1,11
 196.403 48 196.403 48 206.199 104 c 0,0,1
EndSplineSet
EndChar
StartChar: slash
Encoding: 47 47 47
Width: 655
Flags: W
Fore
658.714 1493 m 1,0,-1
 802.714 1493 l 1,1,-1
 31.2861 -190 l 1,2,-1
 -112.714 -190 l 1,3,-1
 658.714 1493 l 1,0,-1
EndSplineSet
EndChar
StartChar: zero
Encoding: 48 48 48
Width: 1237
Flags: W
Fore
532.827 70 m 0,0,1
 670.527 70 670.527 70 768.318 238 c 128,-1,2
 866.108 406 866.108 406 925.413 745 c 0,3,4
 984.893 1085 984.893 1085 945.885 1253 c 128,-1,5
 906.875 1421 906.875 1421 769.175 1421 c 0,6,7
 631.475 1421 631.475 1421 533.685 1253 c 128,-1,8
 435.894 1085 435.894 1085 376.413 745 c 0,9,10
 317.108 406 317.108 406 356.118 238 c 128,-1,11
 395.128 70 395.128 70 532.827 70 c 0,0,1
515.508 -29 m 0,12,13
 296.808 -29 296.808 -29 209.646 175 c 128,-1,14
 122.485 379 122.485 379 186.513 745 c 0,15,16
 250.717 1112 250.717 1112 409.256 1316 c 128,-1,17
 567.794 1520 567.794 1520 786.494 1520 c 0,18,19
 1006.1 1520 1006.1 1520 1092.8 1316 c 128,-1,20
 1179.52 1112 1179.52 1112 1115.31 745 c 0,21,22
 1051.29 379 1051.29 379 893.196 175 c 128,-1,23
 735.108 -29 735.108 -29 515.508 -29 c 0,12,13
EndSplineSet
EndChar
StartChar: one
Encoding: 49 49 49
Width: 1224
Flags: W
Fore
181.094 0 m 1,0,-1
 199.638 106 l 1,1,-1
 433.638 106 l 1,2,-1
 650.916 1348 l 1,3,-1
 345.902 1153 l 1,4,-1
 368.819 1284 l 1,5,-1
 737.706 1520 l 1,6,-1
 861.906 1520 l 1,7,-1
 614.537 106 l 1,8,-1
 848.537 106 l 1,9,-1
 829.994 0 l 1,10,-1
 181.094 0 l 1,0,-1
EndSplineSet
EndChar
StartChar: two
Encoding: 50 50 50
Width: 1230
Flags: W
Fore
359.143 1137 m 1,0,-1
 258.343 1137 l 1,1,-1
 304.877 1403 l 1,2,3
 411.149 1460 411.149 1460 514.047 1490 c 128,-1,4
 616.945 1520 616.945 1520 710.546 1520 c 0,5,6
 920.246 1520 920.246 1520 1021.97 1407 c 128,-1,7
 1123.71 1294 1123.71 1294 1089.77 1100 c 0,8,9
 1051.46 881 1051.46 881 722.7 576 c 0,10,11
 697.077 553 697.077 553 684.178 541 c 2,12,-1
 278.924 164 l 1,13,-1
 839.624 164 l 1,14,-1
 871.813 348 l 1,15,-1
 977.117 348 l 1,16,-1
 916.233 0 l 1,17,-1
 49.5332 0 l 1,18,-1
 68.6016 109 l 1,19,-1
 555.376 561 l 2,20,21
 716.618 711 716.618 711 796.173 836.5 c 128,-1,22
 875.729 962 875.729 962 899.87 1100 c 0,23,24
 926.286 1251 926.286 1251 870.507 1336 c 128,-1,25
 814.727 1421 814.727 1421 690.526 1421 c 0,26,27
 561.826 1421 561.826 1421 479.206 1350 c 128,-1,28
 396.585 1279 396.585 1279 359.143 1137 c 1,0,-1
EndSplineSet
EndChar
StartChar: three
Encoding: 51 51 51
Width: 1232
Flags: W
Fore
359.049 1430 m 1,0,1
 472.046 1474 472.046 1474 572.819 1497 c 128,-1,2
 673.594 1520 673.594 1520 758.193 1520 c 0,3,4
 955.293 1520 955.293 1520 1049.46 1425.5 c 128,-1,5
 1143.63 1331 1143.63 1331 1114.24 1163 c 0,6,7
 1090.62 1028 1090.62 1028 998.288 937.5 c 128,-1,8
 905.956 847 905.956 847 759.959 815 c 1,9,10
 921.01 789 921.01 789 993.555 681.5 c 128,-1,11
 1066.09 574 1066.09 574 1036.18 403 c 0,12,13
 999.62 194 999.62 194 853.664 82.5 c 128,-1,14
 707.707 -29 707.707 -29 470.107 -29 c 0,15,16
 364.807 -29 364.807 -29 268.831 -4 c 128,-1,17
 172.855 21 172.855 21 82.7764 72 c 1,18,-1
 133.51 362 l 1,19,-1
 234.31 362 l 1,20,21
 218.119 218 218.119 218 283.473 144 c 128,-1,22
 348.826 70 348.826 70 491.026 70 c 0,23,24
 628.727 70 628.727 70 723.858 158.5 c 128,-1,25
 818.992 247 818.992 247 845.933 401 c 0,26,27
 876.723 577 876.723 577 810.654 667.5 c 128,-1,28
 744.587 758 744.587 758 586.188 758 c 2,29,-1
 500.688 758 l 1,30,-1
 518.531 860 l 1,31,-1
 563.531 860 l 2,32,33
 721.031 860 721.031 860 812.464 932.5 c 128,-1,34
 903.897 1005 903.897 1005 929.439 1151 c 0,35,36
 952.356 1282 952.356 1282 899.716 1351.5 c 128,-1,37
 847.074 1421 847.074 1421 725.574 1421 c 0,38,39
 604.074 1421 604.074 1421 525.827 1357 c 128,-1,40
 447.581 1293 447.581 1293 413.839 1167 c 1,41,-1
 313.039 1167 l 1,42,-1
 359.049 1430 l 1,0,1
EndSplineSet
EndChar
StartChar: four
Encoding: 52 52 52
Width: 1229
Flags: W
Fore
656.237 506 m 1,0,-1
 795.143 1300 l 1,1,-1
 197.237 506 l 1,2,-1
 656.237 506 l 1,0,-1
963.716 0 m 1,3,-1
 351.717 0 l 1,4,-1
 370.261 106 l 1,5,-1
 586.261 106 l 1,6,-1
 637.519 399 l 1,7,-1
 50.7188 399 l 1,8,-1
 69.7881 508 l 1,9,-1
 835.429 1520 l 1,10,-1
 1013.63 1520 l 1,11,-1
 836.237 506 l 1,12,-1
 1092.74 506 l 1,13,-1
 1074.02 399 l 1,14,-1
 817.519 399 l 1,15,-1
 766.261 106 l 1,16,-1
 982.265 106 l 1,17,-1
 963.716 0 l 1,3,-1
EndSplineSet
EndChar
StartChar: five
Encoding: 53 53 53
Width: 1233
Flags: W
Fore
1121.31 1493 m 1,0,-1
 1092.62 1329 l 1,1,-1
 477.021 1329 l 1,2,-1
 402.147 901 l 1,3,4
 455.245 937 455.245 937 520.943 955 c 128,-1,5
 586.643 973 586.643 973 664.043 973 c 0,6,7
 881.843 973 881.843 973 984.401 839 c 128,-1,8
 1086.96 705 1086.96 705 1046.38 473 c 0,9,10
 1004.91 236 1004.91 236 854.38 103.5 c 128,-1,11
 703.85 -29 703.85 -29 473.45 -29 c 0,12,13
 380.75 -29 380.75 -29 287.925 -4 c 128,-1,14
 195.098 21 195.098 21 102.319 72 c 1,15,-1
 153.053 362 l 1,16,-1
 254.753 362 l 1,17,18
 238.012 220 238.012 220 298.239 145 c 128,-1,19
 358.47 70 358.47 70 490.77 70 c 0,20,21
 632.97 70 632.97 70 727.664 174 c 128,-1,22
 822.357 278 822.357 278 856.471 473 c 0,23,24
 890.41 667 890.41 667 832.466 770.5 c 128,-1,25
 774.523 874 774.523 874 631.423 874 c 0,26,27
 550.423 874 550.423 874 483.175 842 c 128,-1,28
 415.927 810 415.927 810 356.506 743 c 1,29,-1
 279.105 743 l 1,30,-1
 410.313 1493 l 1,31,-1
 1121.31 1493 l 1,0,-1
EndSplineSet
EndChar
StartChar: six
Encoding: 54 54 54
Width: 1239
Flags: W
Fore
551.576 70 m 0,0,1
 678.477 70 678.477 70 764.982 173.5 c 128,-1,2
 851.489 277 851.489 277 885.429 471 c 0,3,4
 919.367 665 919.367 665 869.073 768.5 c 128,-1,5
 818.78 872 818.78 872 691.88 872 c 0,6,7
 563.18 872 563.18 872 478.186 772 c 128,-1,8
 393.191 672 393.191 672 360.128 483 c 0,9,10
 325.314 284 325.314 284 374.995 177 c 128,-1,11
 424.676 70 424.676 70 551.576 70 c 0,0,1
389.732 822 m 1,12,13
 464.053 897 464.053 897 547.927 934 c 128,-1,14
 631.8 971 631.8 971 728.999 971 c 0,15,16
 929.699 971 929.699 971 1022.81 837 c 128,-1,17
 1115.92 703 1115.92 703 1075.33 471 c 0,18,19
 1035.62 244 1035.62 244 886.187 107.5 c 128,-1,20
 736.757 -29 736.757 -29 527.057 -29 c 0,21,22
 299.356 -29 299.356 -29 209.934 159.5 c 128,-1,23
 120.51 348 120.51 348 181.74 698 c 0,24,25
 250.317 1090 250.317 1090 432.83 1305 c 128,-1,26
 615.343 1520 615.343 1520 879.043 1520 c 0,27,28
 950.143 1520 950.143 1520 1025.82 1505 c 128,-1,29
 1101.5 1490 1101.5 1490 1178.14 1460 c 1,30,-1
 1135.11 1214 l 1,31,-1
 1033.41 1214 l 1,32,33
 1040.28 1315 1040.28 1315 991.05 1368 c 128,-1,34
 941.823 1421 941.823 1421 842.823 1421 c 0,35,36
 668.224 1421 668.224 1421 557.007 1274 c 128,-1,37
 445.79 1127 445.79 1127 389.732 822 c 1,12,13
EndSplineSet
EndChar
StartChar: seven
Encoding: 55 55 55
Width: 1250
Flags: W
Fore
1229.73 1391 m 1,0,-1
 460.784 0 l 1,1,-1
 326.685 0 l 1,2,-1
 1060.49 1329 l 1,3,-1
 439.482 1329 l 1,4,-1
 407.293 1145 l 1,5,-1
 301.993 1145 l 1,6,-1
 362.872 1493 l 1,7,-1
 1247.57 1493 l 1,8,-1
 1229.73 1391 l 1,0,-1
EndSplineSet
EndChar
StartChar: eight
Encoding: 56 56 56
Width: 1235
Flags: W
Fore
862.586 408 m 0,0,1
 890.577 568 890.577 568 834.51 656.5 c 128,-1,2
 778.441 745 778.441 745 648.841 745 c 0,3,4
 519.241 745 519.241 745 432.21 656.5 c 128,-1,5
 345.177 568 345.177 568 317.186 408 c 0,6,7
 289.021 247 289.021 247 345.088 158.5 c 128,-1,8
 401.156 70 401.156 70 530.756 70 c 0,9,10
 660.355 70 660.355 70 747.388 158.5 c 128,-1,11
 834.421 247 834.421 247 862.586 408 c 0,0,1
952.52 1133 m 0,12,13
 976.313 1269 976.313 1269 927.508 1345 c 128,-1,14
 878.703 1421 878.703 1421 767.104 1421 c 0,15,16
 656.403 1421 656.403 1421 580.558 1345 c 128,-1,17
 504.712 1269 504.712 1269 480.919 1133 c 0,18,19
 456.952 996 456.952 996 506.207 920 c 128,-1,20
 555.461 844 555.461 844 666.161 844 c 0,21,22
 777.761 844 777.761 844 853.156 920 c 128,-1,23
 928.553 996 928.553 996 952.52 1133 c 0,12,13
796.189 795 m 1,24,25
 945.165 772 945.165 772 1012.74 669.5 c 128,-1,26
 1080.3 567 1080.3 567 1052.49 408 c 0,27,28
 1015.75 198 1015.75 198 876.193 84.5 c 128,-1,29
 736.637 -29 736.637 -29 513.437 -29 c 0,30,31
 291.137 -29 291.137 -29 190.843 84.5 c 128,-1,32
 90.5488 198 90.5488 198 127.286 408 c 0,33,34
 155.103 567 155.103 567 258.534 669.5 c 128,-1,35
 361.966 772 361.966 772 519.89 795 c 1,36,37
 388.713 822 388.713 822 331.569 909.5 c 128,-1,38
 274.428 997 274.428 997 298.22 1133 c 0,39,40
 329.709 1313 329.709 1313 459.416 1416.5 c 128,-1,41
 589.123 1520 589.123 1520 784.423 1520 c 0,42,43
 979.725 1520 979.725 1520 1073.22 1416.5 c 128,-1,44
 1166.71 1313 1166.71 1313 1135.22 1133 c 0,45,46
 1111.43 997 1111.43 997 1023.67 909.5 c 128,-1,47
 935.912 822 935.912 822 796.189 795 c 1,24,25
EndSplineSet
EndChar
StartChar: nine
Encoding: 57 57 57
Width: 1236
Flags: W
Fore
912.321 669 m 1,0,1
 838.901 594 838.901 594 754.127 557 c 128,-1,2
 669.354 520 669.354 520 571.255 520 c 0,3,4
 371.454 520 371.454 520 279.247 654 c 128,-1,5
 187.039 788 187.039 788 227.625 1020 c 0,6,7
 267.337 1247 267.337 1247 416.768 1383.5 c 128,-1,8
 566.197 1520 566.197 1520 775.897 1520 c 0,9,10
 1003.6 1520 1003.6 1520 1092.57 1331.5 c 128,-1,11
 1181.55 1143 1181.55 1143 1120.31 793 c 0,12,13
 1051.74 401 1051.74 401 869.224 186 c 128,-1,14
 686.711 -29 686.711 -29 423.911 -29 c 0,15,16
 352.811 -29 352.811 -29 277.136 -14 c 128,-1,17
 201.46 1 201.46 1 124.808 31 c 1,18,-1
 168.193 279 l 1,19,-1
 268.993 279 l 1,20,21
 263.024 178 263.024 178 312.077 124 c 128,-1,22
 361.131 70 361.131 70 459.23 70 c 0,23,24
 633.83 70 633.83 70 744.96 216.5 c 128,-1,25
 856.088 363 856.088 363 912.321 669 c 1,0,1
751.378 1421 m 0,26,27
 623.578 1421 623.578 1421 537.521 1317.5 c 128,-1,28
 451.465 1214 451.465 1214 417.525 1020 c 0,29,30
 383.587 826 383.587 826 433.343 722 c 128,-1,31
 483.1 618 483.1 618 610.899 618 c 0,32,33
 738.699 618 738.699 618 824.231 718.5 c 128,-1,34
 909.763 819 909.763 819 942.826 1008 c 0,35,36
 977.644 1207 977.644 1207 927.959 1314 c 128,-1,37
 878.277 1421 878.277 1421 751.378 1421 c 0,26,27
EndSplineSet
EndChar
StartChar: colon
Encoding: 58 58 58
Width: 655
Flags: W
Fore
169.272 104 m 0,0,1
 179.07 160 179.07 160 220.543 199 c 128,-1,2
 262.016 238 262.016 238 312.415 238 c 0,3,4
 362.815 238 362.815 238 390.644 199 c 128,-1,5
 418.471 160 418.471 160 408.673 104 c 0,6,7
 398.876 48 398.876 48 357.94 9.5 c 128,-1,8
 317.005 -29 317.005 -29 265.705 -29 c 0,9,10
 214.405 -29 214.405 -29 186.94 9.5 c 128,-1,11
 159.477 48 159.477 48 169.272 104 c 0,0,1
283.335 756 m 0,12,13
 293.132 812 293.132 812 334.518 850.5 c 128,-1,14
 375.903 889 375.903 889 426.303 889 c 0,15,16
 477.603 889 477.603 889 505.154 851 c 128,-1,17
 532.706 813 532.706 813 522.735 756 c 0,18,19
 512.764 699 512.764 699 471.915 661 c 128,-1,20
 431.068 623 431.068 623 379.769 623 c 0,21,22
 329.368 623 329.368 623 301.453 661.5 c 128,-1,23
 273.538 700 273.538 700 283.335 756 c 0,12,13
EndSplineSet
EndChar
StartChar: semicolon
Encoding: 59 59 59
Width: 648
Flags: W
Fore
5.90137 -199 m 1,0,1
 102.572 -130 102.572 -130 158.529 -36.5 c 128,-1,2
 214.486 57 214.486 57 237.754 190 c 2,3,-1
 244.227 227 l 1,4,-1
 421.526 227 l 1,5,6
 384.412 56 384.412 56 297.731 -66.5 c 128,-1,7
 211.052 -189 211.052 -189 63.9053 -279 c 1,8,-1
 5.90137 -199 l 1,0,1
301.671 756 m 0,9,10
 311.468 812 311.468 812 352.853 850.5 c 128,-1,11
 394.239 889 394.239 889 444.64 889 c 0,12,13
 495.039 889 495.039 889 522.866 850 c 128,-1,14
 550.692 811 550.692 811 541.07 756 c 0,15,16
 531.274 700 531.274 700 489.89 661.5 c 128,-1,17
 448.503 623 448.503 623 398.103 623 c 0,18,19
 347.703 623 347.703 623 319.789 661.5 c 128,-1,20
 291.874 700 291.874 700 301.671 756 c 0,9,10
EndSplineSet
EndChar
StartChar: less
Encoding: 60 60 60
Width: 1634
Flags: W
Fore
1434.9 1020 m 1,0,-1
 500.7 641 l 1,1,-1
 1434.9 264 l 1,2,-1
 1434.9 94 l 1,3,-1
 281.1 559 l 1,4,-1
 281.1 725 l 1,5,-1
 1434.9 1190 l 1,6,-1
 1434.9 1020 l 1,0,-1
EndSplineSet
EndChar
StartChar: equal
Encoding: 61 61 61
Width: 1630
Flags: W
Fore
281.1 926 m 1,0,-1
 1434.9 926 l 1,1,-1
 1434.9 766 l 1,2,-1
 281.1 766 l 1,3,-1
 281.1 926 l 1,0,-1
281.1 518 m 1,4,-1
 1434.9 518 l 1,5,-1
 1434.9 358 l 1,6,-1
 281.1 358 l 1,7,-1
 281.1 518 l 1,4,-1
EndSplineSet
EndChar
StartChar: greater
Encoding: 62 62 62
Width: 1625
Flags: W
Fore
281.1 1020 m 1,0,-1
 281.1 1190 l 1,1,-1
 1434.9 725 l 1,2,-1
 1434.9 559 l 1,3,-1
 281.1 94 l 1,4,-1
 281.1 264 l 1,5,-1
 1215.3 641 l 1,6,-1
 281.1 1020 l 1,0,-1
EndSplineSet
EndChar
StartChar: question
Encoding: 63 63 63
Width: 1053
Flags: W
Fore
276.887 104 m 0,0,1
 286.684 160 286.684 160 328.156 199 c 128,-1,2
 369.629 238 369.629 238 420.93 238 c 0,3,4
 470.43 238 470.43 238 498.706 199 c 128,-1,5
 526.983 160 526.983 160 517.188 104 c 0,6,7
 507.565 49 507.565 49 465.643 10 c 128,-1,8
 423.72 -29 423.72 -29 374.22 -29 c 0,9,10
 322.919 -29 322.919 -29 295.006 9.5 c 128,-1,11
 267.091 48 267.091 48 276.887 104 c 0,0,1
309.436 1427 m 1,12,13
 413.058 1474 413.058 1474 503.032 1497 c 128,-1,14
 593.006 1520 593.006 1520 668.605 1520 c 0,15,16
 868.405 1520 868.405 1520 965.338 1413 c 128,-1,17
 1062.27 1306 1062.27 1306 1030.43 1124 c 0,18,19
 997.891 938 997.891 938 877.796 820 c 128,-1,20
 757.703 702 757.703 702 548.08 651 c 1,21,-1
 503.646 397 l 1,22,-1
 392.945 397 l 1,23,-1
 450.327 725 l 1,24,25
 617.149 768 617.149 768 715.368 869 c 128,-1,26
 813.588 970 813.588 970 840.878 1126 c 0,27,28
 864.846 1263 864.846 1263 812.966 1342 c 128,-1,29
 761.086 1421 761.086 1421 647.687 1421 c 0,30,31
 545.086 1421 545.086 1421 468.377 1355.5 c 128,-1,32
 391.669 1290 391.669 1290 351.251 1167 c 1,33,-1
 263.951 1167 l 1,34,-1
 309.436 1427 l 1,12,13
EndSplineSet
EndChar
StartChar: at
Encoding: 64 64 64
Width: 1946
Flags: W
Fore
1215.88 248 m 1,0,1
 1148.43 166 1148.43 166 1075.28 126 c 128,-1,2
 1002.13 86 1002.13 86 918.435 86 c 0,3,4
 760.935 86 760.935 86 684.703 211 c 128,-1,5
 608.471 336 608.471 336 643.634 537 c 0,6,7
 678.797 738 678.797 738 798.677 862.5 c 128,-1,8
 918.558 987 918.558 987 1076.05 987 c 0,9,10
 1159.75 987 1159.75 987 1218.91 947 c 128,-1,11
 1278.06 907 1278.06 907 1316.82 825 c 1,12,-1
 1341.66 967 l 1,13,-1
 1482.06 967 l 1,14,-1
 1347.01 195 l 1,15,16
 1506.48 232 1506.48 232 1612.95 357 c 128,-1,17
 1719.41 482 1719.41 482 1752.3 670 c 0,18,19
 1771.72 781 1771.72 781 1758.44 880 c 128,-1,20
 1745.16 979 1745.16 979 1699.55 1063 c 0,21,22
 1627.42 1196 1627.42 1196 1502.5 1266.5 c 128,-1,23
 1377.59 1337 1377.59 1337 1216.49 1337 c 0,24,25
 1135.49 1337 1135.49 1337 1052.96 1318 c 128,-1,26
 970.439 1299 970.439 1299 886.217 1260 c 0,27,28
 688.146 1167 688.146 1167 554.37 978.5 c 128,-1,29
 420.594 790 420.594 790 377.383 543 c 0,30,31
 348.167 376 348.167 376 368.589 235.5 c 128,-1,32
 389.01 95 389.01 95 456.489 -8 c 0,33,34
 533.772 -127 533.772 -127 657.388 -189.5 c 128,-1,35
 781.005 -252 781.005 -252 936.704 -252 c 0,36,37
 1052.81 -252 1052.81 -252 1160.25 -214 c 128,-1,38
 1267.7 -176 1267.7 -176 1367.39 -100 c 1,39,-1
 1402.85 -170 l 1,40,41
 1289.38 -263 1289.38 -263 1157.94 -309.5 c 128,-1,42
 1026.51 -356 1026.51 -356 879.81 -356 c 0,43,44
 715.11 -356 715.11 -356 576.895 -289.5 c 128,-1,45
 438.677 -223 438.677 -223 347.696 -100 c 0,46,47
 253.813 27 253.813 27 222.565 190.5 c 128,-1,48
 191.318 354 191.318 354 224.383 543 c 0,49,50
 256.572 727 256.572 727 345.389 890 c 128,-1,51
 434.204 1053 434.204 1053 571.621 1180 c 0,52,53
 707.964 1306 707.964 1306 875.11 1374 c 128,-1,54
 1042.26 1442 1042.26 1442 1216.86 1442 c 0,55,56
 1409.46 1442 1409.46 1442 1553.78 1359 c 128,-1,57
 1698.12 1276 1698.12 1276 1777.93 1120 c 0,58,59
 1829.18 1022 1829.18 1022 1844.16 907 c 128,-1,60
 1859.14 792 1859.14 792 1837.45 668 c 0,61,62
 1790.56 400 1790.56 400 1616.67 244.5 c 128,-1,63
 1442.76 89 1442.76 89 1188.44 86 c 1,64,-1
 1215.88 248 l 1,0,1
1257.34 485 m 2,65,-1
 1275.71 590 l 2,66,67
 1297.57 715 1297.57 715 1246.78 792.5 c 128,-1,68
 1195.99 870 1195.99 870 1092.49 870 c 0,69,70
 983.589 870 983.589 870 907.532 782.5 c 128,-1,71
 831.475 695 831.475 695 803.834 537 c 0,72,73
 776.019 378 776.019 378 821.91 290.5 c 128,-1,74
 867.803 203 867.803 203 977.604 203 c 0,75,76
 1080.2 203 1080.2 203 1157.84 281.5 c 128,-1,77
 1235.47 360 1235.47 360 1257.34 485 c 2,65,-1
EndSplineSet
EndChar
StartChar: A
Encoding: 65 65 65
Width: 1391
Flags: W
Fore
393.919 541 m 1,0,-1
 887.119 541 l 1,1,-1
 764.728 1251 l 1,2,-1
 393.919 541 l 1,0,-1
-80.5234 0 m 1,3,-1
 -61.9814 106 l 1,4,-1
 55.9189 106 l 1,5,-1
 777.363 1493 l 1,6,-1
 928.563 1493 l 1,7,-1
 1165.62 106 l 1,8,-1
 1297.92 106 l 1,9,-1
 1279.38 0 l 1,10,-1
 790.676 0 l 1,11,-1
 809.219 106 l 1,12,-1
 958.619 106 l 1,13,-1
 903.5 434 l 1,14,-1
 338.3 434 l 1,15,-1
 168.419 106 l 1,16,-1
 316.019 106 l 1,17,-1
 297.477 0 l 1,18,-1
 -80.5234 0 l 1,3,-1
EndSplineSet
KernsSLIFO: 357 -36 0 0 356 -112 0 0 253 -83 0 0 221 -83 0 0 64258 -36 0 0 64257 -36 0 0 376 -83 0 0 255 -83 0 0 8217 -301 0 0 8221 -301 0 0 121 -83 0 0 119 -92 0 0 118 -83 0 0 116 -36 0 0 102 -36 0 0 89 -83 0 0 87 -83 0 0 86 -102 0 0 84 -112 0 0
EndChar
StartChar: B
Encoding: 66 66 66
Width: 1422
Flags: W
Fore
411.146 106 m 1,0,-1
 680.246 106 l 2,1,2
 842.246 106 842.246 106 930.592 184 c 128,-1,3
 1018.94 262 1018.94 262 1048.68 432 c 0,4,5
 1078.25 601 1078.25 601 1017.55 678.5 c 128,-1,6
 956.859 756 956.859 756 793.959 756 c 2,7,-1
 524.859 756 l 1,8,-1
 411.146 106 l 1,0,-1
543.403 862 m 1,9,-1
 772.003 862 l 2,10,11
 919.603 862 919.603 862 998.577 925 c 128,-1,12
 1077.54 988 1077.54 988 1101.34 1124 c 0,13,14
 1125.31 1261 1125.31 1261 1068.29 1323.5 c 128,-1,15
 1011.28 1386 1011.28 1386 863.674 1386 c 2,16,-1
 635.073 1386 l 1,17,-1
 543.403 862 l 1,9,-1
38.9033 0 m 1,18,-1
 57.4463 106 l 1,19,-1
 228.446 106 l 1,20,-1
 452.373 1386 l 1,21,-1
 281.373 1386 l 1,22,-1
 300.091 1493 l 1,23,-1
 963.391 1493 l 2,24,25
 1166.79 1493 1166.79 1493 1253.66 1400.5 c 128,-1,26
 1340.52 1308 1340.52 1308 1308.34 1124 c 0,27,28
 1285.07 991 1285.07 991 1199.7 912 c 128,-1,29
 1114.33 833 1114.33 833 973.485 815 c 1,30,31
 1140.28 791 1140.28 791 1211.88 693.5 c 128,-1,32
 1283.47 596 1283.47 596 1254.78 432 c 0,33,34
 1215.94 210 1215.94 210 1071.57 105 c 128,-1,35
 927.203 0 927.203 0 659.903 0 c 2,36,-1
 38.9033 0 l 1,18,-1
EndSplineSet
KernsSLIFO: 268 38 0 0 262 38 0 0 286 38 0 0 221 -36 0 0 210 38 0 0 212 38 0 0 211 38 0 0 376 -36 0 0 338 38 0 0 213 38 0 0 216 38 0 0 214 38 0 0 199 38 0 0 89 -36 0 0 79 38 0 0 71 38 0 0 67 38 0 0 45 38 0 0
EndChar
StartChar: C
Encoding: 67 67 67
Width: 1491
Flags: W
Fore
1319.46 395 m 1,0,1
 1223.49 186 1223.49 186 1064.74 78.5 c 128,-1,2
 905.984 -29 905.984 -29 691.785 -29 c 0,3,4
 560.385 -29 560.385 -29 456.633 21 c 128,-1,5
 352.88 71 352.88 71 282.549 168 c 0,6,7
 201.343 280 201.343 280 177.222 422.5 c 128,-1,8
 153.101 565 153.101 565 184.59 745 c 0,9,10
 245.471 1093 245.471 1093 463.721 1306.5 c 128,-1,11
 681.971 1520 681.971 1520 978.071 1520 c 0,12,13
 1087.87 1520 1087.87 1520 1206.47 1488 c 128,-1,14
 1325.08 1456 1325.08 1456 1456.8 1391 c 1,15,-1
 1396.63 1047 l 1,16,-1
 1294.93 1047 l 1,17,18
 1294.51 1235 1294.51 1235 1209.73 1324 c 128,-1,19
 1124.95 1413 1124.95 1413 944.052 1413 c 0,20,21
 728.952 1413 728.952 1413 588.6 1243.5 c 128,-1,22
 448.247 1074 448.247 1074 390.689 745 c 0,23,24
 333.31 417 333.31 417 414.356 247.5 c 128,-1,25
 495.404 78 495.404 78 710.504 78 c 0,26,27
 860.804 78 860.804 78 971.911 157.5 c 128,-1,28
 1083.02 237 1083.02 237 1153.86 395 c 1,29,-1
 1319.46 395 l 1,0,1
EndSplineSet
KernsSLIFO: 46 -73 0 0 44 -73 0 0
EndChar
StartChar: D
Encoding: 68 68 68
Width: 1553
Flags: W
Fore
418.907 106 m 1,0,-1
 586.307 106 l 2,1,2
 848.207 106 848.207 106 1017.2 272 c 128,-1,3
 1186.18 438 1186.18 438 1240.42 748 c 0,4,5
 1294.65 1058 1294.65 1058 1183.84 1222 c 128,-1,6
 1073.04 1386 1073.04 1386 810.234 1386 c 2,7,-1
 642.834 1386 l 1,8,-1
 418.907 106 l 1,0,-1
46.6641 0 m 1,9,-1
 65.207 106 l 1,10,-1
 236.207 106 l 1,11,-1
 460.134 1386 l 1,12,-1
 289.134 1386 l 1,13,-1
 307.852 1493 l 1,14,-1
 842.451 1493 l 2,15,16
 1189.85 1493 1189.85 1493 1349.34 1296 c 128,-1,17
 1508.83 1099 1508.83 1099 1447.42 748 c 0,18,19
 1385.84 396 1385.84 396 1156.8 198 c 128,-1,20
 927.764 0 927.764 0 581.264 0 c 2,21,-1
 46.6641 0 l 1,9,-1
EndSplineSet
KernsSLIFO: 86 -36 0 0 46 -73 0 0 45 38 0 0 44 -73 0 0
EndChar
StartChar: E
Encoding: 69 69 69
Width: 1416
Flags: W
Fore
42.5059 0 m 1,0,-1
 61.0488 106 l 1,1,-1
 232.049 106 l 1,2,-1
 455.977 1386 l 1,3,-1
 284.977 1386 l 1,4,-1
 303.693 1493 l 1,5,-1
 1385.49 1493 l 1,6,-1
 1327.41 1161 l 1,7,-1
 1216.71 1161 l 1,8,-1
 1253.28 1370 l 1,9,-1
 635.876 1370 l 1,10,-1
 548.405 870 l 1,11,-1
 988.509 870 l 1,12,-1
 1021.22 1057 l 1,13,-1
 1131.92 1057 l 1,14,-1
 1045.15 561 l 1,15,-1
 934.447 561 l 1,16,-1
 967.162 748 l 1,17,-1
 527.062 748 l 1,18,-1
 417.724 123 l 1,19,-1
 1049.52 123 l 1,20,-1
 1086.09 332 l 1,21,-1
 1196.79 332 l 1,22,-1
 1138.71 0 l 1,23,-1
 42.5059 0 l 1,0,-1
EndSplineSet
KernsSLIFO: 45 38 0 0
EndChar
StartChar: F
Encoding: 70 70 70
Width: 1351
Flags: W
Fore
43.5059 0 m 1,0,-1
 62.0488 106 l 1,1,-1
 233.049 106 l 1,2,-1
 456.977 1386 l 1,3,-1
 285.977 1386 l 1,4,-1
 304.693 1493 l 1,5,-1
 1404.49 1493 l 1,6,-1
 1346.41 1161 l 1,7,-1
 1235.71 1161 l 1,8,-1
 1272.28 1370 l 1,9,-1
 636.876 1370 l 1,10,-1
 549.405 870 l 1,11,-1
 1008.41 870 l 1,12,-1
 1041.12 1057 l 1,13,-1
 1151.82 1057 l 1,14,-1
 1065.05 561 l 1,15,-1
 954.348 561 l 1,16,-1
 987.061 748 l 1,17,-1
 528.062 748 l 1,18,-1
 415.749 106 l 1,19,-1
 630.849 106 l 1,20,-1
 612.307 0 l 1,21,-1
 43.5059 0 l 1,0,-1
EndSplineSet
KernsSLIFO: 283 -112 0 0 193 -178 0 0 194 -178 0 0 339 -112 0 0 195 -178 0 0 192 -178 0 0 248 -112 0 0 230 -139 0 0 245 -112 0 0 246 -112 0 0 244 -112 0 0 242 -112 0 0 243 -112 0 0 235 -112 0 0 234 -112 0 0 232 -112 0 0 233 -112 0 0 229 -139 0 0 227 -139 0 0 228 -139 0 0 226 -139 0 0 224 -139 0 0 225 -139 0 0 196 -178 0 0 111 -112 0 0 101 -112 0 0 97 -139 0 0 65 -178 0 0 59 -73 0 0 58 -73 0 0 46 -319 0 0 45 -92 0 0 44 -319 0 0
EndChar
StartChar: G
Encoding: 71 71 71
Width: 1554
Flags: W
Fore
1314.91 1047 m 1,0,1
 1316.12 1234 1316.12 1234 1231.87 1323.5 c 128,-1,2
 1147.63 1413 1147.63 1413 969.431 1413 c 0,3,4
 737.231 1413 737.231 1413 593.89 1247 c 128,-1,5
 450.551 1081 450.551 1081 391.769 745 c 0,6,7
 334.214 416 334.214 416 422.549 247 c 128,-1,8
 510.883 78 510.883 78 739.482 78 c 0,9,10
 841.183 78 841.183 78 938.78 106 c 128,-1,11
 1036.38 134 1036.38 134 1129.88 190 c 1,12,-1
 1197.23 575 l 1,13,-1
 944.329 575 l 1,14,-1
 963.048 682 l 1,15,-1
 1398.65 682 l 1,16,-1
 1301.21 125 l 1,17,18
 1168.04 48 1168.04 48 1023.15 9.5 c 128,-1,19
 878.264 -29 878.264 -29 720.764 -29 c 0,20,21
 416.563 -29 416.563 -29 270.414 182.5 c 128,-1,22
 124.265 394 124.265 394 185.669 745 c 0,23,24
 247.6 1099 247.6 1099 468.024 1309.5 c 128,-1,25
 688.45 1520 688.45 1520 998.952 1520 c 0,26,27
 1114.15 1520 1114.15 1520 1231.84 1490.5 c 128,-1,28
 1349.53 1461 1349.53 1461 1477.63 1401 c 1,29,-1
 1415.71 1047 l 1,30,-1
 1314.91 1047 l 1,0,1
EndSplineSet
KernsSLIFO: 221 -36 0 0 376 -36 0 0 89 -36 0 0 46 -73 0 0 45 38 0 0 44 -73 0 0
EndChar
StartChar: H
Encoding: 72 72 72
Width: 1696
Flags: W
Fore
60.4053 0 m 1,0,-1
 78.9492 106 l 1,1,-1
 249.949 106 l 1,2,-1
 473.876 1386 l 1,3,-1
 302.876 1386 l 1,4,-1
 321.594 1493 l 1,5,-1
 846.293 1493 l 1,6,-1
 827.576 1386 l 1,7,-1
 656.576 1386 l 1,8,-1
 566.305 870 l 1,9,-1
 1262.91 870 l 1,10,-1
 1353.18 1386 l 1,11,-1
 1182.18 1386 l 1,12,-1
 1200.89 1493 l 1,13,-1
 1725.59 1493 l 1,14,-1
 1706.88 1386 l 1,15,-1
 1535.88 1386 l 1,16,-1
 1311.95 106 l 1,17,-1
 1482.95 106 l 1,18,-1
 1464.41 0 l 1,19,-1
 939.706 0 l 1,20,-1
 958.249 106 l 1,21,-1
 1129.25 106 l 1,22,-1
 1241.56 748 l 1,23,-1
 544.963 748 l 1,24,-1
 432.648 106 l 1,25,-1
 603.648 106 l 1,26,-1
 585.106 0 l 1,27,-1
 60.4053 0 l 1,0,-1
EndSplineSet
EndChar
StartChar: I
Encoding: 73 73 73
Width: 768
Flags: W
Fore
383.799 106 m 1,0,-1
 554.799 106 l 1,1,-1
 536.257 0 l 1,2,-1
 11.5557 0 l 1,3,-1
 30.0986 106 l 1,4,-1
 201.099 106 l 1,5,-1
 425.026 1386 l 1,6,-1
 254.026 1386 l 1,7,-1
 272.743 1493 l 1,8,-1
 797.443 1493 l 1,9,-1
 778.727 1386 l 1,10,-1
 607.727 1386 l 1,11,-1
 383.799 106 l 1,0,-1
EndSplineSet
EndChar
StartChar: J
Encoding: 74 74 74
Width: 767
Flags: W
Fore
-282.35 -358 m 1,0,-1
 -241.238 -123 l 1,1,-1
 -138.638 -123 l 1,2,3
 -153.258 -222 -153.258 -222 -122.143 -270.5 c 128,-1,4
 -91.0273 -319 -91.0273 -319 -11.8271 -319 c 0,5,6
 95.2725 -319 95.2725 -319 150.693 -244 c 128,-1,7
 206.114 -169 206.114 -169 244.251 49 c 2,8,-1
 478.149 1386 l 1,9,-1
 269.349 1386 l 1,10,-1
 288.068 1493 l 1,11,-1
 850.568 1493 l 1,12,-1
 831.849 1386 l 1,13,-1
 660.849 1386 l 1,14,-1
 425.552 41 l 2,15,16
 382.342 -206 382.342 -206 273.997 -316 c 128,-1,17
 165.653 -426 165.653 -426 -32.3457 -426 c 0,18,19
 -96.2461 -426 -96.2461 -426 -159.422 -409 c 128,-1,20
 -222.599 -392 -222.599 -392 -282.35 -358 c 1,0,-1
EndSplineSet
KernsSLIFO: 59 -83 0 0 58 -83 0 0 46 -159 0 0 44 -120 0 0
EndChar
StartChar: K
Encoding: 75 75 75
Width: 1456
Flags: W
Fore
50.9053 0 m 1,0,-1
 69.4492 106 l 1,1,-1
 240.449 106 l 1,2,-1
 464.376 1386 l 1,3,-1
 293.376 1386 l 1,4,-1
 312.094 1493 l 1,5,-1
 836.793 1493 l 1,6,-1
 818.076 1386 l 1,7,-1
 647.076 1386 l 1,8,-1
 548.232 821 l 1,9,-1
 1225.78 1386 l 1,10,-1
 1079.98 1386 l 1,11,-1
 1098.69 1493 l 1,12,-1
 1545.09 1493 l 1,13,-1
 1526.38 1386 l 1,14,-1
 1375.18 1386 l 1,15,-1
 699.783 823 l 1,16,-1
 1219.65 106 l 1,17,-1
 1372.65 106 l 1,18,-1
 1354.11 0 l 1,19,-1
 1041.81 0 l 1,20,-1
 528.64 709 l 1,21,-1
 423.148 106 l 1,22,-1
 594.148 106 l 1,23,-1
 575.606 0 l 1,24,-1
 50.9053 0 l 1,0,-1
EndSplineSet
KernsSLIFO: 367 -45 0 0 366 -73 0 0 283 -55 0 0 268 -55 0 0 262 -55 0 0 253 -131 0 0 221 -55 0 0 217 -73 0 0 219 -73 0 0 218 -73 0 0 210 -55 0 0 212 -55 0 0 211 -55 0 0 193 -83 0 0 194 -83 0 0 376 -55 0 0 255 -131 0 0 339 -55 0 0 338 -55 0 0 213 -55 0 0 195 -83 0 0 192 -83 0 0 248 -36 0 0 216 -55 0 0 252 -45 0 0 251 -45 0 0 249 -45 0 0 250 -45 0 0 245 -55 0 0 246 -55 0 0 244 -55 0 0 242 -55 0 0 243 -55 0 0 235 -55 0 0 234 -55 0 0 232 -55 0 0 233 -55 0 0 220 -73 0 0 214 -55 0 0 199 -55 0 0 196 -83 0 0 121 -131 0 0 117 -45 0 0 111 -55 0 0 101 -55 0 0 89 -55 0 0 87 -73 0 0 85 -73 0 0 79 -55 0 0 67 -55 0 0 65 -83 0 0 45 -149 0 0
EndChar
StartChar: L
Encoding: 76 76 76
Width: 1284
Flags: W
Fore
31.4209 0 m 1,0,-1
 49.9639 106 l 1,1,-1
 220.964 106 l 1,2,-1
 444.891 1386 l 1,3,-1
 273.891 1386 l 1,4,-1
 292.608 1493 l 1,5,-1
 817.309 1493 l 1,6,-1
 798.591 1386 l 1,7,-1
 627.591 1386 l 1,8,-1
 406.639 123 l 1,9,-1
 1020.43 123 l 1,10,-1
 1064.17 373 l 1,11,-1
 1174.88 373 l 1,12,-1
 1109.62 0 l 1,13,-1
 31.4209 0 l 1,0,-1
EndSplineSet
KernsSLIFO: 366 -112 0 0 356 -167 0 0 253 -36 0 0 221 -131 0 0 217 -112 0 0 219 -112 0 0 218 -112 0 0 376 -131 0 0 255 -36 0 0 8217 -491 0 0 8221 -491 0 0 220 -112 0 0 121 -36 0 0 89 -131 0 0 87 -178 0 0 86 -243 0 0 85 -112 0 0 84 -167 0 0
EndChar
StartChar: M
Encoding: 77 77 77
Width: 1992
Flags: W
Fore
76.4053 0 m 1,0,-1
 94.9492 106 l 1,1,-1
 265.949 106 l 1,2,-1
 489.876 1386 l 1,3,-1
 308.977 1386 l 1,4,-1
 327.693 1493 l 1,5,-1
 719.193 1493 l 1,6,-1
 1004.83 430 l 1,7,-1
 1662.39 1493 l 1,8,-1
 2029.59 1493 l 1,9,-1
 2010.88 1386 l 1,10,-1
 1831.78 1386 l 1,11,-1
 1607.85 106 l 1,12,-1
 1779.75 106 l 1,13,-1
 1761.21 0 l 1,14,-1
 1235.61 0 l 1,15,-1
 1254.15 106 l 1,16,-1
 1425.15 106 l 1,17,-1
 1627.03 1260 l 1,18,-1
 984.118 219 l 1,19,-1
 857.219 219 l 1,20,-1
 578.532 1260 l 1,21,-1
 376.648 106 l 1,22,-1
 547.648 106 l 1,23,-1
 529.106 0 l 1,24,-1
 76.4053 0 l 1,0,-1
EndSplineSet
EndChar
StartChar: N
Encoding: 78 78 78
Width: 1703
Flags: W
Fore
52.3242 0 m 1,0,-1
 70.8682 106 l 1,1,-1
 251.768 106 l 1,2,-1
 475.694 1386 l 1,3,-1
 294.794 1386 l 1,4,-1
 313.514 1493 l 1,5,-1
 658.213 1493 l 1,6,-1
 1257.63 315 l 1,7,-1
 1444.99 1386 l 1,8,-1
 1264.99 1386 l 1,9,-1
 1283.71 1493 l 1,10,-1
 1755.31 1493 l 1,11,-1
 1736.59 1386 l 1,12,-1
 1555.69 1386 l 1,13,-1
 1308.15 -29 l 1,14,-1
 1199.25 -29 l 1,15,-1
 558.928 1229 l 1,16,-1
 362.468 106 l 1,17,-1
 543.368 106 l 1,18,-1
 524.824 0 l 1,19,-1
 52.3242 0 l 1,0,-1
EndSplineSet
KernsSLIFO: 59 -73 0 0 58 -73 0 0 46 -131 0 0 44 -131 0 0
EndChar
StartChar: O
Encoding: 79 79 79
Width: 1595
Flags: W
Fore
723.235 78 m 0,0,1
 943.735 78 943.735 78 1085.71 246.5 c 128,-1,2
 1227.69 415 1227.69 415 1285.42 745 c 0,3,4
 1343.33 1076 1343.33 1076 1260.31 1244.5 c 128,-1,5
 1177.28 1413 1177.28 1413 956.783 1413 c 0,6,7
 735.384 1413 735.384 1413 593.406 1244.5 c 128,-1,8
 451.428 1076 451.428 1076 393.521 745 c 0,9,10
 335.791 415 335.791 415 418.813 246.5 c 128,-1,11
 501.835 78 501.835 78 723.235 78 c 0,0,1
704.517 -29 m 0,12,13
 567.716 -29 567.716 -29 461.714 21 c 128,-1,14
 355.711 71 355.711 71 285.38 168 c 0,15,16
 204.174 280 204.174 280 179.966 422 c 128,-1,17
 155.757 564 155.757 564 187.421 745 c 0,18,19
 219.087 926 219.087 926 293.066 1068.5 c 128,-1,20
 367.045 1211 367.045 1211 487.438 1323 c 0,21,22
 592.783 1421 592.783 1421 714.843 1470.5 c 128,-1,23
 836.902 1520 836.902 1520 975.503 1520 c 0,24,25
 1268 1520 1268 1520 1410.74 1307 c 128,-1,26
 1553.48 1094 1553.48 1094 1492.42 745 c 0,27,28
 1461.11 566 1461.11 566 1386.5 422.5 c 128,-1,29
 1311.9 279 1311.9 279 1191.68 168 c 0,30,31
 1086.34 70 1086.34 70 964.276 20.5 c 128,-1,32
 842.216 -29 842.216 -29 704.517 -29 c 0,12,13
EndSplineSet
KernsSLIFO: 88 -36 0 0 86 -36 0 0 46 -120 0 0 45 75 0 0 44 -120 0 0
EndChar
StartChar: P
Encoding: 80 80 80
Width: 1307
Flags: W
Fore
525.06 760 m 1,0,-1
 762.66 760 l 2,1,2
 896.76 760 896.76 760 981.041 840.5 c 128,-1,3
 1065.33 921 1065.33 921 1091.91 1073 c 0,4,5
 1118.69 1226 1118.69 1226 1062.48 1306 c 128,-1,6
 1006.28 1386 1006.28 1386 872.175 1386 c 2,7,-1
 634.574 1386 l 1,8,-1
 525.06 760 l 1,0,-1
38.4043 0 m 1,9,-1
 56.9473 106 l 1,10,-1
 227.947 106 l 1,11,-1
 451.875 1386 l 1,12,-1
 280.875 1386 l 1,13,-1
 299.592 1493 l 1,14,-1
 934.992 1493 l 2,15,16
 1136.59 1493 1136.59 1493 1234.63 1379.5 c 128,-1,17
 1332.68 1266 1332.68 1266 1298.91 1073 c 0,18,19
 1265.32 881 1265.32 881 1127.48 767 c 128,-1,20
 989.646 653 989.646 653 788.041 653 c 2,21,-1
 506.341 653 l 1,22,-1
 410.647 106 l 1,23,-1
 618.548 106 l 1,24,-1
 600.005 0 l 1,25,-1
 38.4043 0 l 1,9,-1
EndSplineSet
KernsSLIFO: 366 -36 0 0 283 -92 0 0 351 -55 0 0 353 -55 0 0 217 -36 0 0 219 -36 0 0 218 -36 0 0 193 -188 0 0 194 -188 0 0 339 -83 0 0 195 -188 0 0 192 -188 0 0 248 -83 0 0 230 -92 0 0 245 -83 0 0 246 -83 0 0 244 -83 0 0 242 -83 0 0 243 -83 0 0 235 -92 0 0 234 -92 0 0 232 -92 0 0 233 -92 0 0 229 -92 0 0 227 -92 0 0 228 -92 0 0 226 -92 0 0 224 -92 0 0 225 -92 0 0 220 -36 0 0 196 -188 0 0 115 -55 0 0 111 -83 0 0 101 -92 0 0 97 -92 0 0 85 -36 0 0 65 -188 0 0 59 -73 0 0 58 -73 0 0 46 -415 0 0 45 -112 0 0 44 -415 0 0
EndChar
StartChar: Q
Encoding: 81 81 81
Width: 1597
Flags: W
Fore
755.151 -29 m 1,0,1
 446.451 -29 446.451 -29 300.579 181.5 c 0,2,3
 198.097 329.39 198.097 329.39 198.097 547.62 c 0,4,5
 198.097 640.01 198.097 640.01 216.456 745 c 0,6,7
 248.128 926 248.128 926 322.107 1068.5 c 128,-1,8
 396.078 1211 396.078 1211 516.472 1323 c 0,9,10
 621.816 1421 621.816 1421 743.874 1470.5 c 128,-1,11
 865.941 1520 865.941 1520 1004.54 1520 c 0,12,13
 1297.04 1520 1297.04 1520 1439.77 1307 c 0,14,15
 1539.75 1157.81 1539.75 1157.81 1539.75 941.91 c 0,16,17
 1539.75 849.56 1539.75 849.56 1521.46 745 c 0,18,19
 1469.68 449 1469.68 449 1299.43 247.5 c 0,20,21
 1129.17 46 1129.17 46 881.431 -12 c 1,22,23
 918.304 -79 918.304 -79 982.455 -111 c 0,24,25
 1046.61 -143 1046.61 -143 1144.71 -143 c 2,26,-1
 1369.71 -143 l 1,27,-1
 1337.34 -328 l 1,28,-1
 1232.04 -328 l 2,29,30
 993.282 -328 993.282 -328 894.13 -245.5 c 0,31,32
 796.695 -164.44 796.695 -164.44 755.151 -29 c 1,0,1
752.271 78 m 0,33,34
 972.771 78 972.771 78 1114.75 246.5 c 0,35,36
 1256.73 415 1256.73 415 1314.46 745 c 0,37,38
 1338.25 881 1338.25 881 1338.25 989.57 c 0,39,40
 1338.25 1145.23 1338.25 1145.23 1289.35 1244.5 c 0,41,42
 1206.32 1413 1206.32 1413 985.821 1413 c 0,43,44
 764.422 1413 764.422 1413 622.446 1244.5 c 128,-1,45
 480.463 1076 480.463 1076 422.557 745 c 0,46,47
 398.878 609.65 398.878 609.65 398.887 501.46 c 0,48,49
 398.887 345.89 398.887 345.89 447.847 246.5 c 0,50,51
 530.871 78 530.871 78 752.271 78 c 0,33,34
EndSplineSet
KernsSLIFO: 8217 38 0 0 8221 38 0 0 46 -102 0 0 45 75 0 0 44 -102 0 0
EndChar
StartChar: R
Encoding: 82 82 82
Width: 1459
Flags: W
Fore
953.657 741 m 1,0,1
 1013.34 722 1013.34 722 1050.82 676.5 c 128,-1,2
 1088.31 631 1088.31 631 1109.97 549 c 2,3,-1
 1227.77 106 l 1,4,-1
 1391.57 106 l 1,5,-1
 1373.03 0 l 1,6,-1
 1056.23 0 l 1,7,-1
 929.623 475 l 1,8,9
 893.465 613 893.465 613 850.15 653.5 c 128,-1,10
 806.835 694 806.835 694 718.636 694 c 2,11,-1
 517.936 694 l 1,12,-1
 415.069 106 l 1,13,-1
 604.969 106 l 1,14,-1
 586.426 0 l 1,15,-1
 42.8262 0 l 1,16,-1
 61.3691 106 l 1,17,-1
 232.369 106 l 1,18,-1
 456.296 1386 l 1,19,-1
 285.296 1386 l 1,20,-1
 304.014 1493 l 1,21,-1
 985.31 1493 l 2,22,23
 1181.51 1493 1181.51 1493 1269.97 1389 c 128,-1,24
 1358.42 1285 1358.42 1285 1325.01 1094 c 0,25,26
 1298.07 940 1298.07 940 1204.74 851.5 c 128,-1,27
 1111.41 763 1111.41 763 953.657 741 c 1,0,1
536.654 801 m 1,28,-1
 802.154 801 l 2,29,30
 938.055 801 938.055 801 1015.36 872.5 c 128,-1,31
 1092.67 944 1092.67 944 1118.92 1094 c 0,32,33
 1145.15 1244 1145.15 1244 1092.77 1315 c 128,-1,34
 1040.4 1386 1040.4 1386 904.496 1386 c 2,35,-1
 638.996 1386 l 1,36,-1
 536.654 801 l 1,28,-1
EndSplineSet
KernsSLIFO: 356 -36 0 0 253 -36 0 0 221 -63 0 0 376 -63 0 0 255 -36 0 0 8217 -112 0 0 8221 -112 0 0 248 38 0 0 230 47 0 0 229 47 0 0 227 47 0 0 228 47 0 0 226 47 0 0 224 47 0 0 225 47 0 0 121 -36 0 0 97 47 0 0 89 -63 0 0 87 -45 0 0 86 -73 0 0 84 -36 0 0
EndChar
StartChar: S
Encoding: 83 83 83
Width: 1331
Flags: W
Fore
121.703 72 m 1,0,-1
 181.183 412 l 1,1,-1
 284.508 411 l 1,2,3
 259.269 241 259.269 241 329.16 159.5 c 128,-1,4
 399.052 78 399.052 78 570.952 78 c 0,5,6
 731.152 78 731.152 78 827.636 148.5 c 128,-1,7
 924.119 219 924.119 219 947.736 354 c 0,8,9
 966.631 462 966.631 462 925.927 520 c 128,-1,10
 885.223 578 885.223 578 731.045 633 c 2,11,-1
 564.067 692 l 2,12,13
 382.838 757 382.838 757 321.058 854 c 128,-1,14
 259.276 951 259.276 951 288.843 1120 c 0,15,16
 322.081 1310 322.081 1310 461.95 1415 c 128,-1,17
 601.819 1520 601.819 1520 821.419 1520 c 0,18,19
 915.02 1520 915.02 1520 1022.68 1497.5 c 128,-1,20
 1130.35 1475 1130.35 1475 1248.82 1432 c 1,21,-1
 1193.19 1114 l 1,22,-1
 1091.49 1114 l 1,23,24
 1103.83 1272 1103.83 1272 1036.51 1342.5 c 128,-1,25
 969.201 1413 969.201 1413 806.301 1413 c 0,26,27
 664.101 1413 664.101 1413 578.566 1348.5 c 128,-1,28
 493.033 1284 493.033 1284 471.515 1161 c 0,29,30
 452.797 1054 452.797 1054 497.925 993 c 128,-1,31
 543.053 932 543.053 932 713.456 872 c 2,32,-1
 870.334 817 l 2,33,34
 1042.36 756 1042.36 756 1103.68 661.5 c 128,-1,35
 1165 567 1165 567 1137.19 408 c 0,36,37
 1099.22 191 1099.22 191 954.877 81 c 128,-1,38
 810.533 -29 810.533 -29 563.033 -29 c 0,39,40
 452.333 -29 452.333 -29 341.957 -4 c 128,-1,41
 231.581 21 231.581 21 121.703 72 c 1,0,-1
EndSplineSet
KernsSLIFO: 350 -36 0 0 352 -36 0 0 83 -36 0 0 46 -73 0 0 45 75 0 0 44 -73 0 0
EndChar
StartChar: T
Encoding: 84 84 84
Width: 1308
Flags: W
Fore
300.695 0 m 1,0,-1
 319.238 106 l 1,1,-1
 491.139 106 l 1,2,-1
 712.966 1374 l 1,3,-1
 317.866 1374 l 1,4,-1
 277.104 1141 l 1,5,-1
 166.403 1141 l 1,6,-1
 227.982 1493 l 1,7,-1
 1421.38 1493 l 1,8,-1
 1359.8 1141 l 1,9,-1
 1249.1 1141 l 1,10,-1
 1289.86 1374 l 1,11,-1
 894.766 1374 l 1,12,-1
 672.938 106 l 1,13,-1
 844.838 106 l 1,14,-1
 826.296 0 l 1,15,-1
 300.695 0 l 1,0,-1
EndSplineSet
KernsSLIFO: 356 38 0 0 283 -159 0 0 269 -159 0 0 263 -159 0 0 351 -149 0 0 353 -149 0 0 193 -112 0 0 194 -112 0 0 339 -159 0 0 195 -112 0 0 192 -112 0 0 248 -159 0 0 230 -159 0 0 245 -159 0 0 246 -159 0 0 244 -159 0 0 242 -159 0 0 243 -159 0 0 235 -159 0 0 234 -159 0 0 232 -159 0 0 233 -159 0 0 231 -159 0 0 229 -159 0 0 227 -159 0 0 228 -159 0 0 226 -159 0 0 224 -159 0 0 225 -159 0 0 196 -112 0 0 119 -73 0 0 115 -149 0 0 111 -159 0 0 101 -159 0 0 99 -159 0 0 97 -159 0 0 84 38 0 0 65 -112 0 0 59 -73 0 0 58 -73 0 0 46 -301 0 0 45 -264 0 0 44 -301 0 0
EndChar
StartChar: U
Encoding: 85 85 85
Width: 1653
Flags: W
Fore
472.965 1386 m 1,0,-1
 301.064 1386 l 1,1,-1
 319.784 1493 l 1,2,-1
 845.384 1493 l 1,3,-1
 826.665 1386 l 1,4,-1
 654.765 1386 l 1,5,-1
 519.709 614 l 2,6,7
 469.676 328 469.676 328 534.058 215 c 128,-1,8
 598.438 102 598.438 102 804.538 102 c 0,9,10
 1010.64 102 1010.64 102 1114.56 215 c 128,-1,11
 1218.48 328 1218.48 328 1268.51 614 c 2,12,-1
 1403.56 1386 l 1,13,-1
 1231.66 1386 l 1,14,-1
 1250.38 1493 l 1,15,-1
 1703.98 1493 l 1,16,-1
 1685.26 1386 l 1,17,-1
 1514.26 1386 l 1,18,-1
 1375.71 594 l 2,19,20
 1316.05 253 1316.05 253 1173.48 112 c 128,-1,21
 1030.92 -29 1030.92 -29 748.32 -29 c 0,22,23
 465.721 -29 465.721 -29 370.413 113 c 128,-1,24
 275.104 255 275.104 255 334.411 594 c 2,25,-1
 472.965 1386 l 1,0,-1
EndSplineSet
KernsSLIFO: 193 -63 0 0 194 -63 0 0 195 -63 0 0 192 -63 0 0 196 -63 0 0 74 -55 0 0 65 -63 0 0 59 -73 0 0 58 -73 0 0 46 -188 0 0 45 -36 0 0 44 -188 0 0
EndChar
StartChar: V
Encoding: 86 86 86
Width: 1419
Flags: W
Fore
521.997 1386 m 1,0,-1
 718.412 240 l 1,1,-1
 1314.9 1386 l 1,2,-1
 1163.7 1386 l 1,3,-1
 1182.41 1493 l 1,4,-1
 1576.61 1493 l 1,5,-1
 1557.9 1386 l 1,6,-1
 1427.4 1386 l 1,7,-1
 705.227 0 l 1,8,-1
 550.427 0 l 1,9,-1
 315.896 1386 l 1,10,-1
 181.797 1386 l 1,11,-1
 200.514 1493 l 1,12,-1
 690.114 1493 l 1,13,-1
 671.396 1386 l 1,14,-1
 521.997 1386 l 1,0,-1
EndSplineSet
KernsSLIFO: 367 -131 0 0 283 -188 0 0 253 -83 0 0 210 -36 0 0 212 -36 0 0 211 -36 0 0 193 -139 0 0 194 -139 0 0 255 -83 0 0 8217 75 0 0 8221 75 0 0 339 -188 0 0 338 -36 0 0 213 -36 0 0 195 -139 0 0 192 -139 0 0 248 -188 0 0 230 -188 0 0 216 -36 0 0 252 -131 0 0 251 -131 0 0 249 -131 0 0 250 -131 0 0 245 -188 0 0 246 -188 0 0 244 -188 0 0 242 -188 0 0 243 -188 0 0 235 -188 0 0 234 -188 0 0 232 -188 0 0 233 -188 0 0 229 -188 0 0 227 -188 0 0 228 -188 0 0 226 -188 0 0 224 -188 0 0 225 -188 0 0 214 -36 0 0 196 -139 0 0 121 -83 0 0 117 -131 0 0 111 -188 0 0 105 -36 0 0 101 -188 0 0 97 -188 0 0 79 -36 0 0 65 -139 0 0 59 -206 0 0 58 -206 0 0 46 -358 0 0 45 -188 0 0 44 -358 0 0
EndChar
StartChar: W
Encoding: 87 87 87
Width: 2013
Flags: W
Fore
1393.23 0 m 1,0,-1
 1245.63 0 l 1,1,-1
 1150.2 1214 l 1,2,-1
 630.026 0 l 1,3,-1
 482.427 0 l 1,4,-1
 372.997 1386 l 1,5,-1
 239.797 1386 l 1,6,-1
 258.514 1493 l 1,7,-1
 749.014 1493 l 1,8,-1
 730.297 1386 l 1,9,-1
 562.896 1386 l 1,10,-1
 649.834 283 l 1,11,-1
 1167.51 1493 l 1,12,-1
 1313.31 1493 l 1,13,-1
 1410.76 270 l 1,14,-1
 1887.7 1386 l 1,15,-1
 1732.9 1386 l 1,16,-1
 1751.61 1493 l 1,17,-1
 2138.61 1493 l 1,18,-1
 2119.9 1386 l 1,19,-1
 1987.6 1386 l 1,20,-1
 1393.23 0 l 1,0,-1
EndSplineSet
KernsSLIFO: 252 -83 0 0 229 -178 0 0 230 -139 0 0 59 -178 0 0 242 -139 0 0 45 -149 0 0 46 -358 0 0 367 -83 0 0 245 -139 0 0 235 -167 0 0 249 -83 0 0 44 -358 0 0 224 -178 0 0 195 -102 0 0 234 -167 0 0 341 -92 0 0 8221 38 0 0 232 -167 0 0 196 -102 0 0 193 -102 0 0 8217 38 0 0 251 -83 0 0 253 -45 0 0 227 -178 0 0 194 -102 0 0 248 -139 0 0 244 -139 0 0 65 -102 0 0 97 -178 0 0 228 -178 0 0 246 -139 0 0 250 -83 0 0 225 -178 0 0 345 -92 0 0 226 -178 0 0 233 -167 0 0 283 -167 0 0 101 -167 0 0 105 -36 0 0 339 -139 0 0 255 -45 0 0 111 -139 0 0 114 -92 0 0 117 -83 0 0 192 -102 0 0 121 -45 0 0 58 -178 0 0 243 -139 0 0
EndChar
StartChar: X
Encoding: 88 88 88
Width: 1381
Flags: W
Fore
660.993 639 m 1,0,-1
 239.249 106 l 1,1,-1
 412.949 106 l 1,2,-1
 394.406 0 l 1,3,-1
 -50.1934 0 l 1,4,-1
 -31.6514 106 l 1,5,-1
 123.148 106 l 1,6,-1
 619.838 733 l 1,7,-1
 341.676 1386 l 1,8,-1
 197.676 1386 l 1,9,-1
 216.394 1493 l 1,10,-1
 749.193 1493 l 1,11,-1
 730.477 1386 l 1,12,-1
 572.076 1386 l 1,13,-1
 775.929 905 l 1,14,-1
 1156.18 1386 l 1,15,-1
 983.379 1386 l 1,16,-1
 1002.09 1493 l 1,17,-1
 1442.19 1493 l 1,18,-1
 1423.48 1386 l 1,19,-1
 1272.28 1386 l 1,20,-1
 816.183 811 l 1,21,-1
 1116.75 106 l 1,22,-1
 1260.75 106 l 1,23,-1
 1242.21 0 l 1,24,-1
 709.406 0 l 1,25,-1
 727.949 106 l 1,26,-1
 888.148 106 l 1,27,-1
 660.993 639 l 1,0,-1
EndSplineSet
KernsSLIFO: 268 -36 0 0 262 -36 0 0 210 -36 0 0 212 -36 0 0 211 -36 0 0 193 -73 0 0 194 -73 0 0 338 -36 0 0 213 -36 0 0 195 -73 0 0 192 -73 0 0 216 -36 0 0 214 -36 0 0 199 -36 0 0 196 -73 0 0 79 -36 0 0 67 -36 0 0 65 -73 0 0 45 -73 0 0
EndChar
StartChar: Y
Encoding: 89 89 89
Width: 1297
Flags: W
Fore
298.526 0 m 1,0,-1
 317.069 106 l 1,1,-1
 488.97 106 l 1,2,-1
 582.914 643 l 1,3,-1
 297.997 1386 l 1,4,-1
 171.997 1386 l 1,5,-1
 190.714 1493 l 1,6,-1
 690.214 1493 l 1,7,-1
 671.497 1386 l 1,8,-1
 514.896 1386 l 1,9,-1
 744.931 782 l 1,10,-1
 1186.3 1386 l 1,11,-1
 1035.1 1386 l 1,12,-1
 1053.81 1493 l 1,13,-1
 1444.41 1493 l 1,14,-1
 1425.7 1386 l 1,15,-1
 1298.8 1386 l 1,16,-1
 768.038 662 l 1,17,-1
 670.77 106 l 1,18,-1
 842.67 106 l 1,19,-1
 824.127 0 l 1,20,-1
 298.526 0 l 1,0,-1
EndSplineSet
KernsSLIFO: 367 -178 0 0 283 -178 0 0 268 -36 0 0 262 -36 0 0 193 -159 0 0 194 -159 0 0 339 -215 0 0 195 -159 0 0 192 -159 0 0 248 -178 0 0 230 -196 0 0 252 -178 0 0 251 -178 0 0 249 -178 0 0 250 -178 0 0 245 -178 0 0 246 -178 0 0 244 -178 0 0 242 -178 0 0 243 -178 0 0 235 -178 0 0 234 -178 0 0 232 -178 0 0 233 -178 0 0 229 -159 0 0 227 -159 0 0 228 -159 0 0 226 -159 0 0 224 -159 0 0 225 -159 0 0 199 -36 0 0 196 -159 0 0 117 -178 0 0 111 -178 0 0 105 -36 0 0 101 -178 0 0 97 -159 0 0 67 -36 0 0 65 -159 0 0 59 -253 0 0 58 -253 0 0 46 -264 0 0 45 -225 0 0 44 -264 0 0
EndChar
StartChar: Z
Encoding: 90 90 90
Width: 1350
Flags: W
Fore
22.1553 0 m 1,0,-1
 34.751 72 l 1,1,-1
 1098.83 1370 l 1,2,-1
 404.026 1370 l 1,3,-1
 365.015 1147 l 1,4,-1
 254.314 1147 l 1,5,-1
 314.844 1493 l 1,6,-1
 1376.84 1493 l 1,7,-1
 1364.25 1421 l 1,8,-1
 300.174 123 l 1,9,-1
 1059.77 123 l 1,10,-1
 1096.34 332 l 1,11,-1
 1206.14 332 l 1,12,-1
 1148.06 0 l 1,13,-1
 22.1553 0 l 1,0,-1
EndSplineSet
KernsSLIFO: 46 -36 0 0 44 -36 0 0
EndChar
StartChar: bracketleft
Encoding: 91 91 91
Width: 759
Flags: W
Fore
358.972 1556 m 1,0,-1
 777.472 1556 l 1,1,-1
 758.929 1450 l 1,2,-1
 512.328 1450 l 1,3,-1
 229.972 -164 l 1,4,-1
 476.571 -164 l 1,5,-1
 458.028 -270 l 1,6,-1
 39.5283 -270 l 1,7,-1
 358.972 1556 l 1,0,-1
EndSplineSet
EndChar
StartChar: backslash
Encoding: 92 92 92
Width: 655
Flags: W
Fore
325.714 1493 m 1,0,-1
 508.286 -190 l 1,1,-1
 364.286 -190 l 1,2,-1
 181.714 1493 l 1,3,-1
 325.714 1493 l 1,0,-1
EndSplineSet
EndChar
StartChar: bracketright
Encoding: 93 93 93
Width: 758
Flags: W
Fore
759.472 1556 m 1,0,-1
 440.028 -270 l 1,1,-1
 21.5283 -270 l 1,2,-1
 40.0713 -164 l 1,3,-1
 286.672 -164 l 1,4,-1
 569.028 1450 l 1,5,-1
 322.429 1450 l 1,6,-1
 340.972 1556 l 1,7,-1
 759.472 1556 l 1,0,-1
EndSplineSet
EndChar
StartChar: asciicircum
Encoding: 94 94 94
Width: 1624
Flags: W
Fore
946.2 1493 m 1,0,-1
 1434.9 936 l 1,1,-1
 1297.2 936 l 1,2,-1
 858 1317 l 1,3,-1
 419.7 936 l 1,4,-1
 281.1 936 l 1,5,-1
 769.8 1493 l 1,6,-1
 946.2 1493 l 1,0,-1
EndSplineSet
EndChar
StartChar: underscore
Encoding: 95 95 95
Width: 972
Flags: W
Fore
972.8 -403 m 1,0,-1
 972.8 -483 l 1,1,-1
 51.2002 -483 l 1,2,-1
 51.2002 -403 l 1,3,-1
 972.8 -403 l 1,0,-1
EndSplineSet
EndChar
StartChar: grave
Encoding: 96 96 96
Width: 977
Flags: W
Fore
563.45 1636 m 1,0,-1
 730.85 1260 l 1,1,-1
 625.55 1260 l 1,2,-1
 386.15 1636 l 1,3,-1
 563.45 1636 l 1,0,-1
EndSplineSet
EndChar
StartChar: a
Encoding: 97 97 97
Width: 1155
Flags: W
Fore
867.303 106 m 1,0,-1
 1009.5 106 l 1,1,-1
 990.963 0 l 1,2,-1
 699.363 0 l 1,3,-1
 728.397 166 l 1,4,5
 666.81 66 666.81 66 591.219 18.5 c 0,6,7
 515.277 -29 515.277 -29 415.647 -29 c 0,8,9
 256.887 -29 256.887 -29 183.249 126.5 c 0,10,11
 137.043 224.06 137.043 224.06 137.043 358.81 c 0,12,13
 137.043 438.85 137.043 438.85 153.342 532 c 0,14,15
 197.073 782 197.073 782 324.63 937 c 0,16,17
 452.187 1092 452.187 1092 611.757 1092 c 0,18,19
 711.387 1092 711.387 1092 770.715 1044.5 c 0,20,21
 829.674 997 829.674 997 856.287 897 c 1,22,-1
 890.397 1092 l 1,23,-1
 1039.8 1092 l 1,24,-1
 867.303 106 l 1,0,-1
783.153 479 m 2,25,-1
 801.531 584 l 2,26,27
 816.354 668.77 816.354 668.77 816.354 735.81 c 0,28,29
 816.354 819.82 816.354 819.82 793.071 876 c 0,30,31
 751.212 977 751.212 977 637.812 977 c 0,32,33
 522.792 977 522.792 977 444.474 865 c 0,34,35
 366.156 753 366.156 753 327.492 532 c 0,36,37
 308.358 422.66 308.358 422.66 308.358 339.76 c 0,38,39
 308.358 255.84 308.358 255.84 327.96 199 c 0,40,41
 366.912 86 366.912 86 481.932 86 c 0,42,43
 595.332 86 595.332 86 672.453 186.5 c 0,44,45
 749.565 287 749.565 287 783.153 479 c 2,25,-1
EndSplineSet
EndChar
StartChar: b
Encoding: 98 98 98
Width: 1234
Flags: W
Fore
395.854 1450 m 1,0,-1
 236.555 1450 l 1,1,-1
 255.104 1556 l 1,2,-1
 580.004 1556 l 1,3,-1
 464.714 897 l 1,4,5
 530.81 997 530.81 997 614.267 1044.5 c 128,-1,6
 697.724 1092 697.724 1092 808.424 1092 c 0,7,8
 984.823 1092 984.823 1092 1069.31 937 c 0,9,10
 1124.98 834.87 1124.98 834.87 1124.98 691.5 c 0,11,12
 1124.98 617.28 1124.98 617.28 1110.06 532 c 0,13,14
 1066.33 282 1066.33 282 927.521 126.5 c 0,15,16
 788.714 -29 788.714 -29 612.313 -29 c 0,17,18
 501.613 -29 501.613 -29 434.779 18.5 c 0,19,20
 367.937 66 367.937 66 336.832 166 c 1,21,-1
 307.789 0 l 1,22,-1
 142.189 0 l 1,23,-1
 395.854 1450 l 1,0,-1
391.589 479 m 2,24,25
 377.854 400.5 377.854 400.5 377.854 337.3 c 0,26,27
 377.854 245.91 377.854 245.91 406.564 186.5 c 0,28,29
 455.138 86 455.138 86 581.138 86 c 0,30,31
 708.037 86 708.037 86 793.052 199 c 0,32,33
 878.074 312 878.074 312 916.559 532 c 0,34,35
 934.288 633.34 934.288 633.34 934.288 711.75 c 0,36,37
 934.288 804.36 934.288 804.36 909.565 865 c 0,38,39
 863.908 977 863.908 977 737.009 977 c 0,40,41
 611.009 977 611.009 977 527.191 876 c 128,-1,42
 443.374 775 443.374 775 409.957 584 c 2,43,-1
 391.589 479 l 2,24,25
EndSplineSet
EndChar
StartChar: c
Encoding: 99 99 99
Width: 1092
Flags: W
Fore
970.29 319 m 1,0,1
 905.454 149 905.454 149 789.984 60 c 0,2,3
 674.515 -29 674.515 -29 516.114 -29 c 0,4,5
 307.314 -29 307.314 -29 207.271 124.5 c 0,6,7
 137.988 230.79 137.988 230.79 137.988 385.26 c 0,8,9
 137.988 453.88 137.988 453.88 151.659 532 c 0,10,11
 196.264 787 196.264 787 349.849 939.5 c 0,12,13
 503.425 1092 503.425 1092 712.225 1092 c 0,14,15
 803.124 1092 803.124 1092 889.012 1068.5 c 128,-1,16
 974.898 1045 974.898 1045 1057.4 997 c 1,17,-1
 1009.82 725 l 1,18,-1
 913.519 725 l 1,19,20
 914.059 738.55 914.059 738.55 914.059 751.38 c 0,21,22
 914.059 871.19 914.059 871.19 866.862 929 c 0,23,24
 814.608 993 814.608 993 696.709 993 c 0,25,26
 562.608 993 562.608 993 474.004 877.5 c 0,27,28
 385.39 762 385.39 762 345.159 532 c 0,29,30
 326.736 426.7 326.736 426.7 326.736 345.3 c 0,31,32
 326.736 248.89 326.736 248.89 352.575 186 c 0,33,34
 400.23 70 400.23 70 535.23 70 c 0,35,36
 642.33 70 642.33 70 717.075 132 c 0,37,38
 791.829 194 791.829 194 837.091 319 c 1,39,-1
 970.29 319 l 1,0,1
EndSplineSet
EndChar
StartChar: d
Encoding: 100 100 100
Width: 1243
Flags: W
Fore
1169.62 1556 m 1,0,-1
 897.407 0 l 1,1,-1
 731.807 0 l 1,2,-1
 760.85 166 l 1,3,4
 694.754 66 694.754 66 611.297 18.5 c 0,5,6
 527.831 -29 527.831 -29 417.131 -29 c 0,7,8
 240.731 -29 240.731 -29 155.888 126.5 c 0,9,10
 99.8994 229.11 99.8994 229.11 99.8994 372.87 c 0,11,12
 99.8994 446.97 99.8994 446.97 114.776 532 c 0,13,14
 158.516 782 158.516 782 297.224 937 c 0,15,16
 435.941 1092 435.941 1092 613.241 1092 c 0,17,18
 723.941 1092 723.941 1092 790.784 1044.5 c 128,-1,19
 857.627 997 857.627 997 888.731 897 c 1,20,-1
 985.472 1450 l 1,21,-1
 828.872 1450 l 1,22,-1
 847.421 1556 l 1,23,-1
 1169.62 1556 l 1,0,-1
815.606 479 m 2,24,-1
 833.975 584 l 2,25,26
 847.61 661.93 847.61 661.93 847.61 724.88 c 0,27,28
 847.61 816.21 847.61 816.21 818.909 876 c 0,29,30
 770.426 977 770.426 977 644.426 977 c 0,31,32
 516.626 977 516.626 977 431.783 865 c 0,33,34
 346.94 753 346.94 753 308.276 532 c 0,35,36
 290.636 431.16 290.636 431.16 290.636 352.8 c 0,37,38
 290.636 260.21 290.636 260.21 315.269 199 c 0,39,40
 360.755 86 360.755 86 488.555 86 c 0,41,42
 614.555 86 614.555 86 698.282 186.5 c 0,43,44
 782.018 287 782.018 287 815.606 479 c 2,24,-1
EndSplineSet
EndChar
StartChar: e
Encoding: 101 101 101
Width: 1151
Flags: W
Fore
342.381 512 m 1,0,1
 326.145 422.61 326.145 422.61 325.496 344.86 c 0,2,3
 325.496 243.92 325.496 243.92 357.113 179.5 c 0,4,5
 410.853 70 410.853 70 553.053 70 c 0,6,7
 661.952 70 661.952 70 742.817 133.5 c 0,8,9
 823.674 197 823.674 197 873.443 322 c 1,10,-1
 1006.64 322 l 1,11,12
 936.426 147 936.426 147 814.386 59 c 0,13,14
 692.337 -29 692.337 -29 518.637 -29 c 0,15,16
 308.937 -29 308.937 -29 208.442 124.5 c 0,17,18
 138.756 230.93 138.756 230.93 138.756 385.69 c 0,19,20
 138.756 454.12 138.756 454.12 152.382 532 c 0,21,22
 196.464 784 196.464 784 348.51 938 c 0,23,24
 500.547 1092 500.547 1092 703.946 1092 c 0,25,26
 920.847 1092 920.847 1092 1010.96 943.5 c 0,27,28
 1071.07 844.46 1071.07 844.46 1071.07 685.6 c 0,29,30
 1071.07 606.26 1071.07 606.26 1056.08 512 c 1,31,-1
 342.381 512 l 1,0,1
879.32 618 m 1,32,33
 889.031 684.55 889.031 684.55 889.031 739.39 c 0,34,35
 889.031 837.81 889.031 837.81 857.747 898.5 c 0,36,37
 809.03 993 809.03 993 686.631 993 c 0,38,39
 572.33 993 572.33 993 490.008 898 c 0,40,41
 407.685 803 407.685 803 360.921 618 c 1,42,-1
 879.32 618 l 1,32,33
EndSplineSet
EndChar
StartChar: f
Encoding: 102 102 102
Width: 729
Flags: W
Fore
952.443 1305 m 1,0,-1
 865.146 1305 l 1,1,2
 868.64 1326.44 868.64 1326.44 868.64 1344.94 c 0,0,0
 868.64 1391.15 868.64 1391.15 846.84 1419 c 128,-1,3
 816.312 1458 816.312 1458 745.213 1458 c 0,4,5
 652.513 1458 652.513 1458 604.828 1401.5 c 128,-1,6
 557.145 1345 557.145 1345 531.776 1200 c 2,7,-1
 507.81 1063 l 1,8,-1
 775.109 1063 l 1,9,-1
 756.392 956 l 1,10,-1
 489.092 956 l 1,11,-1
 318.522 -19 l 2,22,23
 287.383 -197 287.383 -197 188.214 -288 c 128,-1,24
 89.0439 -379 89.0439 -379 -72.0557 -379 c 0,25,26
 -132.355 -379 -132.355 -379 -190.557 -367 c 128,-1,27
 -248.757 -355 -248.757 -355 -303.784 -330 c 1,28,-1
 -268.445 -128 l 1,0,-1
 -181.146 -128 l 1,1,2
 -184.64 -149.44 -184.64 -149.44 -184.64 -167.939 c 0,0,0
 -184.64 -214.149 -184.64 -214.149 -162.84 -242 c 128,-1,3
 -132.312 -281 -132.312 -281 -61.2129 -281 c 0,4,5
 31.4883 -281 31.4883 -281 79.1719 -224.5 c 128,-1,6
 126.856 -168 126.856 -168 152.923 -19 c 2,7,-1
 323.491 956 l 1,18,-1
 165.092 956 l 1,19,-1
 183.81 1063 l 1,20,-1
 342.21 1063 l 1,21,-1
 365.478 1196 l 2,22,23
 396.617 1374 396.617 1374 495.787 1465 c 128,-1,24
 594.956 1556 594.956 1556 756.056 1556 c 0,25,26
 816.355 1556 816.355 1556 874.557 1544 c 128,-1,27
 932.758 1532 932.758 1532 987.786 1507 c 1,28,-1
 952.443 1305 l 1,0,-1
EndSplineSet
KernsSLIFO: 8217 151 0 0 8221 151 0 0 8220 38 0 0 46 -73 0 0 45 -73 0 0 44 -73 0 0
EndChar
StartChar: g
Encoding: 103 103 103
Width: 1253
Flags: W
Fore
1152.29 956 m 1,0,-1
 989.061 23 l 2,1,2
 949.002 -206 949.002 -206 813.822 -330.5 c 0,3,4
 678.642 -455 678.642 -455 468.942 -455 c 0,5,6
 374.442 -455 374.442 -455 291.363 -436 c 128,-1,7
 208.284 -417 208.284 -417 135.735 -379 c 1,8,-1
 174.75 -156 l 1,9,-1
 261.15 -156 l 1,10,11
 261.078 -159.86 261.078 -159.86 261.078 -163.63 c 0,12,13
 261.078 -261.78 261.078 -261.78 311.055 -308 c 0,14,15
 362.958 -356 362.958 -356 475.458 -356 c 0,16,17
 621.258 -356 621.258 -356 705.219 -264.5 c 0,18,19
 789.171 -173 789.171 -173 823.461 23 c 2,20,-1
 848.481 166 l 1,21,22
 782.385 66 782.385 66 698.928 18.5 c 0,23,24
 615.462 -29 615.462 -29 504.762 -29 c 0,25,26
 328.362 -29 328.362 -29 243.519 126.5 c 0,27,28
 187.53 229.11 187.53 229.11 187.53 372.87 c 0,29,30
 187.53 446.97 187.53 446.97 202.407 532 c 0,31,32
 246.147 782 246.147 782 384.855 937 c 0,33,34
 523.572 1092 523.572 1092 700.872 1092 c 0,35,36
 811.572 1092 811.572 1092 878.415 1044.5 c 128,-1,37
 945.258 997 945.258 997 976.362 897 c 1,38,-1
 1005.41 1063 l 1,39,-1
 1329.41 1063 l 1,40,-1
 1310.68 956 l 1,41,-1
 1152.29 956 l 1,0,-1
921.606 584 m 2,42,43
 935.241 661.93 935.241 661.93 935.241 724.87 c 0,44,45
 935.241 816.21 935.241 816.21 906.54 876 c 0,46,47
 858.057 977 858.057 977 732.057 977 c 0,48,49
 604.257 977 604.257 977 519.414 865 c 0,50,51
 434.571 753 434.571 753 395.907 532 c 0,52,53
 378.267 431.16 378.267 431.16 378.267 352.8 c 0,54,55
 378.267 260.21 378.267 260.21 402.9 199 c 0,56,57
 448.386 86 448.386 86 576.186 86 c 0,58,59
 702.186 86 702.186 86 785.913 186.5 c 0,60,61
 869.649 287 869.649 287 903.237 479 c 2,62,-1
 921.606 584 l 2,42,43
EndSplineSet
EndChar
StartChar: h
Encoding: 104 104 104
Width: 1240
Flags: W
Fore
150.4 0 m 1,0,-1
 404.065 1450 l 1,1,-1
 245.665 1450 l 1,2,-1
 264.215 1556 l 1,3,-1
 588.215 1556 l 1,4,-1
 468.901 874 l 1,5,6
 533.692 982 533.692 982 616.663 1037 c 0,7,8
 699.644 1092 699.644 1092 796.844 1092 c 0,9,10
 955.243 1092 955.243 1092 1012.27 991 c 0,11,12
 1046.7 930.03 1046.7 930.03 1046.7 827.87 c 0,13,14
 1046.7 760.81 1046.7 760.81 1031.86 676 c 2,15,-1
 932.149 106 l 1,16,-1
 1079.75 106 l 1,17,-1
 1061.2 0 l 1,18,-1
 747.101 0 l 1,19,-1
 855.218 618 l 2,20,21
 873.299 721.36 873.299 721.36 873.299 790.03 c 0,22,23
 873.299 850.9 873.299 850.9 859.088 884.5 c 0,24,25
 828.848 956 828.848 956 719.048 956 c 0,26,27
 603.848 956 603.848 956 527.275 863 c 0,28,29
 450.713 770 450.713 770 419.572 592 c 2,30,-1
 316.001 0 l 1,31,-1
 150.4 0 l 1,0,-1
EndSplineSet
EndChar
StartChar: i
Encoding: 105 105 105
Width: 613
Flags: W
Fore
323.782 1393 m 0,0,1
 331.828 1439 331.828 1439 367.928 1473 c 0,2,3
 404.026 1507 404.026 1507 446.326 1507 c 0,4,5
 487.727 1507 487.727 1507 511.928 1473 c 0,6,7
 530.09 1447.48 530.09 1447.48 530.09 1415.21 c 0,8,9
 530.09 1404.48 530.09 1404.48 528.082 1393 c 0,10,11
 519.856 1346 519.856 1346 484.388 1313 c 0,12,13
 448.909 1280 448.909 1280 406.609 1280 c 128,-1,14
 364.31 1280 364.31 1280 339.938 1313 c 0,15,16
 321.703 1337.68 321.703 1337.68 321.703 1370.18 c 0,17,18
 321.703 1381.14 321.703 1381.14 323.782 1393 c 0,0,1
310.13 106 m 1,19,-1
 466.729 106 l 1,20,-1
 448.181 0 l 1,21,-1
 125.98 0 l 1,22,-1
 293.228 956 l 1,23,-1
 134.827 956 l 1,24,-1
 153.548 1063 l 1,25,-1
 477.548 1063 l 1,26,-1
 310.13 106 l 1,19,-1
EndSplineSet
EndChar
StartChar: j
Encoding: 106 106 106
Width: 582
Flags: W
Fore
347.572 1393 m 0,0,1
 355.618 1439 355.618 1439 391.717 1473 c 0,2,3
 427.816 1507 427.816 1507 470.116 1507 c 0,4,5
 511.516 1507 511.516 1507 535.717 1473 c 0,6,7
 553.879 1447.48 553.879 1447.48 553.879 1415.21 c 0,8,9
 553.879 1404.48 553.879 1404.48 551.872 1393 c 0,10,11
 543.646 1346 543.646 1346 508.627 1313 c 0,12,13
 473.599 1280 473.599 1280 430.399 1280 c 0,14,15
 388.099 1280 388.099 1280 363.727 1313 c 0,16,17
 345.493 1337.68 345.493 1337.68 345.493 1370.18 c 0,18,19
 345.493 1381.15 345.493 1381.15 347.572 1393 c 0,0,1
311.617 956 m 1,20,-1
 155.017 956 l 1,21,-1
 173.737 1063 l 1,22,-1
 495.937 1063 l 1,23,-1
 291.781 -104 l 2,24,25
 263.089 -268 263.089 -268 158.986 -361.5 c 0,26,27
 54.874 -455 54.874 -455 -99.0264 -455 c 0,28,29
 -163.826 -455 -163.826 -455 -219.887 -438.5 c 0,30,31
 -275.948 -422 -275.948 -422 -325.979 -389 c 1,32,-1
 -287.666 -170 l 1,33,-1
 -202.166 -170 l 1,34,35
 -204.857 -194.65 -204.857 -194.65 -204.857 -215.93 c 0,36,37
 -204.857 -277.55 -204.857 -277.55 -182.285 -311 c 0,38,39
 -151.901 -356 -151.901 -356 -78.1006 -356 c 0,40,41
 3.79883 -356 3.79883 -356 53.7041 -294.5 c 0,42,43
 103.618 -233 103.618 -233 126.181 -104 c 2,44,-1
 311.617 956 l 1,20,-1
EndSplineSet
EndChar
StartChar: k
Encoding: 107 107 107
Width: 1175
Flags: W
Fore
668.714 664 m 1,0,-1
 934.699 106 l 1,1,-1
 1072.4 106 l 1,2,-1
 1053.85 0 l 1,3,-1
 788.351 0 l 1,4,-1
 527.846 543 l 1,5,-1
 373.729 408 l 1,6,-1
 302.351 0 l 1,7,-1
 136.751 0 l 1,8,-1
 390.415 1450 l 1,9,-1
 231.115 1450 l 1,10,-1
 249.664 1556 l 1,11,-1
 574.564 1556 l 1,12,-1
 397.346 543 l 1,13,-1
 872.798 956 l 1,14,-1
 735.098 956 l 1,15,-1
 753.817 1063 l 1,16,-1
 1022.92 1063 l 1,17,-1
 1004.2 956 l 1,18,-1
 668.714 664 l 1,0,-1
EndSplineSet
KernsSLIFO: 45 -36 0 0
EndChar
StartChar: l
Encoding: 108 108 108
Width: 613
Flags: W
Fore
293.242 106 m 1,0,-1
 449.842 106 l 1,1,-1
 431.293 0 l 1,2,-1
 109.093 0 l 1,3,-1
 362.758 1450 l 1,4,-1
 203.458 1450 l 1,5,-1
 222.007 1556 l 1,6,-1
 546.907 1556 l 1,7,-1
 293.242 106 l 1,0,-1
EndSplineSet
EndChar
StartChar: m
Encoding: 109 109 109
Width: 1836
Flags: W
Fore
1106.35 856 m 1,0,1
 1174.52 973 1174.52 973 1259.18 1032.5 c 0,2,3
 1343.83 1092 1343.83 1092 1442.83 1092 c 0,4,5
 1593.13 1092 1593.13 1092 1648.83 988.5 c 0,6,7
 1682.45 926.02 1682.45 926.02 1682.45 825.09 c 0,8,9
 1682.45 758.83 1682.45 758.83 1667.96 676 c 2,10,-1
 1568.24 106 l 1,11,-1
 1717.64 106 l 1,12,-1
 1699.1 0 l 1,13,-1
 1384.1 0 l 1,14,-1
 1498.69 655 l 2,15,16
 1512.32 732.93 1512.32 732.93 1512.32 789.37 c 0,17,18
 1512.32 850.99 1512.32 850.99 1496.07 887 c 0,19,20
 1464.95 956 1464.95 956 1365.05 956 c 0,21,22
 1254.35 956 1254.35 956 1180.03 863 c 128,-1,23
 1105.7 770 1105.7 770 1074.56 592 c 2,24,-1
 971 0 l 1,25,-1
 805.4 0 l 1,26,-1
 921.212 662 l 2,27,28
 934.28 736.7 934.28 736.7 934.28 791.2 c 0,29,30
 934.28 852.71 934.28 852.71 917.639 888.5 c 0,31,32
 886.247 956 886.247 956 786.347 956 c 0,33,34
 675.647 956 675.647 956 601.325 863 c 0,35,36
 527.003 770 527.003 770 495.863 592 c 2,37,-1
 392.3 0 l 1,38,-1
 226.7 0 l 1,39,-1
 394.289 958 l 1,40,-1
 235.898 958 l 1,41,-1
 254.258 1063 l 1,42,-1
 578.258 1063 l 1,43,-1
 545.201 874 l 1,44,45
 609.641 980 609.641 980 690.542 1036 c 0,46,47
 771.434 1092 771.434 1092 861.434 1092 c 0,48,49
 973.034 1092 973.034 1092 1036.98 1030.5 c 0,50,51
 1100.92 969 1100.92 969 1106.35 856 c 1,0,1
EndSplineSet
EndChar
StartChar: n
Encoding: 110 110 110
Width: 1244
Flags: W
Fore
195.5 0 m 1,0,-1
 362.747 956 l 1,1,-1
 204.347 956 l 1,2,-1
 223.058 1063 l 1,3,-1
 547.058 1063 l 1,4,-1
 514.001 874 l 1,5,6
 578.792 982 578.792 982 661.763 1037 c 128,-1,7
 744.734 1092 744.734 1092 841.934 1092 c 0,8,9
 1000.33 1092 1000.33 1092 1057.37 991 c 0,10,11
 1091.8 930.027 1091.8 930.027 1091.8 827.871 c 0,12,13
 1091.8 760.809 1091.8 760.809 1076.96 676 c 2,14,-1
 977.24 106 l 1,15,-1
 1124.84 106 l 1,16,-1
 1106.3 0 l 1,17,-1
 792.2 0 l 1,18,-1
 900.317 618 l 2,19,20
 918.319 720.917 918.319 720.917 918.319 789.712 c 0,21,22
 918.319 851.264 918.319 851.264 903.908 885.5 c 0,23,24
 873.389 958 873.389 958 764.489 958 c 0,25,26
 649.289 958 649.289 958 572.636 864.5 c 0,27,28
 495.983 771 495.983 771 464.663 592 c 2,29,-1
 361.1 0 l 1,30,-1
 195.5 0 l 1,0,-1
EndSplineSet
EndChar
StartChar: o
Encoding: 111 111 111
Width: 1171
Flags: W
Fore
535.272 70 m 0,0,1
 668.473 70 668.473 70 756.897 187 c 0,2,3
 845.313 304 845.313 304 885.201 532 c 0,4,5
 903.394 635.982 903.394 635.982 903.394 716.773 c 0,6,7
 903.394 813.131 903.394 813.131 877.516 876.5 c 0,8,9
 829.95 993 829.95 993 696.751 993 c 128,-1,10
 563.551 993 563.551 993 475.216 876.5 c 0,11,12
 386.89 760 386.89 760 347.002 532 c 0,13,14
 328.885 428.444 328.885 428.444 328.885 347.787 c 0,15,16
 328.885 250.86 328.885 250.86 355.048 187 c 0,17,18
 402.973 70 402.973 70 535.272 70 c 0,0,1
517.957 -29 m 0,19,20
 309.156 -29 309.156 -29 209.112 124.5 c 0,21,22
 139.833 230.788 139.833 230.788 139.833 385.263 c 0,23,24
 139.833 453.878 139.833 453.878 153.502 532 c 0,25,26
 197.935 786 197.935 786 351.15 939 c 0,27,28
 504.366 1092 504.366 1092 714.066 1092 c 128,-1,29
 923.767 1092 923.767 1092 1023.45 939 c 0,30,31
 1092.4 833.172 1092.4 833.172 1092.4 679.021 c 0,32,33
 1092.4 610.311 1092.4 610.311 1078.7 532 c 0,34,35
 1034.26 278 1034.26 278 880.963 124.5 c 0,36,37
 727.656 -29 727.656 -29 517.957 -29 c 0,19,20
EndSplineSet
KernsSLIFO: 46 -36 0 0
EndChar
StartChar: p
Encoding: 112 112 112
Width: 1238
Flags: W
Fore
489.497 584 m 2,0,-1
 471.129 479 l 2,1,2
 457.396 400.5 457.396 400.5 457.396 337.296 c 0,3,4
 457.396 245.91 457.396 245.91 486.104 186.5 c 0,5,6
 534.678 86 534.678 86 660.678 86 c 0,7,8
 787.577 86 787.577 86 872.592 199 c 0,9,10
 957.614 312 957.614 312 996.099 532 c 0,11,12
 1013.83 633.336 1013.83 633.336 1013.83 711.754 c 0,13,14
 1013.83 804.356 1013.83 804.356 989.105 865 c 0,15,16
 943.448 977 943.448 977 816.549 977 c 0,17,18
 690.549 977 690.549 977 606.731 876 c 0,19,20
 522.914 775 522.914 775 489.497 584 c 2,0,-1
388.977 956 m 1,21,-1
 229.677 956 l 1,22,-1
 248.396 1063 l 1,23,-1
 573.297 1063 l 1,24,-1
 544.254 897 l 1,25,26
 610.35 997 610.35 997 693.807 1044.5 c 0,27,28
 777.264 1092 777.264 1092 887.964 1092 c 0,29,30
 1064.36 1092 1064.36 1092 1148.86 937 c 0,31,32
 1204.52 834.874 1204.52 834.874 1204.52 691.507 c 0,33,34
 1204.52 617.281 1204.52 617.281 1189.6 532 c 0,35,36
 1145.87 282 1145.87 282 1007.06 126.5 c 128,-1,37
 868.254 -29 868.254 -29 691.854 -29 c 0,38,39
 581.153 -29 581.153 -29 514.319 18.5 c 0,40,41
 447.477 66 447.477 66 416.372 166 c 1,42,-1
 312.81 -426 l 1,43,-1
 147.21 -426 l 1,44,-1
 388.977 956 l 1,21,-1
EndSplineSet
EndChar
StartChar: q
Encoding: 113 113 113
Width: 1255
Flags: W
Fore
1152.34 956 m 1,0,-1
 910.575 -426 l 1,1,-1
 744.976 -426 l 1,2,-1
 848.539 166 l 1,3,4
 782.442 66 782.442 66 698.985 18.5 c 0,5,6
 615.52 -29 615.52 -29 504.819 -29 c 0,7,8
 328.42 -29 328.42 -29 243.577 126.5 c 0,9,10
 187.591 229.111 187.591 229.111 187.591 372.871 c 0,11,12
 187.591 446.969 187.591 446.969 202.465 532 c 0,13,14
 246.205 782 246.205 782 384.922 937 c 0,15,16
 523.63 1092 523.63 1092 700.93 1092 c 0,17,18
 811.63 1092 811.63 1092 878.473 1044.5 c 0,19,20
 945.315 997 945.315 997 976.42 897 c 1,21,-1
 1005.46 1063 l 1,22,-1
 1329.46 1063 l 1,23,-1
 1310.74 956 l 1,24,-1
 1152.34 956 l 1,0,-1
921.664 584 m 2,25,26
 935.299 661.932 935.299 661.932 935.299 724.881 c 0,27,28
 935.299 816.21 935.299 816.21 906.598 876 c 0,29,30
 858.114 977 858.114 977 732.114 977 c 0,31,32
 604.314 977 604.314 977 519.472 865 c 128,-1,33
 434.629 753 434.629 753 395.965 532 c 0,34,35
 378.325 431.162 378.325 431.162 378.325 352.803 c 0,36,37
 378.325 260.206 378.325 260.206 402.958 199 c 0,38,39
 448.443 86 448.443 86 576.243 86 c 0,40,41
 702.243 86 702.243 86 785.971 186.5 c 0,42,43
 869.707 287 869.707 287 903.295 479 c 2,44,-1
 921.664 584 l 2,25,26
EndSplineSet
EndChar
StartChar: r
Encoding: 114 114 114
Width: 933
Flags: W
Fore
1033.08 1065 m 1,0,-1
 986.55 799 l 1,1,-1
 891.149 799 l 1,2,3
 893.458 818.58 893.458 818.58 893.458 835.702 c 0,4,5
 893.458 887.666 893.458 887.666 872.195 917 c 0,6,7
 843.918 956 843.918 956 776.418 956 c 0,8,9
 654.018 956 654.018 956 572.315 862 c 0,10,11
 490.622 768 490.622 768 459.834 592 c 2,12,-1
 356.271 0 l 1,13,-1
 190.671 0 l 1,14,-1
 358.26 958 l 1,15,-1
 199.859 958 l 1,16,-1
 218.229 1063 l 1,17,-1
 542.229 1063 l 1,18,-1
 509.172 874 l 1,19,20
 577.185 985 577.185 985 663.045 1038.5 c 0,21,22
 748.904 1092 748.904 1092 858.704 1092 c 0,23,24
 899.204 1092 899.204 1092 942.53 1085 c 128,-1,25
 985.856 1078 985.856 1078 1033.08 1065 c 1,0,-1
EndSplineSet
KernsSLIFO: 46 -225 0 0 44 -225 0 0
EndChar
StartChar: s
Encoding: 115 115 115
Width: 996
Flags: W
Fore
71.0635 59 m 1,0,-1
 114.443 307 l 1,1,-1
 209.844 307 l 1,2,3
 205.632 277.87 205.632 277.87 205.632 252.34 c 0,4,5
 205.632 173.56 205.632 173.56 245.754 129 c 0,6,7
 298.881 70 298.881 70 423.08 70 c 0,8,9
 534.681 70 534.681 70 601.316 116.5 c 0,10,11
 667.952 163 667.952 163 683.522 252 c 0,12,13
 686.682 270.06 686.682 270.06 686.682 286.32 c 0,14,15
 686.682 333.09 686.682 333.09 660.546 365 c 0,16,17
 625.311 408 625.311 408 496.188 457 c 1,18,-1
 384.362 502 l 1,19,20
 268.758 546 268.758 546 224.954 612 c 0,21,22
 193.832 658.9 193.832 658.9 193.832 723.97 c 0,23,24
 193.832 750.48 193.832 750.48 198.989 780 c 0,25,26
 224.531 926 224.531 926 335.357 1009 c 0,27,28
 446.175 1092 446.175 1092 616.274 1092 c 0,29,30
 691.874 1092 691.874 1092 771.723 1070 c 0,31,32
 851.579 1048 851.579 1048 933.326 1006 c 1,33,-1
 892.745 774 l 1,34,-1
 797.346 774 l 1,35,36
 800.522 796.68 800.522 796.68 800.522 817.18 c 0,37,38
 800.522 889.77 800.522 889.77 760.706 935 c 0,39,40
 709.658 993 709.658 993 604.358 993 c 0,41,42
 499.958 993 499.958 993 439.235 952 c 128,-1,43
 378.513 911 378.513 911 364.166 829 c 0,44,45
 361.125 811.6 361.125 811.6 361.125 795.99 c 0,46,47
 361.125 751.48 361.125 751.48 385.856 721.5 c 0,48,49
 419.273 681 419.273 681 533.43 639 c 2,50,-1
 656.954 594 l 2,51,52
 784.629 547 784.629 547 832.148 476.5 c 0,53,54
 865.881 426.45 865.881 426.45 865.881 356 c 0,55,56
 865.881 327.2 865.881 327.2 860.246 295 c 0,57,58
 833.831 144 833.831 144 714.743 57.5 c 0,59,60
 595.664 -29 595.664 -29 412.965 -29 c 0,61,62
 320.265 -29 320.265 -29 235.917 -7 c 0,63,64
 151.56 15 151.56 15 71.0635 59 c 1,0,-1
EndSplineSet
EndChar
StartChar: t
Encoding: 116 116 116
Width: 787
Flags: W
Fore
293.75 956 m 1,0,-1
 147.95 956 l 1,1,-1
 166.67 1063 l 1,2,-1
 312.47 1063 l 1,3,-1
 370.196 1393 l 1,4,-1
 536.696 1393 l 1,5,-1
 478.97 1063 l 1,6,-1
 790.37 1063 l 1,7,-1
 771.65 956 l 1,8,-1
 460.25 956 l 1,9,-1
 342.161 281 l 2,10,11
 328.346 202.02 328.346 202.02 328.346 156.24 c 0,12,13
 328.346 123.77 328.346 123.77 335.303 108 c 0,14,15
 352.052 70 352.052 70 415.052 70 c 0,16,17
 479.852 70 479.852 70 516.986 112.5 c 0,18,19
 554.12 155 554.12 155 572.543 250 c 1,20,-1
 697.643 250 l 1,21,22
 665.072 105 665.072 105 589.454 38 c 0,23,24
 513.836 -29 513.836 -29 383.336 -29 c 0,25,26
 240.236 -29 240.236 -29 193.166 41.5 c 0,27,28
 164.258 84.7998 164.258 84.7998 164.258 165.26 c 0,29,30
 164.258 215.8 164.258 215.8 175.661 281 c 2,31,-1
 293.75 956 l 1,0,-1
EndSplineSet
EndChar
StartChar: u
Encoding: 117 117 117
Width: 1252
Flags: W
Fore
957.79 1063 m 1,0,-1
 1123.39 1063 l 1,1,-1
 955.972 106 l 1,2,-1
 1112.57 106 l 1,3,-1
 1094.03 0 l 1,4,-1
 771.832 0 l 1,5,-1
 804.718 188 l 1,6,7
 740.269 82 740.269 82 657.667 26.5 c 0,8,9
 575.056 -29 575.056 -29 478.756 -29 c 0,10,11
 319.456 -29 319.456 -29 261.883 71.5 c 0,12,13
 227.071 132.28 227.071 132.28 227.071 234.95 c 0,14,15
 227.071 302.04 227.071 302.04 241.93 387 c 2,16,-1
 341.47 956 l 1,17,-1
 192.07 956 l 1,18,-1
 210.79 1063 l 1,19,-1
 526.69 1063 l 1,20,-1
 418.402 444 l 2,21,22
 400.429 341.28 400.429 341.28 400.429 272.76 c 0,23,24
 400.429 211.88 400.429 211.88 414.622 178 c 0,25,26
 444.772 106 444.772 106 554.572 106 c 0,27,28
 669.772 106 669.772 106 746.515 200 c 128,-1,29
 823.258 294 823.258 294 854.578 473 c 2,30,-1
 957.79 1063 l 1,0,-1
EndSplineSet
EndChar
StartChar: v
Encoding: 118 118 118
Width: 1107
Flags: W
Fore
423.012 0 m 1,0,-1
 238.35 956 l 1,1,-1
 129.45 956 l 1,2,-1
 148.17 1063 l 1,3,-1
 395.67 1063 l 1,4,-1
 557.769 225 l 1,5,-1
 954.759 956 l 1,6,-1
 973.47 1063 l 1,7,-1
 1082.37 1063 l 1,8,-1
 1063.65 956 l 1,9,-1
 544.512 0 l 1,10,-1
 423.012 0 l 1,0,-1
EndSplineSet
KernsSLIFO: 46 -243 0 0 44 -243 0 0
EndChar
StartChar: w
Encoding: 119 119 119
Width: 1674
Flags: W
Fore
1069.02 1063 m 1,0,-1
 1168.62 233 l 1,1,-1
 1511.1 956 l 1,2,-1
 1372.5 956 l 1,3,-1
 1391.22 1063 l 1,4,-1
 1631.52 1063 l 1,5,-1
 1612.8 956 l 1,6,-1
 1161.16 0 l 1,7,-1
 1023.46 0 l 1,8,-1
 926.739 795 l 1,9,-1
 550.962 0 l 1,10,-1
 418.662 0 l 1,11,-1
 302.4 956 l 1,12,-1
 195.3 956 l 1,13,-1
 214.021 1063 l 1,14,-1
 460.62 1063 l 1,15,-1
 561.123 233 l 1,16,-1
 952.92 1063 l 1,17,-1
 1069.02 1063 l 1,0,-1
EndSplineSet
KernsSLIFO: 46 -243 0 0 44 -243 0 0
EndChar
StartChar: x
Encoding: 120 120 120
Width: 1095
Flags: W
Fore
174.171 0 m 1,0,-1
 61.6709 0 l 1,1,-1
 483.888 510 l 1,2,-1
 271.209 956 l 1,3,-1
 153.309 956 l 1,4,-1
 172.029 1063 l 1,5,-1
 415.029 1063 l 1,6,-1
 613.506 649 l 1,7,-1
 956.829 1063 l 1,8,-1
 1069.33 1063 l 1,9,-1
 655.158 563 l 1,10,-1
 874.011 106 l 1,11,-1
 999.111 106 l 1,12,-1
 980.571 0 l 1,13,-1
 729.471 0 l 1,14,-1
 526.44 424 l 1,15,-1
 174.171 0 l 1,0,-1
EndSplineSet
KernsSLIFO: 45 -36 0 0
EndChar
StartChar: y
Encoding: 121 121 121
Width: 1102
Flags: W
Fore
1049.68 1063 m 1,0,-1
 1158.58 1063 l 1,1,-1
 452.735 -240 l 2,2,3
 385.253 -364.57 385.253 -364.57 323.18 -409.5 c 0,4,5
 260.324 -455 260.324 -455 160.424 -455 c 0,6,7
 118.124 -455 118.124 -455 74.9688 -447 c 128,-1,8
 31.8232 -439 31.8232 -439 -10.5576 -424 c 1,9,-1
 24.9561 -221 l 1,10,-1
 109.556 -221 l 1,11,12
 107.99 -237.37 107.99 -237.37 107.99 -251.51 c 0,13,14
 107.99 -296.1 107.99 -296.1 123.551 -318.5 c 0,15,16
 144.035 -348 144.035 -348 198.035 -348 c 0,17,18
 247.535 -348 247.535 -348 283.022 -317.5 c 128,-1,19
 318.509 -287 318.509 -287 367.901 -195 c 1,20,-1
 461.87 -18 l 1,21,-1
 274.967 956 l 1,22,-1
 166.067 956 l 1,23,-1
 184.778 1063 l 1,24,-1
 432.278 1063 l 1,25,-1
 594.377 225 l 1,26,-1
 1049.68 1063 l 1,0,-1
EndSplineSet
KernsSLIFO: 46 -272 0 0 44 -272 0 0
EndChar
StartChar: z
Encoding: 122 122 122
Width: 1024
Flags: W
Fore
34.1709 0 m 1,0,-1
 49.21 86 l 1,1,-1
 800.818 956 l 1,2,-1
 326.518 956 l 1,3,-1
 294.325 772 l 1,4,-1
 198.925 772 l 1,5,-1
 249.829 1063 l 1,6,-1
 1032.83 1063 l 1,7,-1
 1017.79 977 l 1,8,-1
 266.011 106 l 1,9,-1
 882.511 106 l 1,10,-1
 863.971 0 l 1,11,-1
 34.1709 0 l 1,0,-1
EndSplineSet
EndChar
StartChar: braceleft
Encoding: 123 123 123
Width: 1246
Flags: W
Fore
869.178 -229 m 1,0,-1
 850.809 -334 l 1,1,-1
 795.009 -334 l 2,2,3
 570.909 -334 570.909 -334 507.804 -260 c 128,-1,4
 444.7 -186 444.7 -186 483.362 35 c 2,5,-1
 528.498 293 l 2,6,7
 554.738 443 554.738 443 516.285 501 c 128,-1,8
 477.833 559 477.833 559 350.033 559 c 2,9,-1
 295.133 559 l 1,10,-1
 313.501 664 l 1,11,-1
 368.401 664 l 2,12,13
 496.201 664 496.201 664 554.947 722 c 128,-1,14
 613.695 780 613.695 780 639.936 930 c 2,15,-1
 685.07 1188 l 2,16,17
 723.732 1409 723.732 1409 812.641 1482.5 c 128,-1,18
 901.549 1556 901.549 1556 1125.65 1556 c 2,19,-1
 1181.45 1556 l 1,20,-1
 1163.25 1452 l 1,21,-1
 1102.05 1452 l 2,22,23
 975.152 1452 975.152 1452 928.758 1408 c 128,-1,24
 882.36 1364 882.36 1364 857.694 1223 c 2,25,-1
 807.485 936 l 2,26,27
 779.845 778 779.845 778 722.948 710 c 128,-1,28
 666.052 642 666.052 642 543.804 612 c 1,29,30
 656.655 578 656.655 578 689.035 511 c 128,-1,31
 721.413 444 721.413 444 693.948 287 c 2,32,-1
 643.739 0 l 2,33,34
 619.072 -141 619.072 -141 650.075 -185 c 128,-1,35
 681.078 -229 681.078 -229 807.979 -229 c 2,36,-1
 869.178 -229 l 1,0,-1
EndSplineSet
EndChar
StartChar: bar
Encoding: 124 124 124
Width: 655
Flags: W
Fore
417.9 1565 m 1,0,-1
 417.9 -483 l 1,1,-1
 272.1 -483 l 1,2,-1
 272.1 1565 l 1,3,-1
 417.9 1565 l 1,0,-1
EndSplineSet
EndChar
StartChar: braceright
Encoding: 125 125 125
Width: 1229
Flags: W
Fore
139.929 -229 m 1,0,-1
 202.93 -229 l 2,1,2
 328.93 -229 328.93 -229 374.789 -185.5 c 128,-1,3
 420.649 -142 420.649 -142 445.49 0 c 2,4,-1
 495.699 287 l 2,5,6
 523.165 444 523.165 444 578.986 511 c 128,-1,7
 634.807 578 634.807 578 758.655 612 c 1,8,9
 646.903 642 646.903 642 614.249 710 c 128,-1,10
 581.597 778 581.597 778 609.237 936 c 2,11,-1
 659.445 1223 l 2,12,13
 684.286 1365 684.286 1365 653.647 1408.5 c 128,-1,14
 623.007 1452 623.007 1452 497.007 1452 c 2,15,-1
 434.007 1452 l 1,16,-1
 452.2 1556 l 1,17,-1
 508.9 1556 l 2,18,19
 733.001 1556 733.001 1556 795.292 1482.5 c 128,-1,20
 857.584 1409 857.584 1409 818.922 1188 c 2,21,-1
 773.787 930 l 2,22,23
 747.547 780 747.547 780 785.999 722 c 128,-1,24
 824.452 664 824.452 664 952.252 664 c 2,25,-1
 1008.05 664 l 1,26,-1
 989.682 559 l 1,27,-1
 933.884 559 l 2,28,29
 806.084 559 806.084 559 747.337 501 c 128,-1,30
 688.59 443 688.59 443 662.35 293 c 2,31,-1
 617.214 35 l 2,32,33
 578.552 -186 578.552 -186 490.455 -260 c 128,-1,34
 402.36 -334 402.36 -334 178.261 -334 c 2,35,-1
 121.56 -334 l 1,36,-1
 139.929 -229 l 1,0,-1
EndSplineSet
EndChar
StartChar: asciitilde
Encoding: 126 126 126
Width: 1630
Flags: W
Fore
1434.9 807 m 1,0,-1
 1434.9 659 l 1,1,2
 1344.9 571 1344.9 571 1263.9 529 c 128,-1,3
 1182.9 487 1182.9 487 1099.2 487 c 0,4,5
 1012.8 487 1012.8 487 856.2 553 c 2,6,-1
 847.2 557 l 2,7,8
 837.3 561 837.3 561 817.5 570 c 0,9,10
 685.2 627 685.2 627 599.7 627 c 0,11,12
 516.9 627 516.9 627 439.05 590.5 c 128,-1,13
 361.2 554 361.2 554 281.1 477 c 1,14,-1
 281.1 629 l 1,15,16
 371.1 716 371.1 716 451.65 756.5 c 128,-1,17
 532.2 797 532.2 797 616.8 797 c 0,18,19
 703.2 797 703.2 797 859.8 731 c 2,20,-1
 868.8 727 l 2,21,22
 878.7 723 878.7 723 896.7 715 c 0,23,24
 1027.2 657 1027.2 657 1114.5 657 c 0,25,26
 1197.3 657 1197.3 657 1276.5 694 c 128,-1,27
 1355.7 731 1355.7 731 1434.9 807 c 1,0,-1
EndSplineSet
EndChar
StartChar: exclamdown
Encoding: 161 161 161
Width: 780
Flags: W
Fore
401.207 1389 m 0,0,1
 411.004 1445 411.004 1445 451.938 1483.5 c 128,-1,2
 492.875 1522 492.875 1522 544.175 1522 c 0,3,4
 593.675 1522 593.675 1522 621.952 1483 c 128,-1,5
 650.229 1444 650.229 1444 640.607 1389 c 0,6,7
 630.811 1333 630.811 1333 588.887 1294 c 128,-1,8
 546.964 1255 546.964 1255 497.464 1255 c 0,9,10
 446.164 1255 446.164 1255 418.787 1294 c 128,-1,11
 391.41 1333 391.41 1333 401.207 1389 c 0,0,1
161.812 0 m 1,12,-1
 365.74 821 l 1,13,-1
 409.824 1073 l 1,14,-1
 520.524 1073 l 1,15,-1
 476.439 821 l 1,16,-1
 394.012 0 l 1,17,-1
 161.812 0 l 1,12,-1
EndSplineSet
EndChar
StartChar: cent
Encoding: 162 162 162
Width: 1237
Flags: W
Fore
711.803 991 m 1,0,1
 593.079 976 593.079 976 514.911 861 c 128,-1,2
 436.742 746 436.742 746 399.305 532 c 0,3,4
 361.692 317 361.692 317 399.624 202 c 128,-1,5
 437.555 87 437.555 87 551.031 72 c 1,6,-1
 711.803 991 l 1,0,1
1021.74 319 m 1,7,8
 963.301 165 963.301 165 863.568 78.5 c 128,-1,9
 763.836 -8 763.836 -8 623.712 -27 c 1,10,-1
 576.478 -297 l 1,11,-1
 486.478 -297 l 1,12,-1
 533.712 -27 l 1,13,14
 339.036 -8 339.036 -8 250.527 142 c 128,-1,15
 162.019 292 162.019 292 204.005 532 c 0,16,17
 246.341 774 246.341 774 387.245 923.5 c 128,-1,18
 528.148 1073 528.148 1073 729.122 1090 c 1,19,-1
 775.657 1356 l 1,20,-1
 865.657 1356 l 1,21,-1
 819.122 1090 l 1,22,23
 900.523 1082 900.523 1082 972.096 1059 c 128,-1,24
 1043.67 1036 1043.67 1036 1108.85 997 c 1,25,-1
 1061.27 725 l 1,26,-1
 965.867 725 l 1,27,28
 970.286 848 970.286 848 929.995 913.5 c 128,-1,29
 889.704 979 889.704 979 801.803 991 c 1,30,-1
 641.031 72 l 1,31,32
 724.13 84 724.13 84 787.439 147.5 c 128,-1,33
 850.748 211 850.748 211 888.542 319 c 1,34,-1
 1021.74 319 l 1,7,8
EndSplineSet
EndChar
StartChar: sterling
Encoding: 163 163 163
Width: 1234
Flags: W
Fore
1134.62 1225 m 1,0,-1
 1040.12 1225 l 1,1,2
 1047.73 1320 1047.73 1320 1005.72 1370.5 c 128,-1,3
 963.705 1421 963.705 1421 877.301 1421 c 0,4,5
 763 1421 763 1421 694.993 1343.5 c 128,-1,6
 626.984 1266 626.984 1266 598.295 1102 c 2,7,-1
 546.687 807 l 1,8,-1
 917.486 807 l 1,9,-1
 898.768 700 l 1,10,-1
 527.968 700 l 1,11,-1
 426.676 121 l 1,12,-1
 856.876 121 l 1,13,-1
 896.588 348 l 1,14,-1
 1000.99 348 l 1,15,-1
 940.108 0 l 1,16,-1
 51.8076 0 l 1,17,-1
 70.3516 106 l 1,18,-1
 244.052 106 l 1,19,-1
 347.968 700 l 1,20,-1
 174.268 700 l 1,21,-1
 192.986 807 l 1,22,-1
 366.687 807 l 1,23,-1
 418.295 1102 l 2,24,25
 454.157 1307 454.157 1307 575.838 1413.5 c 128,-1,26
 697.521 1520 697.521 1520 896.42 1520 c 0,27,28
 972.921 1520 972.921 1520 1043.63 1507.5 c 128,-1,29
 1114.35 1495 1114.35 1495 1177.47 1470 c 1,30,-1
 1134.62 1225 l 1,0,-1
EndSplineSet
EndChar
StartChar: currency
Encoding: 164 164 164
Width: 1238
Flags: W
Fore
876.3 985 m 1,0,-1
 1064.4 1192 l 1,1,-1
 1149 1098 l 1,2,-1
 960.9 889 l 1,3,4
 999.6 829 999.6 829 1018.05 768 c 128,-1,5
 1036.5 707 1036.5 707 1036.5 641 c 0,6,7
 1036.5 572 1036.5 572 1018.05 513 c 128,-1,8
 999.6 454 999.6 454 959.1 397 c 1,9,-1
 1145.4 190 l 1,10,-1
 1059 96 l 1,11,-1
 872.7 301 l 1,12,13
 822.3 257 822.3 257 768.75 236 c 128,-1,14
 715.2 215 715.2 215 653.1 215 c 0,15,16
 595.5 215 595.5 215 539.25 235.5 c 128,-1,17
 483 256 483 256 428.1 297 c 1,18,-1
 244.5 92 l 1,19,-1
 159 186 l 1,20,-1
 343.5 393 l 1,21,22
 306.6 455 306.6 455 288.15 516 c 128,-1,23
 269.7 577 269.7 577 269.7 641 c 0,24,25
 269.7 711 269.7 711 288.6 770.5 c 128,-1,26
 307.5 830 307.5 830 347.1 887 c 1,27,-1
 160.8 1094 l 1,28,-1
 246.3 1188 l 1,29,-1
 432.6 981 l 1,30,31
 483 1025 483 1025 537 1046 c 128,-1,32
 591 1067 591 1067 653.1 1067 c 0,33,34
 712.5 1067 712.5 1067 767.4 1047 c 128,-1,35
 822.3 1027 822.3 1027 876.3 985 c 1,0,-1
895.2 643 m 0,36,37
 895.2 755 895.2 755 825.45 832 c 128,-1,38
 755.7 909 755.7 909 653.1 909 c 0,39,40
 552.3 909 552.3 909 482.1 832 c 128,-1,41
 411.9 755 411.9 755 411.9 643 c 0,42,43
 411.9 529 411.9 529 481.65 451 c 128,-1,44
 551.4 373 551.4 373 653.1 373 c 0,45,46
 754.8 373 754.8 373 825 451.5 c 128,-1,47
 895.2 530 895.2 530 895.2 643 c 0,36,37
EndSplineSet
EndChar
StartChar: yen
Encoding: 165 165 165
Width: 1250
Flags: W
Fore
270.804 0 m 1,0,-1
 289.346 106 l 1,1,-1
 461.246 106 l 1,2,-1
 525.45 473 l 1,3,-1
 161.85 473 l 1,4,-1
 180.219 578 l 1,5,-1
 543.819 578 l 1,6,-1
 555.19 643 l 1,7,-1
 506.057 784 l 1,8,-1
 216.257 784 l 1,9,-1
 234.626 889 l 1,10,-1
 471.326 889 l 1,11,-1
 299.974 1386 l 1,12,-1
 174.873 1386 l 1,13,-1
 193.591 1493 l 1,14,-1
 691.29 1493 l 1,15,-1
 672.573 1386 l 1,16,-1
 515.073 1386 l 1,17,-1
 718.106 782 l 1,18,-1
 1128.88 1386 l 1,19,-1
 978.576 1386 l 1,20,-1
 997.287 1493 l 1,21,-1
 1386.09 1493 l 1,22,-1
 1367.38 1386 l 1,23,-1
 1239.58 1386 l 1,24,-1
 897.026 889 l 1,25,-1
 1141.83 889 l 1,26,-1
 1123.46 784 l 1,27,-1
 824.657 784 l 1,28,-1
 739.414 662 l 1,29,-1
 724.719 578 l 1,30,-1
 1087.42 578 l 1,31,-1
 1069.05 473 l 1,32,-1
 706.351 473 l 1,33,-1
 642.146 106 l 1,34,-1
 813.146 106 l 1,35,-1
 794.604 0 l 1,36,-1
 270.804 0 l 1,0,-1
EndSplineSet
EndChar
StartChar: brokenbar
Encoding: 166 166 166
Width: 655
Flags: W
Fore
417.9 408 m 1,0,-1
 417.9 -350 l 1,1,-1
 272.1 -350 l 1,2,-1
 272.1 408 l 1,3,-1
 417.9 408 l 1,0,-1
417.9 1432 m 1,4,-1
 417.9 674 l 1,5,-1
 272.1 674 l 1,6,-1
 272.1 1432 l 1,7,-1
 417.9 1432 l 1,4,-1
EndSplineSet
EndChar
StartChar: section
Encoding: 167 167 167
Width: 971
Flags: W
Fore
438.396 936 m 1,0,1
 369.149 890 369.149 890 337.139 848.5 c 128,-1,2
 305.129 807 305.129 807 295.857 754 c 0,3,4
 272.766 622 272.766 622 563.951 419 c 2,5,-1
 589.603 401 l 1,6,7
 648.45 439 648.45 439 683.398 487 c 128,-1,8
 718.346 535 718.346 535 728.316 592 c 0,9,10
 741.438 667 741.438 667 690.608 734 c 128,-1,11
 639.78 801 639.78 801 438.396 936 c 1,0,1
935.767 1464 m 1,12,-1
 900.428 1262 l 1,13,-1
 817.628 1262 l 1,14,15
 828.424 1334 828.424 1334 788.884 1375.5 c 128,-1,16
 749.344 1417 749.344 1417 670.144 1417 c 0,17,18
 580.144 1417 580.144 1417 519.909 1368.5 c 128,-1,19
 459.675 1320 459.675 1320 445.155 1237 c 0,20,21
 428.185 1140 428.185 1140 625.618 1003 c 0,22,23
 646.394 988 646.394 988 655.969 981 c 0,24,25
 812.4 872 812.4 872 855.53 797 c 128,-1,26
 898.658 722 898.658 722 881.34 623 c 0,27,28
 864.72 528 864.72 528 806.449 465 c 128,-1,29
 748.178 402 748.178 402 637.881 358 c 1,30,31
 699.858 311 699.858 311 721.687 248 c 128,-1,32
 743.516 185 743.516 185 727.596 94 c 0,33,34
 704.678 -37 704.678 -37 599.058 -116 c 128,-1,35
 493.438 -195 493.438 -195 337.737 -195 c 0,36,37
 256.737 -195 256.737 -195 187.099 -181.5 c 128,-1,38
 117.461 -168 117.461 -168 53.2334 -139 c 1,39,-1
 89.7969 70 l 1,40,-1
 172.423 69 l 1,41,42
 160.227 -11 160.227 -11 201.742 -51.5 c 128,-1,43
 243.256 -92 243.256 -92 339.556 -92 c 0,44,45
 433.156 -92 433.156 -92 496.178 -43 c 128,-1,46
 559.201 6 559.201 6 573.896 90 c 0,47,48
 593.665 203 593.665 203 410.682 330 c 0,49,50
 393.881 342 393.881 342 385.03 348 c 0,51,52
 211.974 470 211.974 470 168.394 545 c 128,-1,53
 124.815 620 124.815 620 142.134 719 c 0,54,55
 158.578 813 158.578 813 223.312 879.5 c 128,-1,56
 288.045 946 288.045 946 391.569 977 c 1,57,58
 326.342 1026 326.342 1026 301.812 1089 c 128,-1,59
 277.284 1152 277.284 1152 291.104 1231 c 0,60,61
 313.847 1361 313.847 1361 417.755 1440.5 c 128,-1,62
 521.663 1520 521.663 1520 671.062 1520 c 0,63,64
 741.263 1520 741.263 1520 807.214 1506 c 128,-1,65
 873.164 1492 873.164 1492 935.767 1464 c 1,12,-1
EndSplineSet
EndChar
StartChar: dieresis
Encoding: 168 168 168
Width: 992
Flags: W
Fore
551.178 1569 m 0,0,1
 594.377 1569 594.377 1569 619.577 1534 c 128,-1,2
 643.877 1500 643.877 1500 635.777 1452 c 0,3,4
 626.777 1401 626.777 1401 591.678 1368 c 128,-1,5
 555.678 1335 555.678 1335 509.777 1335 c 0,6,7
 464.777 1335 464.777 1335 441.377 1368 c 128,-1,8
 417.077 1401 417.077 1401 426.077 1452 c 0,9,10
 434.178 1500 434.178 1500 471.978 1534 c 128,-1,11
 508.877 1569 508.877 1569 551.178 1569 c 0,0,1
902.178 1569 m 0,12,13
 944.478 1569 944.478 1569 969.678 1534 c 128,-1,14
 993.978 1500 993.978 1500 985.877 1452 c 0,15,16
 976.877 1401 976.877 1401 941.777 1368 c 128,-1,17
 905.777 1335 905.777 1335 860.777 1335 c 0,18,19
 814.877 1335 814.877 1335 791.478 1368 c 128,-1,20
 767.178 1401 767.178 1401 776.178 1452 c 0,21,22
 784.277 1500 784.277 1500 822.077 1534 c 128,-1,23
 858.978 1569 858.978 1569 902.178 1569 c 0,12,13
EndSplineSet
LCarets: 0 65535 '    ' 1 0 
Ligature: 0 1 'liga' space uni0308
EndChar
StartChar: copyright
Encoding: 169 169 169
Width: 1945
Flags: W
Fore
1340.8 573 m 1,0,1
 1316.5 442 1316.5 442 1235.05 371.5 c 128,-1,2
 1153.6 301 1153.6 301 1025.8 301 c 0,3,4
 857.5 301 857.5 301 757.15 421 c 128,-1,5
 656.8 541 656.8 541 656.8 741 c 0,6,7
 656.8 942 656.8 942 758.05 1063 c 128,-1,8
 859.3 1184 859.3 1184 1025.8 1184 c 0,9,10
 1097.8 1184 1097.8 1184 1167.55 1165.5 c 128,-1,11
 1237.3 1147 1237.3 1147 1315.6 1108 c 1,12,-1
 1315.6 895 l 1,13,-1
 1240 895 l 1,14,15
 1224.7 1004 1224.7 1004 1173.4 1055 c 128,-1,16
 1122.1 1106 1122.1 1106 1027.6 1106 c 0,17,18
 920.5 1106 920.5 1106 866.05 1014.5 c 128,-1,19
 811.6 923 811.6 923 811.6 741 c 0,20,21
 811.6 560 811.6 560 865.6 469.5 c 128,-1,22
 919.6 379 919.6 379 1025.8 379 c 0,23,24
 1113.1 379 1113.1 379 1163.95 426.5 c 128,-1,25
 1214.8 474 1214.8 474 1233.7 573 c 1,26,-1
 1340.8 573 l 1,0,1
1024 1485 m 0,27,28
 1160.8 1485 1160.8 1485 1279.15 1430 c 128,-1,29
 1397.5 1375 1397.5 1375 1495.6 1266 c 0,30,31
 1593.7 1157 1593.7 1157 1642.3 1026 c 128,-1,32
 1690.9 895 1690.9 895 1690.9 741 c 0,33,34
 1690.9 589 1690.9 589 1642.3 458.5 c 128,-1,35
 1593.7 328 1593.7 328 1495.6 219 c 0,36,37
 1397.5 110 1397.5 110 1279.15 55 c 128,-1,38
 1160.8 0 1160.8 0 1024 0 c 0,39,40
 887.2 0 887.2 0 768.85 55 c 128,-1,41
 650.5 110 650.5 110 552.4 219 c 0,42,43
 454.3 328 454.3 328 405.7 458.5 c 128,-1,44
 357.1 589 357.1 589 357.1 741 c 0,45,46
 357.1 895 357.1 895 405.7 1026 c 128,-1,47
 454.3 1157 454.3 1157 552.4 1266 c 0,48,49
 650.5 1375 650.5 1375 768.85 1430 c 128,-1,50
 887.2 1485 887.2 1485 1024 1485 c 0,27,28
1024 1382 m 0,51,52
 906.1 1382 906.1 1382 804.4 1335 c 128,-1,53
 702.7 1288 702.7 1288 618.1 1194 c 0,54,55
 534.4 1101 534.4 1101 491.65 986.5 c 128,-1,56
 448.9 872 448.9 872 448.9 741 c 0,57,58
 448.9 611 448.9 611 491.65 498 c 128,-1,59
 534.4 385 534.4 385 618.1 291 c 0,60,61
 702.7 197 702.7 197 804.4 149.5 c 128,-1,62
 906.1 102 906.1 102 1024 102 c 0,63,64
 1142.8 102 1142.8 102 1244.95 149.5 c 128,-1,65
 1347.1 197 1347.1 197 1431.7 291 c 0,66,67
 1515.4 384 1515.4 384 1557.25 497 c 128,-1,68
 1599.1 610 1599.1 610 1599.1 741 c 0,69,70
 1599.1 874 1599.1 874 1556.8 987.5 c 128,-1,71
 1514.5 1101 1514.5 1101 1431.7 1194 c 0,72,73
 1347.1 1288 1347.1 1288 1244.95 1335 c 128,-1,74
 1142.8 1382 1142.8 1382 1024 1382 c 0,51,52
EndSplineSet
EndChar
StartChar: ordfeminine
Encoding: 170 170 170
Width: 923
Flags: W
Fore
599.287 756 m 17,0,-1
 630.428 934 l 1,1,2
 576.454 857 576.454 857 518.08 813.4 c 0,3,4
 459.202 769.74 459.202 769.74 393.188 756 c 0,5,6
 364.081 749.94 364.081 749.94 338.504 749.94 c 0,7,8
 253.696 749.94 253.696 749.94 207.652 816.53 c 0,9,10
 167.278 874.91 167.278 874.91 167.278 969.29 c 0,11,12
 167.278 1015.04 167.278 1015.04 176.765 1069.25 c 0,13,14
 205.816 1235.3 205.816 1235.3 301.747 1354.41 c 0,15,16
 397.498 1472.5 397.498 1472.5 523.111 1498.64 c 0,17,18
 548.824 1503.99 548.824 1503.99 571.729 1503.99 c 0,19,20
 607.612 1503.99 607.612 1503.99 636.593 1490.85 c 0,21,22
 684.428 1469.13 684.428 1469.13 714.289 1409.65 c 1,23,-1
 728.393 1494 l 1,24,-1
 841.792 1494 l 1,25,-1
 728.087 844 l 1,26,-1
 843.286 844 l 9,27,-1
 827.888 756 l 25,28,-1
 599.287 756 l 17,0,-1
664.375 1129.5 m 2,29,-1
 679.522 1216.09 l 2,30,31
 685.103 1247.96 685.103 1247.96 685.103 1275.09 c 0,32,33
 685.103 1335.56 685.103 1335.56 657.409 1372.48 c 0,34,35
 627.71 1413.15 627.71 1413.15 573.143 1413.15 c 0,36,37
 555.691 1413.15 555.691 1413.15 535.693 1408.99 c 0,38,39
 448.592 1390.86 448.592 1390.86 388.265 1308.61 c 0,40,41
 327.02 1226.17 327.02 1226.17 304.204 1095.78 c 0,42,43
 295.24 1044.51 295.24 1044.51 295.24 1003.77 c 0,44,45
 295.24 940.09 295.24 940.09 317.155 902.15 c 0,46,47
 344.983 853.97 344.983 853.97 403.502 853.97 c 0,48,49
 420.548 853.97 420.548 853.97 440.194 858.06 c 0,50,51
 521.798 875.04 521.798 875.04 584.546 950.92 c 0,52,53
 646.375 1026.61 646.375 1026.61 664.375 1129.5 c 2,29,-1
130.621 639 m 1,54,-1
 758.821 639 l 1,55,-1
 740.623 535 l 1,56,-1
 112.424 535 l 1,57,-1
 130.621 639 l 1,54,-1
EndSplineSet
EndChar
StartChar: guillemotleft
Encoding: 171 171 171
Width: 1192
Flags: W
Fore
1100.21 1059 m 1,0,-1
 1080.1 944 l 1,1,-1
 752.612 600 l 1,2,-1
 959.732 256 l 1,3,-1
 939.613 141 l 1,4,-1
 590.64 559 l 1,5,-1
 604.985 641 l 1,6,-1
 1100.21 1059 l 1,0,-1
709.611 1059 m 1,7,-1
 689.493 944 l 1,8,-1
 362.013 600 l 1,9,-1
 569.132 256 l 1,10,-1
 549.014 141 l 1,11,-1
 200.039 559 l 1,12,-1
 214.386 641 l 1,13,-1
 709.611 1059 l 1,7,-1
EndSplineSet
EndChar
StartChar: logicalnot
Encoding: 172 172 172
Width: 1634
Flags: W
Fore
281.1 862 m 1,0,-1
 1434.9 862 l 1,1,-1
 1434.9 287 l 1,2,-1
 1290.9 287 l 1,3,-1
 1290.9 700 l 1,4,-1
 281.1 700 l 1,5,-1
 281.1 862 l 1,0,-1
EndSplineSet
EndChar
StartChar: sfthyphen
Encoding: 173 173 173
Width: 657
Flags: W
Fore
129.246 627 m 1,0,-1
 590.046 627 l 1,1,-1
 562.754 471 l 1,2,-1
 101.954 471 l 1,3,-1
 129.246 627 l 1,0,-1
EndSplineSet
EndChar
StartChar: registered
Encoding: 174 174 174
Width: 1945
Flags: W
Fore
907.9 791 m 1,0,-1
 1020.4 791 l 2,1,2
 1095.1 791 1095.1 791 1132.45 829 c 128,-1,3
 1169.8 867 1169.8 867 1169.8 942 c 0,4,5
 1169.8 1016 1169.8 1016 1132 1054 c 128,-1,6
 1094.2 1092 1094.2 1092 1020.4 1092 c 2,7,-1
 907.9 1092 l 1,8,-1
 907.9 791 l 1,0,-1
1129.3 754 m 1,9,10
 1167.1 740 1167.1 740 1193.65 714.5 c 128,-1,11
 1220.2 689 1220.2 689 1238.2 649 c 2,12,-1
 1342.6 420 l 1,13,-1
 1411 420 l 1,14,-1
 1411 352 l 1,15,-1
 1240 352 l 1,16,-1
 1122.1 606 l 1,17,18
 1090.6 676 1090.6 676 1062.7 699.5 c 128,-1,19
 1034.8 723 1034.8 723 990.7 723 c 2,20,-1
 907.9 723 l 1,21,-1
 907.9 420 l 1,22,-1
 983.5 420 l 1,23,-1
 983.5 352 l 1,24,-1
 698.2 352 l 1,25,-1
 698.2 420 l 1,26,-1
 772.9 420 l 1,27,-1
 772.9 1092 l 1,28,-1
 698.2 1092 l 1,29,-1
 698.2 1159 l 1,30,-1
 1071.7 1159 l 2,31,32
 1186.9 1159 1186.9 1159 1245.4 1103 c 128,-1,33
 1303.9 1047 1303.9 1047 1303.9 938 c 0,34,35
 1303.9 855 1303.9 855 1260.7 809.5 c 128,-1,36
 1217.5 764 1217.5 764 1129.3 754 c 1,9,10
1024 1382 m 0,37,38
 906.1 1382 906.1 1382 804.4 1335 c 128,-1,39
 702.7 1288 702.7 1288 618.1 1194 c 0,40,41
 534.4 1101 534.4 1101 491.65 986.5 c 128,-1,42
 448.9 872 448.9 872 448.9 741 c 0,43,44
 448.9 611 448.9 611 491.65 498 c 128,-1,45
 534.4 385 534.4 385 618.1 291 c 0,46,47
 702.7 197 702.7 197 804.4 149.5 c 128,-1,48
 906.1 102 906.1 102 1024 102 c 0,49,50
 1142.8 102 1142.8 102 1244.95 149.5 c 128,-1,51
 1347.1 197 1347.1 197 1431.7 291 c 0,52,53
 1515.4 384 1515.4 384 1557.25 497 c 128,-1,54
 1599.1 610 1599.1 610 1599.1 741 c 0,55,56
 1599.1 874 1599.1 874 1556.8 987.5 c 128,-1,57
 1514.5 1101 1514.5 1101 1431.7 1194 c 0,58,59
 1347.1 1288 1347.1 1288 1244.95 1335 c 128,-1,60
 1142.8 1382 1142.8 1382 1024 1382 c 0,37,38
1024 1485 m 0,61,62
 1160.8 1485 1160.8 1485 1279.15 1430 c 128,-1,63
 1397.5 1375 1397.5 1375 1495.6 1266 c 0,64,65
 1593.7 1157 1593.7 1157 1642.3 1026 c 128,-1,66
 1690.9 895 1690.9 895 1690.9 741 c 0,67,68
 1690.9 589 1690.9 589 1642.3 458.5 c 128,-1,69
 1593.7 328 1593.7 328 1495.6 219 c 0,70,71
 1397.5 110 1397.5 110 1279.15 55 c 128,-1,72
 1160.8 0 1160.8 0 1024 0 c 0,73,74
 887.2 0 887.2 0 768.85 55 c 128,-1,75
 650.5 110 650.5 110 552.4 219 c 0,76,77
 454.3 328 454.3 328 405.7 458.5 c 128,-1,78
 357.1 589 357.1 589 357.1 741 c 0,79,80
 357.1 895 357.1 895 405.7 1026 c 128,-1,81
 454.3 1157 454.3 1157 552.4 1266 c 0,82,83
 650.5 1375 650.5 1375 768.85 1430 c 128,-1,84
 887.2 1485 887.2 1485 1024 1485 c 0,61,62
EndSplineSet
EndChar
StartChar: macron
Encoding: 175 175 175
Width: 989
Flags: W
Fore
424.5 1526 m 1,0,-1
 962.7 1526 l 1,1,-1
 937.5 1378 l 1,2,-1
 399.3 1378 l 1,3,-1
 424.5 1526 l 1,0,-1
EndSplineSet
LCarets: 0 65535 '    ' 1 0 
Ligature: 0 1 'liga' space uni0304
EndChar
StartChar: degree
Encoding: 176 176 176
Width: 972
Flags: W
Fore
512 1382 m 0,0,1
 443.6 1382 443.6 1382 396.8 1329.5 c 128,-1,2
 350 1277 350 1277 350 1200 c 0,3,4
 350 1124 350 1124 396.35 1073 c 128,-1,5
 442.7 1022 442.7 1022 512 1022 c 0,6,7
 580.4 1022 580.4 1022 627.2 1073.5 c 128,-1,8
 674 1125 674 1125 674 1200 c 0,9,10
 674 1275 674 1275 626.3 1328.5 c 128,-1,11
 578.6 1382 578.6 1382 512 1382 c 0,0,1
512 1520 m 0,12,13
 569.6 1520 569.6 1520 622.7 1495.5 c 128,-1,14
 675.8 1471 675.8 1471 714.5 1425 c 1,15,16
 755.9 1380 755.9 1380 776.6 1323 c 128,-1,17
 797.3 1266 797.3 1266 797.3 1200 c 0,18,19
 797.3 1068 797.3 1068 714.05 976.5 c 128,-1,20
 630.8 885 630.8 885 510.2 885 c 0,21,22
 388.7 885 388.7 885 307.7 975 c 128,-1,23
 226.7 1065 226.7 1065 226.7 1200 c 0,24,25
 226.7 1334 226.7 1334 309.5 1427 c 128,-1,26
 392.3 1520 392.3 1520 512 1520 c 0,12,13
EndSplineSet
EndChar
StartChar: plusminus
Encoding: 177 177 177
Width: 1626
Flags: W
Fore
930 1284 m 1,0,-1
 930 893 l 1,1,-1
 1434.9 893 l 1,2,-1
 1434.9 731 l 1,3,-1
 930 731 l 1,4,-1
 930 340 l 1,5,-1
 786 340 l 1,6,-1
 786 731 l 1,7,-1
 281.1 731 l 1,8,-1
 281.1 893 l 1,9,-1
 786 893 l 1,10,-1
 786 1284 l 1,11,-1
 930 1284 l 1,0,-1
281.1 160 m 1,12,-1
 1434.9 160 l 1,13,-1
 1434.9 0 l 1,14,-1
 281.1 0 l 1,15,-1
 281.1 160 l 1,12,-1
EndSplineSet
EndChar
StartChar: twosuperior
Encoding: 178 178 178
Width: 775
Flags: W
Fore
224.965 1296 m 1,0,-1
 161.965 1296 l 1,1,-1
 189.605 1454 l 1,2,3
 254.604 1486 254.604 1486 320.578 1503 c 128,-1,4
 386.552 1520 386.552 1520 448.651 1520 c 0,5,6
 572.852 1520 572.852 1520 638.256 1454 c 128,-1,7
 703.658 1388 703.658 1388 685.466 1284 c 0,8,9
 664.123 1162 664.123 1162 459.083 988 c 2,10,-1
 439.008 971 l 1,11,-1
 187.196 756 l 1,12,-1
 533.696 756 l 1,13,-1
 552.59 864 l 1,14,-1
 619.19 864 l 1,15,-1
 584.901 668 l 1,16,-1
 43.1016 668 l 1,17,-1
 56.2217 743 l 1,18,-1
 357.158 997 l 2,19,20
 448.027 1074 448.027 1074 491.999 1135 c 128,-1,21
 535.971 1196 535.971 1196 547.517 1262 c 0,22,23
 562.387 1347 562.387 1347 527.396 1396.5 c 128,-1,24
 492.406 1446 492.406 1446 416.806 1446 c 0,25,26
 346.606 1446 346.606 1446 297.658 1408 c 128,-1,27
 248.71 1370 248.71 1370 224.965 1296 c 1,0,-1
EndSplineSet
EndChar
StartChar: threesuperior
Encoding: 179 179 179
Width: 776
Flags: W
Fore
216.896 1468 m 1,0,1
 287.144 1494 287.144 1494 349.718 1507 c 128,-1,2
 412.292 1520 412.292 1520 465.393 1520 c 0,3,4
 589.593 1520 589.593 1520 647.196 1466 c 128,-1,5
 704.799 1412 704.799 1412 687.479 1313 c 0,6,7
 674.884 1241 674.884 1241 618.436 1191 c 128,-1,8
 561.989 1141 561.989 1141 473.515 1124 c 1,9,10
 577.816 1108 577.816 1108 621.856 1048.5 c 128,-1,11
 665.898 989 665.898 989 648.404 889 c 0,12,13
 628.46 775 628.46 775 539.039 714 c 128,-1,14
 449.617 653 449.617 653 302.917 653 c 0,15,16
 238.117 653 238.117 653 178.017 667 c 128,-1,17
 117.916 681 117.916 681 61.6143 709 c 1,18,-1
 91.3545 879 l 1,19,-1
 154.18 878 l 1,20,21
 145.734 804 145.734 804 183.099 765.5 c 128,-1,22
 220.463 727 220.463 727 303.263 727 c 0,23,24
 387.863 727 387.863 727 441.461 771 c 128,-1,25
 495.059 815 495.059 815 509.403 897 c 0,26,27
 525.673 990 525.673 990 488.083 1037.5 c 128,-1,28
 450.492 1085 450.492 1085 359.592 1085 c 2,29,-1
 311.892 1085 l 1,30,-1
 324.839 1159 l 1,31,-1
 349.139 1159 l 2,32,33
 436.438 1159 436.438 1159 487.46 1196 c 128,-1,34
 538.484 1233 538.484 1233 551.43 1307 c 0,35,36
 563.151 1374 563.151 1374 532.999 1410 c 128,-1,37
 502.847 1446 502.847 1446 434.447 1446 c 0,38,39
 360.646 1446 360.646 1446 315.897 1414 c 128,-1,40
 271.15 1382 271.15 1382 253.479 1317 c 1,41,-1
 190.479 1317 l 1,42,-1
 216.896 1468 l 1,0,1
EndSplineSet
EndChar
StartChar: acute
Encoding: 180 180 180
Width: 1000
Flags: W
Fore
851.35 1638 m 1,0,-1
 1030.45 1638 l 1,1,-1
 657.85 1262 l 1,2,-1
 552.55 1262 l 1,3,-1
 851.35 1638 l 1,0,-1
EndSplineSet
LCarets: 0 65535 '    ' 1 0 
Ligature: 0 1 'liga' space acutecomb
EndChar
StartChar: mu
Encoding: 181 181 181
Width: 1255
Flags: W
Fore
1005.3 1063 m 1,0,-1
 1170.9 1063 l 1,1,-1
 1003.13 104 l 1,2,-1
 1159.73 104 l 1,3,-1
 1141.53 0 l 1,4,-1
 819.331 0 l 1,5,-1
 852.217 188 l 1,6,7
 786.877 82 786.877 82 711.016 26.5 c 0,8,9
 635.155 -29 635.155 -29 554.155 -29 c 0,10,11
 502.855 -29 502.855 -29 463.705 -11 c 0,12,13
 424.555 7 424.555 7 395.755 43 c 1,14,-1
 313.702 -426 l 1,15,-1
 148.102 -426 l 1,16,-1
 389.878 956 l 1,17,-1
 240.478 956 l 1,18,-1
 259.198 1063 l 1,19,-1
 574.198 1063 l 1,20,-1
 465.901 444 l 2,21,22
 448.063 341.99 448.063 341.99 448.063 273.71 c 0,23,24
 448.063 212.14 448.063 212.14 462.571 178 c 0,25,26
 493.171 106 493.171 106 602.071 106 c 0,27,28
 717.271 106 717.271 106 794.023 200 c 0,29,30
 870.766 294 870.766 294 902.077 473 c 2,31,-1
 1005.3 1063 l 1,0,-1
EndSplineSet
EndChar
StartChar: paragraph
Encoding: 182 182 182
Width: 1250
Flags: W
Fore
795.814 1493 m 2,0,-1
 1280.01 1493 l 1,1,-1
 1261.29 1386 l 1,2,-1
 1155.09 1386 l 1,3,-1
 878.162 -197 l 1,4,-1
 781.862 -197 l 1,5,-1
 1058.79 1386 l 1,6,-1
 850.896 1386 l 1,7,-1
 573.963 -197 l 1,8,-1
 477.662 -197 l 1,9,-1
 625.663 649 l 1,10,11
 435.138 666 435.138 666 348.719 776.5 c 128,-1,12
 262.3 887 262.3 887 294.489 1071 c 0,13,14
 327.728 1261 327.728 1261 465.021 1377 c 128,-1,15
 602.314 1493 602.314 1493 795.814 1493 c 2,0,-1
EndSplineSet
EndChar
StartChar: periodcentered
Encoding: 183 183 183
Width: 618
Flags: W
Fore
203.34 711 m 0,0,1
 213.138 767 213.138 767 254.522 805.5 c 128,-1,2
 295.908 844 295.908 844 347.208 844 c 0,3,4
 396.708 844 396.708 844 424.984 805 c 128,-1,5
 453.262 766 453.262 766 443.641 711 c 0,6,7
 433.843 655 433.843 655 392.008 616.5 c 128,-1,8
 350.173 578 350.173 578 300.673 578 c 0,9,10
 249.372 578 249.372 578 221.371 616 c 128,-1,11
 193.368 654 193.368 654 203.34 711 c 0,0,1
EndSplineSet
EndChar
StartChar: cedilla
Encoding: 184 184 184
Width: 969
Flags: W
Fore
602.748 0 m 1,0,1
 649.152 -64 649.152 -64 667.704 -120 c 128,-1,2
 686.258 -176 686.258 -176 677.686 -225 c 0,3,4
 663.516 -306 663.516 -306 599.031 -350.5 c 128,-1,5
 534.546 -395 534.546 -395 433.746 -395 c 0,6,7
 395.946 -395 395.946 -395 357.396 -389 c 128,-1,8
 318.845 -383 318.845 -383 279.545 -371 c 1,9,-1
 302.462 -240 l 1,10,11
 336.389 -257 336.389 -257 370.451 -265.5 c 128,-1,12
 404.514 -274 404.514 -274 436.014 -274 c 0,13,14
 487.314 -274 487.314 -274 521.649 -247.5 c 128,-1,15
 555.985 -221 555.985 -221 563.858 -176 c 0,16,17
 568.757 -148 568.757 -148 556.654 -104 c 128,-1,18
 544.552 -60 544.552 -60 515.448 0 c 1,19,-1
 602.748 0 l 1,0,1
EndSplineSet
Ligature: 0 1 'liga' space uni0327
EndChar
StartChar: onesuperior
Encoding: 185 185 185
Width: 773
Flags: W
Fore
119.963 668 m 1,0,-1
 134.657 752 l 1,1,-1
 289.458 752 l 1,2,-1
 400.371 1386 l 1,3,-1
 200.928 1280 l 1,4,-1
 217.372 1374 l 1,5,-1
 455.938 1503 l 1,6,-1
 547.738 1503 l 1,7,-1
 416.357 752 l 1,8,-1
 572.058 752 l 1,9,-1
 557.363 668 l 1,10,-1
 119.963 668 l 1,0,-1
EndSplineSet
EndChar
StartChar: ordmasculine
Encoding: 186 186 186
Width: 913
Flags: W
Fore
442.311 813 m 0,0,1
 537.711 813 537.711 813 599.769 892.5 c 128,-1,2
 661.826 972 661.826 972 689.117 1128 c 0,3,4
 716.407 1284 716.407 1284 681.804 1364 c 128,-1,5
 647.198 1444 647.198 1444 552.698 1444 c 0,6,7
 459.099 1444 459.099 1444 395.879 1363 c 128,-1,8
 332.658 1282 332.658 1282 305.717 1128 c 0,9,10
 278.601 973 278.601 973 313.205 893 c 128,-1,11
 347.811 813 347.811 813 442.311 813 c 0,0,1
429.015 737 m 0,12,13
 271.514 737 271.514 737 194.922 844.5 c 128,-1,14
 118.327 952 118.327 952 149.117 1128 c 0,15,16
 180.081 1305 180.081 1305 294.288 1412.5 c 128,-1,17
 408.494 1520 408.494 1520 565.994 1520 c 0,18,19
 723.494 1520 723.494 1520 800.088 1412.5 c 128,-1,20
 876.682 1305 876.682 1305 845.717 1128 c 0,21,22
 814.752 951 814.752 951 701.083 844 c 128,-1,23
 587.414 737 587.414 737 429.015 737 c 0,12,13
102.271 639 m 1,24,-1
 721.47 639 l 1,25,-1
 703.276 535 l 1,26,-1
 84.0762 535 l 1,27,-1
 102.271 639 l 1,24,-1
EndSplineSet
EndChar
StartChar: guillemotright
Encoding: 187 187 187
Width: 1188
Flags: W
Fore
704.986 1059 m 1,0,-1
 1053.96 641 l 1,1,-1
 1039.61 559 l 1,2,-1
 544.389 141 l 1,3,-1
 564.507 256 l 1,4,-1
 891.987 600 l 1,5,-1
 684.868 944 l 1,6,-1
 704.986 1059 l 1,0,-1
314.387 1059 m 1,7,-1
 663.36 641 l 1,8,-1
 649.015 559 l 1,9,-1
 153.788 141 l 1,10,-1
 173.907 256 l 1,11,-1
 500.487 600 l 1,12,-1
 294.268 944 l 1,13,-1
 314.387 1059 l 1,7,-1
EndSplineSet
EndChar
StartChar: questiondown
Encoding: 191 191 191
Width: 1036
Flags: W
Fore
861.114 1389 m 0,0,1
 851.318 1333 851.318 1333 809.845 1294 c 128,-1,2
 768.372 1255 768.372 1255 717.972 1255 c 0,3,4
 668.472 1255 668.472 1255 640.195 1294 c 128,-1,5
 611.918 1333 611.918 1333 621.715 1389 c 0,6,7
 631.336 1444 631.336 1444 673.259 1483 c 128,-1,8
 715.182 1522 715.182 1522 764.682 1522 c 0,9,10
 815.982 1522 815.982 1522 843.445 1483.5 c 128,-1,11
 870.911 1445 870.911 1445 861.114 1389 c 0,0,1
828.566 66 m 1,12,13
 724.943 19 724.943 19 635.42 -4 c 128,-1,14
 545.896 -27 545.896 -27 469.396 -27 c 0,15,16
 270.496 -27 270.496 -27 173.115 80 c 128,-1,17
 75.7334 187 75.7334 187 107.573 369 c 0,18,19
 140.112 555 140.112 555 260.656 673 c 128,-1,20
 381.198 791 381.198 791 590.821 842 c 1,21,-1
 635.256 1096 l 1,22,-1
 745.956 1096 l 1,23,-1
 688.574 768 l 1,24,25
 521.752 725 521.752 725 423.083 624 c 128,-1,26
 324.414 523 324.414 523 297.123 367 c 0,27,28
 273.156 230 273.156 230 325.485 151 c 128,-1,29
 377.815 72 377.815 72 491.215 72 c 0,30,31
 592.915 72 592.915 72 670.074 137.5 c 128,-1,32
 747.232 203 747.232 203 787.65 326 c 1,33,-1
 874.05 326 l 1,34,-1
 828.566 66 l 1,12,13
EndSplineSet
EndChar
StartChar: Aring
Encoding: 197 197 197
Width: 1388
Flags: W
Fore
973.375 1626 m 0,0,1
 984.399 1689 984.399 1689 952.135 1733.5 c 128,-1,2
 919.869 1778 919.869 1778 863.17 1778 c 0,3,4
 805.569 1778 805.569 1778 758.811 1734.5 c 128,-1,5
 712.049 1691 712.049 1691 700.678 1626 c 0,6,7
 689.656 1563 689.656 1563 721.109 1519 c 128,-1,8
 752.562 1475 752.562 1475 810.161 1475 c 0,9,10
 866.861 1475 866.861 1475 914.609 1519 c 128,-1,11
 962.358 1563 962.358 1563 973.375 1626 c 0,0,1
354.266 541 m 1,12,-1
 845.665 541 l 1,13,-1
 725.074 1251 l 1,14,-1
 354.266 541 l 1,12,-1
-120.179 0 m 1,15,-1
 -101.634 106 l 1,16,-1
 16.2656 106 l 1,17,-1
 679.942 1384 l 1,18,19
 621.615 1421 621.615 1421 598.536 1482 c 128,-1,20
 575.458 1543 575.458 1543 589.979 1626 c 0,21,22
 609.921 1740 609.921 1740 696.005 1820.5 c 128,-1,23
 782.088 1901 782.088 1901 884.688 1901 c 0,24,25
 987.289 1901 987.289 1901 1045.65 1820.5 c 128,-1,26
 1104.02 1740 1104.02 1740 1084.07 1626 c 0,27,28
 1070.08 1546 1070.08 1546 1023.87 1482.5 c 128,-1,29
 977.668 1419 977.668 1419 906.742 1384 c 1,30,-1
 1125.97 106 l 1,31,-1
 1258.27 106 l 1,32,-1
 1239.72 0 l 1,33,-1
 751.021 0 l 1,34,-1
 769.566 106 l 1,35,-1
 918.966 106 l 1,36,-1
 863.848 434 l 1,37,-1
 298.647 434 l 1,38,-1
 128.766 106 l 1,39,-1
 276.366 106 l 1,40,-1
 257.821 0 l 1,41,-1
 -120.179 0 l 1,15,-1
EndSplineSet
LCarets: 0 65535 '    ' 1 0 
Ligature: 0 0 'liga' A uni030A
EndChar
StartChar: AE
Encoding: 198 198 198
Width: 1939
Flags: W
Fore
442.049 541 m 1,0,-1
 882.149 541 l 1,1,-1
 1029.98 1386 l 1,2,-1
 939.977 1386 l 1,3,-1
 442.049 541 l 1,0,-1
616.506 0 m 1,4,-1
 635.049 106 l 1,5,-1
 806.049 106 l 1,6,-1
 863.431 434 l 1,7,-1
 379.23 434 l 1,8,-1
 185.049 106 l 1,9,-1
 332.648 106 l 1,10,-1
 314.106 0 l 1,11,-1
 -67.4941 0 l 1,12,-1
 -48.9512 106 l 1,13,-1
 68.9492 106 l 1,14,-1
 823.876 1386 l 1,15,-1
 630.376 1386 l 1,16,-1
 649.094 1493 l 1,17,-1
 1959.49 1493 l 1,18,-1
 1901.41 1161 l 1,19,-1
 1790.71 1161 l 1,20,-1
 1827.28 1370 l 1,21,-1
 1208.08 1370 l 1,22,-1
 1120.61 870 l 1,23,-1
 1563.41 870 l 1,24,-1
 1596.12 1057 l 1,25,-1
 1706.82 1057 l 1,26,-1
 1620.05 561 l 1,27,-1
 1509.35 561 l 1,28,-1
 1542.06 748 l 1,29,-1
 1099.26 748 l 1,30,-1
 989.924 123 l 1,31,-1
 1624.42 123 l 1,32,-1
 1660.99 332 l 1,33,-1
 1771.69 332 l 1,34,-1
 1713.61 0 l 1,35,-1
 616.506 0 l 1,4,-1
EndSplineSet
KernsSLIFO: 45 38 0 0
EndChar
StartChar: Eth
Encoding: 208 208 208
Width: 1564
Flags: W
Fore
427.106 106 m 1,0,-1
 596.307 106 l 2,1,2
 858.207 106 858.207 106 1027.65 272 c 128,-1,3
 1197.08 438 1197.08 438 1251.32 748 c 0,4,5
 1305.55 1058 1305.55 1058 1194.29 1222 c 128,-1,6
 1083.04 1386 1083.04 1386 820.234 1386 c 2,7,-1
 651.034 1386 l 1,8,-1
 556.215 844 l 1,9,-1
 858.614 844 l 1,10,-1
 836.746 719 l 1,11,-1
 534.347 719 l 1,12,-1
 427.106 106 l 1,0,-1
56.6641 0 m 1,13,-1
 75.207 106 l 1,14,-1
 246.207 106 l 1,15,-1
 353.446 719 l 1,16,-1
 173.446 719 l 1,17,-1
 195.314 844 l 1,18,-1
 375.314 844 l 1,19,-1
 470.134 1386 l 1,20,-1
 299.134 1386 l 1,21,-1
 317.852 1493 l 1,22,-1
 852.451 1493 l 2,23,24
 1199.85 1493 1199.85 1493 1359.34 1296 c 128,-1,25
 1518.83 1099 1518.83 1099 1457.42 748 c 0,26,27
 1395.84 396 1395.84 396 1166.8 198 c 128,-1,28
 937.764 0 937.764 0 591.264 0 c 2,29,-1
 56.6641 0 l 1,13,-1
EndSplineSet
KernsSLIFO: 221 -36 0 0 193 -36 0 0 194 -36 0 0 376 -36 0 0 195 -36 0 0 192 -36 0 0 196 -36 0 0 89 -36 0 0 86 -36 0 0 65 -36 0 0 46 -73 0 0 45 75 0 0 44 -73 0 0
EndChar
StartChar: multiply
Encoding: 215 215 215
Width: 1630
Flags: W
Fore
1376.45 1104 m 1,0,-1
 959.75 641 l 1,1,-1
 1376.45 180 l 1,2,-1
 1272.95 68 l 1,3,-1
 858.05 528 l 1,4,-1
 443.15 68 l 1,5,-1
 340.55 180 l 1,6,-1
 754.55 641 l 1,7,-1
 340.55 1104 l 1,8,-1
 443.15 1217 l 1,9,-1
 858.05 756 l 1,10,-1
 1272.95 1217 l 1,11,-1
 1376.45 1104 l 1,0,-1
EndSplineSet
EndChar
StartChar: Oslash
Encoding: 216 216 216
Width: 1594
Flags: W
Fore
1262.49 1239 m 1,0,1
 1219.39 1327 1219.39 1327 1143.66 1370 c 128,-1,2
 1067.93 1413 1067.93 1413 956.33 1413 c 0,3,4
 734.93 1413 734.93 1413 592.952 1244.5 c 128,-1,5
 450.974 1076 450.974 1076 393.067 745 c 0,6,7
 372.25 626 372.25 626 369.768 529.5 c 128,-1,8
 367.286 433 367.286 433 383.716 352 c 1,9,-1
 1262.49 1239 l 1,0,1
414.621 256 m 1,10,11
 456.65 167 456.65 167 533.467 122.5 c 128,-1,12
 610.281 78 610.281 78 722.781 78 c 0,13,14
 943.281 78 943.281 78 1085.26 246.5 c 128,-1,15
 1227.23 415 1227.23 415 1284.97 745 c 0,16,17
 1305.44 862 1305.44 862 1307.82 960.5 c 128,-1,18
 1310.2 1059 1310.2 1059 1293.94 1141 c 1,19,-1
 414.621 256 l 1,10,11
1428.26 1276 m 1,20,21
 1487.67 1168 1487.67 1168 1503.81 1036.5 c 128,-1,22
 1519.96 905 1519.96 905 1491.97 745 c 0,23,24
 1431.62 400 1431.62 400 1213.64 185.5 c 128,-1,25
 995.664 -29 995.664 -29 704.062 -29 c 0,26,27
 577.162 -29 577.162 -29 477.585 14 c 128,-1,28
 378.008 57 378.008 57 302.152 143 c 1,29,-1
 103.364 -57 l 1,30,-1
 45.2354 12 l 1,31,-1
 249.749 219 l 1,32,33
 189.817 324 189.817 324 174.397 454.5 c 128,-1,34
 158.977 585 158.977 585 186.968 745 c 0,35,36
 247.498 1091 247.498 1091 465.923 1305.5 c 128,-1,37
 684.349 1520 684.349 1520 975.049 1520 c 0,38,39
 1101.95 1520 1101.95 1520 1202.51 1477.5 c 128,-1,40
 1303.08 1435 1303.08 1435 1374.96 1352 c 1,41,-1
 1569.79 1550 l 1,42,-1
 1629.37 1479 l 1,43,-1
 1428.26 1276 l 1,20,21
EndSplineSet
KernsSLIFO: 88 -36 0 0 86 -36 0 0 46 -120 0 0 45 75 0 0 44 -120 0 0
EndChar
StartChar: Thorn
Encoding: 222 222 222
Width: 1309
Flags: W
Fore
464.866 434 m 1,0,-1
 702.466 434 l 2,1,2
 836.565 434 836.565 434 920.848 514.5 c 128,-1,3
 1005.13 595 1005.13 595 1031.9 748 c 0,4,5
 1058.49 900 1058.49 900 1002.38 980.5 c 128,-1,6
 946.255 1061 946.255 1061 812.155 1061 c 2,7,-1
 574.555 1061 l 1,8,-1
 464.866 434 l 1,0,-1
35.2412 0 m 1,9,-1
 53.7842 106 l 1,10,-1
 224.784 106 l 1,11,-1
 448.712 1386 l 1,12,-1
 277.712 1386 l 1,13,-1
 296.429 1493 l 1,14,-1
 858.029 1493 l 1,15,-1
 839.312 1386 l 1,16,-1
 631.412 1386 l 1,17,-1
 593.099 1167 l 1,18,-1
 874.799 1167 l 2,19,20
 1076.4 1167 1076.4 1167 1174.44 1053.5 c 128,-1,21
 1272.48 940 1272.48 940 1238.9 748 c 0,22,23
 1204.96 554 1204.96 554 1066.66 440 c 128,-1,24
 928.372 326 928.372 326 727.672 326 c 2,25,-1
 445.972 326 l 1,26,-1
 407.484 106 l 1,27,-1
 615.385 106 l 1,28,-1
 596.842 0 l 1,29,-1
 35.2412 0 l 1,9,-1
EndSplineSet
KernsSLIFO: 46 -339 0 0 45 38 0 0 44 -339 0 0
EndChar
StartChar: germandbls
Encoding: 223 223 223
Width: 1286
Flags: W
Fore
979.721 1210 m 1,0,1
 993.338 1329 993.338 1329 942.073 1393.5 c 128,-1,2
 890.807 1458 890.807 1458 783.707 1458 c 0,3,4
 664.907 1458 664.907 1458 598.724 1393.5 c 128,-1,5
 532.539 1329 532.539 1329 508.223 1190 c 2,6,-1
 300.041 0 l 1,7,-1
 -24.8584 0 l 1,8,-1
 -6.31445 106 l 1,9,-1
 152.985 106 l 1,10,-1
 341.923 1186 l 2,11,12
 372.713 1362 372.713 1362 492.731 1459 c 128,-1,13
 612.752 1556 612.752 1556 800.852 1556 c 0,14,15
 992.555 1556 992.555 1556 1074.71 1452 c 128,-1,16
 1156.87 1348 1156.87 1348 1130.75 1137 c 1,17,-1
 1110.95 1137 l 2,18,19
 980.449 1137 980.449 1137 895.854 1083 c 128,-1,20
 811.257 1029 811.257 1029 794.986 936 c 0,21,22
 785.891 884 785.891 884 803.455 845.5 c 128,-1,23
 821.019 807 821.019 807 878.497 760 c 1,24,-1
 948.976 705 l 1,25,26
 1071.15 606 1071.15 606 1109.83 521 c 128,-1,27
 1148.52 436 1148.52 436 1128.57 322 c 0,28,29
 1101.45 167 1101.45 167 980.359 69 c 128,-1,30
 859.268 -29 859.268 -29 692.768 -29 c 0,31,32
 616.268 -29 616.268 -29 543.904 -10.5 c 128,-1,33
 471.541 8 471.541 8 406.563 43 c 1,34,-1
 447.324 276 l 1,35,-1
 545.425 276 l 1,36,37
 531.355 175 531.355 175 572.121 122.5 c 128,-1,38
 612.887 70 612.887 70 704.687 70 c 0,39,40
 804.587 70 804.587 70 872.32 130.5 c 128,-1,41
 940.055 191 940.055 191 958.246 295 c 0,42,43
 972.943 379 972.943 379 947.179 437.5 c 128,-1,44
 921.412 496 921.412 496 828.883 569 c 2,45,-1
 760.93 623 l 2,46,47
 678.701 688 678.701 688 649.936 752.5 c 128,-1,48
 621.169 817 621.169 817 635.515 899 c 0,49,50
 656.857 1021 656.857 1021 747.252 1103 c 128,-1,51
 837.648 1185 837.648 1185 979.721 1210 c 1,0,1
EndSplineSet
EndChar
StartChar: ae
Encoding: 230 230 230
Width: 1826
Flags: W
Fore
793.323 334 m 2,0,-1
 832.686 559 l 1,1,-1
 619.386 559 l 2,2,3
 496.086 559 496.086 559 425.464 500 c 128,-1,4
 354.842 441 354.842 441 333.499 319 c 0,5,6
 314.081 208 314.081 208 363.909 143 c 128,-1,7
 413.738 78 413.738 78 518.139 78 c 0,8,9
 621.639 78 621.639 78 697.509 149 c 128,-1,10
 773.38 220 773.38 220 793.323 334 c 2,0,-1
859.234 150 m 1,11,12
 768.614 59 768.614 59 670.018 15 c 128,-1,13
 571.42 -29 571.42 -29 458.92 -29 c 0,14,15
 281.619 -29 281.619 -29 200.789 62 c 128,-1,16
 119.959 153 119.959 153 148.999 319 c 0,17,18
 177.864 484 177.864 484 301.334 575 c 128,-1,19
 424.805 666 424.805 666 619.205 666 c 2,20,-1
 851.405 666 l 1,21,-1
 864.175 739 l 2,22,23
 885.168 859 885.168 859 832.089 926 c 128,-1,24
 779.011 993 779.011 993 663.81 993 c 0,25,26
 559.411 993 559.411 993 491.351 943.5 c 128,-1,27
 423.291 894 423.291 894 391.571 795 c 1,28,-1
 306.071 795 l 1,29,-1
 343.685 1010 l 1,30,31
 437.257 1051 437.257 1051 522.294 1071.5 c 128,-1,32
 607.329 1092 607.329 1092 684.729 1092 c 0,33,34
 811.63 1092 811.63 1092 890.869 1048.5 c 128,-1,35
 970.109 1005 970.109 1005 1003.86 915 c 1,36,37
 1085.86 1003 1085.86 1003 1180.04 1047.5 c 128,-1,38
 1274.23 1092 1274.23 1092 1379.53 1092 c 0,39,40
 1596.43 1092 1596.43 1092 1686.47 943 c 128,-1,41
 1776.49 794 1776.49 794 1730.76 512 c 1,42,-1
 1017.96 512 l 1,43,-1
 1016.56 504 l 2,44,45
 978.951 289 978.951 289 1032.25 179.5 c 128,-1,46
 1085.54 70 1085.54 70 1228.64 70 c 0,47,48
 1337.54 70 1337.54 70 1418.4 133.5 c 128,-1,49
 1499.26 197 1499.26 197 1549.03 322 c 1,50,-1
 1681.33 322 l 1,51,52
 1612.01 147 1612.01 147 1489.52 59 c 128,-1,53
 1367.02 -29 1367.02 -29 1194.22 -29 c 0,54,55
 1084.42 -29 1084.42 -29 999.226 16.5 c 128,-1,56
 914.039 62 914.039 62 859.234 150 c 1,11,12
1554.9 618 m 1,57,58
 1582.05 804 1582.05 804 1533.33 898.5 c 128,-1,59
 1484.61 993 1484.61 993 1362.21 993 c 0,60,61
 1247.91 993 1247.91 993 1165.14 898 c 128,-1,62
 1082.37 803 1082.37 803 1036.5 618 c 1,63,-1
 1554.9 618 l 1,57,58
EndSplineSet
EndChar
StartChar: eth
Encoding: 240 240 240
Width: 1170
Flags: W
Fore
828.616 928 m 1,0,1
 789.69 937 789.69 937 754.028 941.5 c 128,-1,2
 718.365 946 718.365 946 682.365 946 c 0,3,4
 526.666 946 526.666 946 433.696 839 c 128,-1,5
 340.728 732 340.728 732 301.54 508 c 0,6,7
 264.803 298 264.803 298 315.509 184 c 128,-1,8
 366.216 70 366.216 70 494.016 70 c 0,9,10
 623.615 70 623.615 70 713.396 184.5 c 128,-1,11
 803.177 299 803.177 299 840.439 512 c 0,12,13
 860.033 624 860.033 624 857.34 729.5 c 128,-1,14
 854.646 835 854.646 835 828.616 928 c 1,0,1
840.02 1307 m 1,15,16
 975.5 1140 975.5 1140 1025.45 944.5 c 128,-1,17
 1075.4 749 1075.4 749 1037.44 532 c 0,18,19
 993.005 278 993.005 278 839.7 124.5 c 128,-1,20
 686.396 -29 686.396 -29 476.696 -29 c 0,21,22
 270.596 -29 270.596 -29 168.85 122.5 c 128,-1,23
 67.1035 274 67.1035 274 109.789 518 c 0,24,25
 151.076 754 151.076 754 303.343 899 c 128,-1,26
 455.608 1044 455.608 1044 660.809 1044 c 0,27,28
 692.309 1044 692.309 1044 725.534 1041 c 128,-1,29
 758.76 1038 758.76 1038 804.161 1030 c 1,30,31
 793.632 1083 793.632 1083 770.142 1136.5 c 128,-1,32
 746.65 1190 746.65 1190 711.272 1245 c 1,33,-1
 395.407 1096 l 1,34,-1
 375.752 1174 l 1,35,-1
 663.068 1309 l 1,36,37
 618.316 1367 618.316 1367 554.751 1407.5 c 128,-1,38
 491.187 1448 491.187 1448 409.535 1470 c 1,39,-1
 440.78 1556 l 1,40,41
 543.331 1530 543.331 1530 629.158 1483 c 128,-1,42
 714.987 1436 714.987 1436 785.891 1368 c 1,43,-1
 1101.93 1518 l 1,44,-1
 1121.59 1440 l 1,45,-1
 840.02 1307 l 1,15,16
EndSplineSet
KernsSLIFO: 46 -36 0 0
EndChar
StartChar: divide
Encoding: 247 247 247
Width: 1630
Flags: W
Fore
738.3 1012 m 0,0,1
 738.3 1068 738.3 1068 772.95 1106.5 c 128,-1,2
 807.6 1145 807.6 1145 858 1145 c 0,3,4
 907.5 1145 907.5 1145 942.6 1106 c 128,-1,5
 977.7 1067 977.7 1067 977.7 1012 c 0,6,7
 977.7 956 977.7 956 942.6 917.5 c 128,-1,8
 907.5 879 907.5 879 858 879 c 0,9,10
 806.7 879 806.7 879 772.5 917 c 128,-1,11
 738.3 955 738.3 955 738.3 1012 c 0,0,1
738.3 272 m 0,12,13
 738.3 328 738.3 328 772.95 367 c 128,-1,14
 807.6 406 807.6 406 858 406 c 0,15,16
 907.5 406 907.5 406 942.6 367 c 128,-1,17
 977.7 328 977.7 328 977.7 272 c 0,18,19
 977.7 217 977.7 217 942.6 178 c 128,-1,20
 907.5 139 907.5 139 858 139 c 0,21,22
 806.7 139 806.7 139 772.5 177.5 c 128,-1,23
 738.3 216 738.3 216 738.3 272 c 0,12,13
281.1 723 m 1,24,-1
 1434.9 723 l 1,25,-1
 1434.9 561 l 1,26,-1
 281.1 561 l 1,27,-1
 281.1 723 l 1,24,-1
EndSplineSet
EndChar
StartChar: oslash
Encoding: 248 248 248
Width: 1170
Flags: W
Fore
878.042 879 m 1,0,1
 853.814 936 853.814 936 808.4 964.5 c 128,-1,2
 762.986 993 762.986 993 696.386 993 c 0,3,4
 564.086 993 564.086 993 475.218 876 c 128,-1,5
 386.35 759 386.35 759 346.639 532 c 0,6,7
 334.042 460 334.042 460 330.471 401 c 128,-1,8
 326.898 342 326.898 342 330.927 293 c 1,9,-1
 878.042 879 l 1,0,1
353.407 190 m 1,10,11
 378.736 129 378.736 129 423.524 99.5 c 128,-1,12
 468.314 70 468.314 70 534.915 70 c 0,13,14
 667.215 70 667.215 70 756.17 187.5 c 128,-1,15
 845.126 305 845.126 305 884.838 532 c 0,16,17
 898.133 608 898.133 608 901.967 668.5 c 128,-1,18
 905.801 729 905.801 729 901.224 780 c 1,19,-1
 353.407 190 l 1,10,11
1033.17 922 m 1,20,21
 1076.02 848 1076.02 848 1087.5 749 c 128,-1,22
 1098.98 650 1098.98 650 1078.34 532 c 0,23,24
 1033.9 278 1033.9 278 880.6 124.5 c 128,-1,25
 727.295 -29 727.295 -29 517.595 -29 c 0,26,27
 432.995 -29 432.995 -29 365.631 -2.5 c 128,-1,28
 298.267 24 298.267 24 247.414 78 c 1,29,-1
 88.624 -94 l 1,30,-1
 31.2451 -31 l 1,31,-1
 196.485 147 l 1,32,33
 155.057 224 155.057 224 144.037 320.5 c 128,-1,34
 133.019 417 133.019 417 153.139 532 c 0,35,36
 197.573 786 197.573 786 350.789 939 c 128,-1,37
 504.005 1092 504.005 1092 713.705 1092 c 0,38,39
 798.305 1092 798.305 1092 865.844 1066.5 c 128,-1,40
 933.384 1041 933.384 1041 982.238 991 c 1,41,-1
 1136.37 1157 l 1,42,-1
 1193.76 1094 l 1,43,-1
 1033.17 922 l 1,20,21
EndSplineSet
KernsSLIFO: 46 -36 0 0
EndChar
StartChar: thorn
Encoding: 254 254 254
Width: 1234
Flags: W
Fore
444.397 584 m 2,0,-1
 426.028 479 l 2,1,2
 412.295 400.5 412.295 400.5 412.295 337.3 c 0,3,4
 412.295 245.91 412.295 245.91 441.014 186.5 c 0,5,6
 489.577 86 489.577 86 615.577 86 c 0,7,8
 742.478 86 742.478 86 827.5 199 c 0,9,10
 912.515 312 912.515 312 951.008 532 c 0,11,12
 968.729 633.33 968.729 633.33 968.729 711.75 c 0,13,14
 968.729 804.35 968.729 804.35 944.006 865 c 0,15,16
 898.349 977 898.349 977 771.448 977 c 0,17,18
 645.448 977 645.448 977 561.632 876 c 128,-1,19
 477.814 775 477.814 775 444.397 584 c 2,0,-1
430.304 1450 m 1,20,-1
 271.004 1450 l 1,21,-1
 289.544 1556 l 1,22,-1
 614.443 1556 l 1,23,-1
 499.153 897 l 1,24,25
 565.249 997 565.249 997 648.716 1044.5 c 0,26,27
 732.173 1092 732.173 1092 842.872 1092 c 0,28,29
 1019.27 1092 1019.27 1092 1103.76 937 c 0,30,31
 1159.42 834.87 1159.42 834.87 1159.42 691.5 c 0,32,33
 1159.42 617.27 1159.42 617.27 1144.51 532 c 0,34,35
 1100.77 282 1100.77 282 961.961 126.5 c 0,36,37
 823.162 -29 823.162 -29 646.763 -29 c 0,38,39
 536.062 -29 536.062 -29 469.22 18.5 c 128,-1,40
 402.377 66 402.377 66 371.272 166 c 1,41,-1
 267.71 -426 l 1,42,-1
 102.109 -426 l 1,43,-1
 430.304 1450 l 1,20,-1
EndSplineSet
KernsSLIFO: 46 -102 0 0 44 -36 0 0
EndChar
StartChar: Dcroat
Encoding: 272 272 272
Width: 1564
Flags: W
Fore
427.106 106 m 1,0,-1
 596.307 106 l 2,1,2
 858.207 106 858.207 106 1027.65 272 c 128,-1,3
 1197.08 438 1197.08 438 1251.32 748 c 0,4,5
 1305.55 1058 1305.55 1058 1194.29 1222 c 128,-1,6
 1083.04 1386 1083.04 1386 820.234 1386 c 2,7,-1
 651.034 1386 l 1,8,-1
 556.215 844 l 1,9,-1
 858.614 844 l 1,10,-1
 836.746 719 l 1,11,-1
 534.347 719 l 1,12,-1
 427.106 106 l 1,0,-1
56.6641 0 m 1,13,-1
 75.207 106 l 1,14,-1
 246.207 106 l 1,15,-1
 353.446 719 l 1,16,-1
 173.446 719 l 1,17,-1
 195.314 844 l 1,18,-1
 375.314 844 l 1,19,-1
 470.134 1386 l 1,20,-1
 299.134 1386 l 1,21,-1
 317.852 1493 l 1,22,-1
 852.451 1493 l 2,23,24
 1199.85 1493 1199.85 1493 1359.34 1296 c 128,-1,25
 1518.83 1099 1518.83 1099 1457.42 748 c 0,26,27
 1395.84 396 1395.84 396 1166.8 198 c 128,-1,28
 937.764 0 937.764 0 591.264 0 c 2,29,-1
 56.6641 0 l 1,13,-1
EndSplineSet
EndChar
StartChar: dcroat
Encoding: 273 273 273
Width: 1250
Flags: W
Fore
1118.7 1227 m 1,0,-1
 904.039 0 l 1,1,-1
 738.439 0 l 1,2,-1
 767.482 166 l 1,3,4
 701.387 66 701.387 66 617.93 18.5 c 0,5,6
 534.464 -29 534.464 -29 423.764 -29 c 0,7,8
 247.363 -29 247.363 -29 162.521 126.5 c 0,9,10
 106.531 229.11 106.531 229.11 106.531 372.86 c 0,11,12
 106.531 446.97 106.531 446.97 121.408 532 c 0,13,14
 165.148 782 165.148 782 303.856 937 c 0,15,16
 442.573 1092 442.573 1092 619.873 1092 c 0,17,18
 730.573 1092 730.573 1092 797.416 1044.5 c 128,-1,19
 864.26 997 864.26 997 895.363 897 c 1,20,-1
 953.099 1227 l 1,21,-1
 659.698 1227 l 1,22,-1
 678.238 1333 l 1,23,-1
 971.639 1333 l 1,24,-1
 992.104 1450 l 1,25,-1
 835.505 1450 l 1,26,-1
 854.054 1556 l 1,27,-1
 1176.25 1556 l 1,28,-1
 1137.24 1333 l 1,29,-1
 1295.64 1333 l 1,30,-1
 1277.1 1227 l 1,31,-1
 1118.7 1227 l 1,0,-1
822.238 479 m 2,32,-1
 840.607 584 l 2,33,34
 854.242 661.93 854.242 661.93 854.242 724.88 c 0,35,36
 854.242 816.21 854.242 816.21 825.541 876 c 0,37,38
 777.059 977 777.059 977 651.059 977 c 0,39,40
 523.259 977 523.259 977 438.415 865 c 0,41,42
 353.572 753 353.572 753 314.908 532 c 0,43,44
 297.269 431.16 297.269 431.16 297.269 352.8 c 0,45,46
 297.269 260.21 297.269 260.21 321.901 199 c 0,47,48
 367.388 86 367.388 86 495.188 86 c 0,49,50
 621.188 86 621.188 86 704.914 186.5 c 0,51,52
 788.65 287 788.65 287 822.238 479 c 2,32,-1
EndSplineSet
EndChar
StartChar: Hbar
Encoding: 294 294 294
Width: 1696
Flags: W
Fore
566.3 870 m 1,9,-1
 1262.9 870 l 1,10,-1
 1297.1 1067 l 1,0,0
 600.5 1067 l 1,0,0
 566.3 870 l 1,9,-1
60.5 0 m 1,0,-1
 78.5 106 l 1,1,-1
 249.5 106 l 1,2,-1
 417.8 1067 l 1,0,0
 246.8 1067 l 1,0,0
 268.4 1189 l 1,0,0
 439.4 1189 l 1,0,0
 473.6 1386 l 1,3,-1
 302.6 1386 l 1,4,-1
 321.5 1493 l 1,5,-1
 846.2 1493 l 1,6,-1
 827.3 1386 l 1,7,-1
 656.3 1386 l 1,8,-1
 622.1 1189 l 1,0,0
 1318.7 1189 l 1,0,0
 1352.9 1386 l 1,11,-1
 1181.9 1386 l 1,12,-1
 1200.8 1493 l 1,13,-1
 1725.5 1493 l 1,14,-1
 1706.6 1386 l 1,15,-1
 1535.6 1386 l 1,16,-1
 1501.4 1189 l 1,0,0
 1672.4 1189 l 1,0,0
 1650.8 1067 l 1,0,0
 1479.8 1067 l 1,0,0
 1311.5 106 l 1,17,-1
 1482.5 106 l 1,18,-1
 1464.5 0 l 1,19,-1
 939.8 0 l 1,20,-1
 957.8 106 l 1,21,-1
 1128.8 106 l 1,22,-1
 1241.3 748 l 1,23,-1
 544.7 748 l 1,24,-1
 432.2 106 l 1,25,-1
 603.2 106 l 1,26,-1
 585.2 0 l 1,27,-1
 60.5 0 l 1,0,-1
EndSplineSet
EndChar
StartChar: hbar
Encoding: 295 295 295
Width: 1240
Flags: W
Fore
150.4 0 m 1,0,-1
 362.08 1210 l 1,1,-1
 203.681 1210 l 1,2,-1
 225.028 1332 l 1,3,-1
 383.429 1332 l 1,4,-1
 404.065 1450 l 1,5,-1
 245.665 1450 l 1,6,-1
 264.215 1556 l 1,7,-1
 588.215 1556 l 1,8,-1
 549.028 1332 l 1,9,-1
 833.429 1332 l 1,10,-1
 812.08 1210 l 1,11,-1
 527.681 1210 l 1,12,-1
 468.901 874 l 1,13,14
 533.692 982 533.692 982 616.663 1037 c 0,15,16
 699.644 1092 699.644 1092 796.844 1092 c 0,17,18
 955.243 1092 955.243 1092 1012.27 991 c 0,19,20
 1046.7 930.03 1046.7 930.03 1046.7 827.87 c 0,21,22
 1046.7 760.81 1046.7 760.81 1031.86 676 c 2,23,-1
 932.149 106 l 1,24,-1
 1079.75 106 l 1,25,-1
 1061.2 0 l 1,26,-1
 747.101 0 l 1,27,-1
 855.218 618 l 2,28,29
 873.299 721.37 873.299 721.37 873.299 790.03 c 0,30,31
 873.299 850.9 873.299 850.9 859.088 884.5 c 0,32,33
 828.848 956 828.848 956 719.048 956 c 0,34,35
 603.848 956 603.848 956 527.275 863 c 0,36,37
 450.713 770 450.713 770 419.572 592 c 2,38,-1
 316.001 0 l 1,39,-1
 150.4 0 l 1,0,-1
EndSplineSet
EndChar
StartChar: dotlessi
Encoding: 305 305 305
Width: 614
Flags: W
Fore
350.361 106 m 1,0,-1
 506.961 106 l 1,1,-1
 488.421 0 l 1,2,-1
 166.221 0 l 1,3,-1
 333.468 956 l 1,4,-1
 175.059 956 l 1,5,-1
 193.779 1063 l 1,6,-1
 517.779 1063 l 1,7,-1
 350.361 106 l 1,0,-1
EndSplineSet
EndChar
StartChar: kgreenlandic
Encoding: 312 312 312
Width: 1180
Flags: W
Fore
350.56 0 m 1,0,-1
 184.96 0 l 1,1,-1
 351.676 953 l 1,2,-1
 192.376 953 l 1,3,-1
 211.096 1060 l 1,4,-1
 535.996 1060 l 1,5,-1
 445.204 541 l 1,6,-1
 920.476 953 l 1,7,-1
 782.776 953 l 1,8,-1
 801.496 1060 l 1,9,-1
 1070.6 1060 l 1,10,-1
 1051.88 953 l 1,11,-1
 716.572 662 l 1,12,-1
 982.9 106 l 1,13,-1
 1120.6 106 l 1,14,-1
 1102.06 0 l 1,15,-1
 836.56 0 l 1,16,-1
 575.704 541 l 1,17,-1
 421.588 406 l 1,18,-1
 350.56 0 l 1,0,-1
EndSplineSet
EndChar
StartChar: Lslash
Encoding: 321 321 321
Width: 1294
Flags: W
Fore
41.4209 0 m 1,0,-1
 59.9639 106 l 1,1,-1
 230.964 106 l 1,2,-1
 314.937 586 l 1,3,-1
 153.868 473 l 1,4,-1
 106.963 565 l 1,5,-1
 339.604 727 l 1,6,-1
 454.891 1386 l 1,7,-1
 283.891 1386 l 1,8,-1
 302.608 1493 l 1,9,-1
 826.408 1493 l 1,10,-1
 807.691 1386 l 1,11,-1
 635.791 1386 l 1,12,-1
 545.521 870 l 1,13,-1
 861.357 1096 l 1,14,-1
 908.263 1004 l 1,15,-1
 520.854 729 l 1,16,-1
 414.838 123 l 1,17,-1
 1030.43 123 l 1,18,-1
 1074.17 373 l 1,19,-1
 1184.88 373 l 1,20,-1
 1119.62 0 l 1,21,-1
 41.4209 0 l 1,0,-1
EndSplineSet
KernsSLIFO: 366 -36 0 0 356 -167 0 0 253 -36 0 0 221 -206 0 0 217 -36 0 0 219 -36 0 0 218 -36 0 0 376 -206 0 0 255 -36 0 0 8217 -491 0 0 8221 -491 0 0 220 -36 0 0 121 -36 0 0 89 -206 0 0 87 -178 0 0 86 -243 0 0 85 -36 0 0 84 -167 0 0
EndChar
StartChar: lslash
Encoding: 322 322 322
Width: 626
Flags: W
Fore
302.283 106 m 1,0,-1
 460.684 106 l 1,1,-1
 442.135 0 l 1,2,-1
 118.135 0 l 1,3,-1
 237.097 680 l 1,4,-1
 96.1025 584 l 1,5,-1
 56.251 670 l 1,6,-1
 260.011 811 l 1,7,-1
 371.8 1450 l 1,8,-1
 215.199 1450 l 1,9,-1
 233.748 1556 l 1,10,-1
 555.948 1556 l 1,11,-1
 448.183 940 l 1,12,-1
 597.628 1038 l 1,13,-1
 636.579 952 l 1,14,-1
 425.61 811 l 1,15,-1
 302.283 106 l 1,0,-1
EndSplineSet
EndChar
StartChar: Eng
Encoding: 330 330 330
Width: 1703
Flags: W
Fore
52.5996 0 m 1,14,-1
 71.5 106 l 1,13,-1
 252.4 106 l 1,12,-1
 476.5 1386 l 1,11,-1
 295.6 1386 l 1,10,-1
 313.6 1493 l 1,9,-1
 658.3 1493 l 1,8,-1
 1257.7 315 l 1,7,-1
 1445.8 1386 l 1,6,-1
 1265.8 1386 l 1,5,-1
 1283.8 1493 l 1,4,-1
 1755.4 1493 l 1,3,-1
 1737.4 1386 l 1,2,-1
 1556.5 1386 l 1,1,-1
 1308.1 -29 l 2,0,-1
 1264.9 -276 1264.9 -276 1193.8 -356 c 0,37,38
 1106.5 -455 1106.5 -455 990.4 -455 c 0,35,36
 886 -455 886 -455 829.3 -438 c 0,33,34
 773.5 -422 773.5 -422 724 -389 c 1,31,32
 761.8 -170 l 1,30,-1
 847.3 -170 l 1,29,-1
 844.6 -194 844.6 -194 844.6 -215 c 0,27,28
 844.6 -277 844.6 -277 868 -311 c 0,25,26
 897.7 -356 897.7 -356 1010.2 -356 c 0,23,24
 1067.8 -355 1067.8 -355 1118.2 -292 c 0,21,22
 1161.4 -235 1161.4 -235 1197.4 -29 c 1,19,20
 559.3 1229 l 1,18,-1
 363.1 106 l 1,17,-1
 544 106 l 1,16,-1
 525.1 0 l 1,15,-1
 52.5996 0 l 1,14,-1
EndSplineSet
EndChar
StartChar: eng
Encoding: 331 331 331
Width: 1247
Flags: W
Fore
816.397 -104 m 2,0,-1
 942.713 618 l 2,1,2
 960.713 720.92 960.713 720.92 960.713 789.72 c 0,3,4
 960.713 851.26 960.713 851.26 946.304 885.5 c 0,5,6
 915.794 958 915.794 958 806.894 958 c 0,7,8
 691.693 958 691.693 958 615.031 864.5 c 0,9,10
 538.379 771 538.379 771 507.059 592 c 2,11,-1
 403.495 0 l 1,12,-1
 237.896 0 l 1,13,-1
 405.143 956 l 1,14,-1
 246.742 956 l 1,15,-1
 265.463 1063 l 1,16,-1
 589.463 1063 l 1,17,-1
 556.396 874 l 1,18,19
 621.188 982 621.188 982 704.158 1037 c 0,20,21
 787.13 1092 787.13 1092 884.329 1092 c 0,22,23
 1040.95 1092 1040.95 1092 1099.76 991 c 0,24,25
 1134.39 931.53 1134.39 931.53 1134.39 829.3 c 0,26,27
 1134.39 761.93 1134.39 761.93 1119.36 676 c 2,28,-1
 982.897 -104 l 2,29,30
 954.215 -268 954.215 -268 850.103 -361.5 c 0,31,32
 746 -455 746 -455 592.1 -455 c 0,33,34
 527.3 -455 527.3 -455 471.229 -438.5 c 128,-1,35
 415.169 -422 415.169 -422 365.146 -389 c 1,36,-1
 403.46 -170 l 1,37,-1
 488.96 -170 l 1,38,39
 486.26 -194.65 486.26 -194.65 486.26 -215.93 c 0,40,41
 486.26 -277.55 486.26 -277.55 508.841 -311 c 0,42,43
 539.216 -356 539.216 -356 613.016 -356 c 0,44,45
 694.915 -356 694.915 -356 744.82 -294.5 c 0,46,47
 793.582 -234.43 793.582 -234.43 816.397 -104 c 2,0,-1
EndSplineSet
EndChar
StartChar: OE
Encoding: 338 338 338
Width: 2215
Flags: W
Fore
1030.93 106 m 1,0,-1
 1254.86 1386 l 1,1,-1
 1086.56 1386 l 2,2,3
 823.754 1386 823.754 1386 655.563 1222 c 128,-1,4
 487.373 1058 487.373 1058 433.491 750 c 0,5,6
 379.084 439 379.084 439 489.904 272.5 c 128,-1,7
 600.727 106 600.727 106 862.627 106 c 2,8,-1
 1030.93 106 l 1,0,-1
1937.59 0 m 1,9,-1
 831.484 0 l 2,10,11
 484.984 0 484.984 0 325.223 198 c 128,-1,12
 165.461 396 165.461 396 227.391 750 c 0,13,14
 288.795 1101 288.795 1101 517.034 1297 c 128,-1,15
 745.271 1493 745.271 1493 1092.67 1493 c 2,16,-1
 2183.47 1493 l 1,17,-1
 2125.39 1161 l 1,18,-1
 2014.69 1161 l 1,19,-1
 2051.26 1370 l 1,20,-1
 1433.86 1370 l 1,21,-1
 1346.39 870 l 1,22,-1
 1789.19 870 l 1,23,-1
 1821.9 1057 l 1,24,-1
 1930.8 1057 l 1,25,-1
 1844.02 561 l 1,26,-1
 1735.12 561 l 1,27,-1
 1767.84 748 l 1,28,-1
 1325.04 748 l 1,29,-1
 1215.7 123 l 1,30,-1
 1848.4 123 l 1,31,-1
 1884.96 332 l 1,32,-1
 1995.67 332 l 1,33,-1
 1937.59 0 l 1,9,-1
EndSplineSet
KernsSLIFO: 45 38 0 0
EndChar
StartChar: oe
Encoding: 339 339 339
Width: 1923
Flags: W
Fore
574.807 70 m 0,0,1
 708.007 70 708.007 70 796.424 187 c 128,-1,2
 884.842 304 884.842 304 924.73 532 c 0,3,4
 964.616 760 964.616 760 917.048 876.5 c 128,-1,5
 869.479 993 869.479 993 736.277 993 c 0,6,7
 603.078 993 603.078 993 514.748 876.5 c 128,-1,8
 426.416 760 426.416 760 386.53 532 c 0,9,10
 346.642 304 346.642 304 394.574 187 c 128,-1,11
 442.507 70 442.507 70 574.807 70 c 0,0,1
1828.43 512 m 1,12,-1
 1114.73 512 l 1,13,-1
 1113.33 504 l 2,14,15
 1075.72 289 1075.72 289 1129.46 179.5 c 128,-1,16
 1183.2 70 1183.2 70 1325.4 70 c 0,17,18
 1434.3 70 1434.3 70 1515.17 133.5 c 128,-1,19
 1596.02 197 1596.02 197 1645.79 322 c 1,20,-1
 1778.99 322 l 1,21,22
 1708.78 147 1708.78 147 1586.74 59 c 128,-1,23
 1464.69 -29 1464.69 -29 1291.89 -29 c 0,24,25
 1174.89 -29 1174.89 -29 1090.3 20 c 128,-1,26
 1005.73 69 1005.73 69 957 166 c 1,27,28
 878.106 70 878.106 70 776.297 20.5 c 128,-1,29
 674.486 -29 674.486 -29 557.486 -29 c 0,30,31
 348.687 -29 348.687 -29 248.641 124.5 c 128,-1,32
 148.594 278 148.594 278 193.03 532 c 0,33,34
 237.465 786 237.465 786 390.681 939 c 128,-1,35
 543.896 1092 543.896 1092 753.597 1092 c 0,36,37
 872.396 1092 872.396 1092 956.437 1042.5 c 128,-1,38
 1040.48 993 1040.48 993 1086.69 897 c 1,39,40
 1169.18 993 1169.18 993 1267.84 1042.5 c 128,-1,41
 1366.5 1092 1366.5 1092 1476.3 1092 c 0,42,43
 1694.1 1092 1694.1 1092 1783.76 943.5 c 128,-1,44
 1873.44 795 1873.44 795 1828.43 512 c 1,12,-1
1651.67 618 m 1,45,46
 1678.81 804 1678.81 804 1630.1 898.5 c 128,-1,47
 1581.38 993 1581.38 993 1458.98 993 c 0,48,49
 1344.68 993 1344.68 993 1262.36 898 c 128,-1,50
 1180.04 803 1180.04 803 1133.27 618 c 1,51,-1
 1651.67 618 l 1,45,46
EndSplineSet
EndChar
StartChar: Tbar
Encoding: 358 358 358
Width: 1308
Flags: W
TeX: 0 0 0 0
Fore
300.8 0 m 1,0,-1
 318.8 106 l 1,1,-1
 490.7 106 l 1,2,-1
 582.5 628 l 1,0,0
 344 628 l 1,0,0
 373.7 798 l 1,0,0
 612.2 798 l 1,0,0
 713 1374 l 1,3,-1
 317.9 1374 l 1,4,-1
 277.4 1141 l 1,5,-1
 166.7 1141 l 1,6,-1
 227.9 1493 l 1,7,-1
 1421.3 1493 l 1,8,-1
 1360.1 1141 l 1,9,-1
 1249.4 1141 l 1,10,-1
 1289.9 1374 l 1,11,-1
 894.8 1374 l 1,12,-1
 794 798 l 1,0,0
 1033.4 798 l 1,0,0
 1003.7 628 l 1,0,0
 764.3 628 l 1,0,0
 672.5 106 l 1,13,-1
 844.4 106 l 1,14,-1
 826.4 0 l 1,15,-1
 300.8 0 l 1,0,-1
EndSplineSet
EndChar
StartChar: tbar
Encoding: 359 359 359
Width: 785
Flags: W
TeX: 0 0 0 0
Fore
291.2 956 m 1,0,-1
 145.4 956 l 1,1,-1
 164.3 1063 l 1,2,-1
 310.1 1063 l 1,3,-1
 367.7 1393 l 1,4,-1
 534.2 1393 l 1,5,-1
 476.6 1063 l 1,6,-1
 788 1063 l 1,7,-1
 769.1 956 l 1,8,-1
 457.7 956 l 1,9,-1
 417.2 723 l 1,0,0
 588.2 723 l 1,0,0
 563 581 l 1,0,0
 392 581 l 1,0,0
 339.8 281 l 2,10,11
 326.3 202 326.3 202 326.3 156 c 0,0,0
 326.3 124 326.3 124 332.6 108 c 128,-1,12
 349.7 70 349.7 70 412.7 70 c 0,13,14
 477.5 70 477.5 70 514.4 112 c 128,-1,15
 552.2 155 552.2 155 570.2 250 c 1,16,-1
 695.3 250 l 1,17,18
 662.9 105 662.9 105 587.3 38 c 128,-1,19
 511.7 -29 511.7 -29 381.2 -29 c 0,20,21
 238.1 -29 238.1 -29 191.3 42 c 128,-1,22
 161.6 85 161.6 85 161.6 165 c 0,0,0
 161.6 216 161.6 216 173.3 281 c 2,23,-1
 225.5 581 l 1,0,0
 104 581 l 1,0,0
 129.2 723 l 1,0,0
 250.7 723 l 1,0,0
 291.2 956 l 1,0,-1
EndSplineSet
EndChar
StartChar: longs
Encoding: 383 383 383
Width: 729
Flags: W
TeX: 0 0 0 0
Fore
952.443 1305 m 1,0,-1
 865.146 1305 l 1,1,2
 868.64 1326.44 868.64 1326.44 868.64 1344.94 c 0,0,0
 868.64 1391.15 868.64 1391.15 846.84 1419 c 128,-1,3
 816.312 1458 816.312 1458 745.213 1458 c 0,4,5
 652.513 1458 652.513 1458 604.828 1401.5 c 128,-1,6
 557.145 1345 557.145 1345 531.776 1200 c 2,7,-1
 318.522 -19 l 2,22,23
 287.383 -197 287.383 -197 188.214 -288 c 128,-1,24
 89.0439 -379 89.0439 -379 -72.0557 -379 c 0,25,26
 -132.355 -379 -132.355 -379 -190.557 -367 c 128,-1,27
 -248.757 -355 -248.757 -355 -303.784 -330 c 1,28,-1
 -268.445 -128 l 1,0,-1
 -181.146 -128 l 1,1,2
 -184.64 -149.44 -184.64 -149.44 -184.64 -167.939 c 0,0,0
 -184.64 -214.149 -184.64 -214.149 -162.84 -242 c 128,-1,3
 -132.312 -281 -132.312 -281 -61.2129 -281 c 0,4,5
 31.4883 -281 31.4883 -281 79.1719 -224.5 c 128,-1,6
 126.856 -168 126.856 -168 152.923 -19 c 2,7,-1
 323.491 956 l 1,18,-1
 165.092 956 l 1,19,-1
 183.81 1063 l 1,20,-1
 342.21 1063 l 1,21,-1
 365.478 1196 l 2,22,23
 396.617 1374 396.617 1374 495.787 1465 c 128,-1,24
 594.956 1556 594.956 1556 756.056 1556 c 0,25,26
 816.355 1556 816.355 1556 874.557 1544 c 128,-1,27
 932.758 1532 932.758 1532 987.786 1507 c 1,28,-1
 952.443 1305 l 1,0,-1
EndSplineSet
EndChar
StartChar: uni0181
Encoding: 385 385 385
Width: 1416
Flags: W
TeX: 117 0 0 0
Fore
447.035 1386 m 0,20,21
 242.734 1386 242.734 1386 165.965 1297 c 128,-1,19
 86.1436 1206 86.1436 1206 53.6055 1020 c 1,17,18
 -62.4951 1020 l 1,16,-1
 -2.31445 1364 l 1,15,-1
 102.781 1440 102.781 1440 271.079 1476 c 128,-1,14
 377.552 1493 377.552 1493 465.752 1493 c 2,12,13
 958.052 1493 l 0,14,15
 1159.65 1493 1159.65 1493 1247.79 1400 c 0,16,17
 1335.18 1308 1335.18 1308 1303 1124 c 0,18,19
 1279.74 991 1279.74 991 1194.81 912 c 0,20,21
 1108.99 833 1108.99 833 968.146 815 c 1,22,23
 1136.74 791 1136.74 791 1207.07 694 c 0,24,25
 1278.13 596 1278.13 596 1249.44 432 c 0,26,27
 1210.6 210 1210.6 210 1066.23 105 c 0,28,29
 921.865 0 921.865 0 654.564 0 c 2,30,-1
 33.5645 0 l 1,0,-1
 52.1074 106 l 1,1,-1
 223.107 106 l 1,2,-1
 447.035 1386 l 0,20,21
538.064 862 m 1,31,-1
 766.664 862 l 2,32,33
 914.265 862 914.265 862 993.688 925 c 0,34,35
 1072.2 988 1072.2 988 1096 1124 c 0,36,37
 1123.47 1281 1123.47 1281 1063.48 1324 c 0,38,39
 978.037 1386 978.037 1386 858.335 1386 c 2,40,-1
 629.734 1386 l 1,41,-1
 538.064 862 l 1,31,-1
405.808 106 m 1,42,-1
 674.907 106 l 2,43,44
 836.907 106 836.907 106 925.253 184 c 0,45,46
 1013.6 262 1013.6 262 1043.34 432 c 0,47,48
 1072.56 599 1072.56 599 1011.67 678 c 0,49,50
 951.521 756 951.521 756 788.621 756 c 2,51,-1
 519.521 756 l 1,52,-1
 405.808 106 l 1,42,-1
EndSplineSet
EndChar
StartChar: uni0183
Encoding: 387 387 387
Width: 1234
Flags: W
TeX: 117 0 0 0
Fore
382.737 479 m 2,0,1
 349.148 287 349.148 287 398.079 186 c 0,2,3
 446.285 86 446.285 86 572.285 86 c 0,4,5
 699.186 86 699.186 86 783.753 199 c 0,6,7
 869.222 312 869.222 312 907.709 532 c 0,8,9
 946.371 753 946.371 753 900.265 865 c 0,10,11
 855.059 977 855.059 977 728.158 977 c 0,12,13
 602.158 977 602.158 977 518.79 876 c 0,14,15
 434.52 775 434.52 775 401.105 584 c 2,16,-1
 382.737 479 l 2,0,1
1103.95 1556 m 1,17,-1
 1057.24 1289 l 1,18,-1
 962.743 1289 l 1,19,-1
 987.935 1433 l 1,20,-1
 549.633 1433 l 1,21,-1
 455.863 897 l 1,22,23
 521.958 997 521.958 997 605.779 1044 c 0,24,25
 688.877 1092 688.877 1092 799.577 1092 c 0,26,27
 975.974 1092 975.974 1092 1060.46 937 c 0,28,29
 1144.95 782 1144.95 782 1101.21 532 c 0,30,31
 1057.48 282 1057.48 282 918.583 126 c 0,32,33
 779.866 -29 779.866 -29 603.466 -29 c 0,34,35
 492.767 -29 492.767 -29 426.289 18 c 0,36,37
 359.087 66 359.087 66 327.979 166 c 1,38,-1
 298.94 0 l 1,39,-1
 -25.96 0 l 1,40,-1
 -7.41602 106 l 1,41,-1
 151.884 106 l 1,42,-1
 387.006 1450 l 1,43,-1
 227.706 1450 l 1,44,-1
 246.251 1556 l 1,45,-1
 1103.95 1556 l 1,17,-1
EndSplineSet
EndChar
StartChar: uni0184
Encoding: 388 388 388
Width: 1419
Flags: W
TeX: 117 0 0 0
Fore
408.067 106 m 1,0,-1
 677.168 106 l 2,1,2
 839.168 106 839.168 106 927.514 184 c 128,-1,3
 1015.86 262 1015.86 262 1045.6 432 c 0,4,5
 1075.17 601 1075.17 601 1014.47 678.5 c 128,-1,6
 953.78 756 953.78 756 790.881 756 c 2,7,-1
 521.78 756 l 1,8,-1
 408.067 106 l 1,0,-1
227.91 1098 m 1,9,-1
 650.712 1493 l 1,10,-1
 540.324 862 l 1,15,-1
 768.924 862 l 2,16,17
 1110.92 862 1110.92 862 1209.33 694 c 1,18,19
 1276.89 576 1276.89 576 1251.7 432 c 0,20,21
 1212.86 210 1212.86 210 1068.49 105 c 128,-1,22
 924.125 0 924.125 0 656.825 0 c 2,23,-1
 35.8242 0 l 1,24,-1
 54.3672 106 l 1,25,-1
 225.367 106 l 1,26,-1
 380.367 992 l 1,27,-1
 209.367 992 l 1,28,-1
 227.91 1098 l 1,9,-1
EndSplineSet
EndChar
StartChar: uni0185
Encoding: 389 389 389
Width: 1234
Flags: W
TeX: 117 0 0 0
Fore
382.737 479 m 2,0,1
 349.148 287 349.148 287 397.717 186.5 c 0,2,3
 446.285 86 446.285 86 572.285 86 c 0,4,5
 699.186 86 699.186 86 784.203 199 c 0,6,7
 869.222 312 869.222 312 907.709 532 c 0,8,9
 946.371 753 946.371 753 900.715 865 c 0,10,11
 855.059 977 855.059 977 728.158 977 c 0,12,13
 602.158 977 602.158 977 518.34 876 c 0,14,15
 434.52 775 434.52 775 401.105 584 c 2,16,-1
 382.737 479 l 2,0,1
571.15 1556 m 1,17,-1
 455.863 897 l 1,22,23
 521.958 997 521.958 997 605.417 1044.5 c 0,24,25
 688.877 1092 688.877 1092 799.577 1092 c 0,26,27
 975.974 1092 975.974 1092 1060.46 937 c 0,28,29
 1144.95 782 1144.95 782 1101.21 532 c 0,30,31
 1057.48 282 1057.48 282 918.67 126.5 c 0,32,33
 779.866 -29 779.866 -29 603.466 -29 c 0,34,35
 492.767 -29 492.767 -29 425.927 18.5 c 0,36,37
 359.087 66 359.087 66 327.979 166 c 1,38,-1
 298.94 0 l 1,39,-1
 -25.96 0 l 1,40,-1
 -7.41602 106 l 1,41,-1
 151.884 106 l 1,42,-1
 330.15 1125 l 1,43,-1
 170.851 1125 l 1,44,-1
 192.894 1251 l 1,45,-1
 571.15 1556 l 1,17,-1
EndSplineSet
EndChar
StartChar: uni0186
Encoding: 390 390 390
Width: 1485
Flags: W
TeX: 117 0 0 0
Fore
117.729 395 m 1,0,1
 283.329 395 l 1,29,-1
 298.887 237 298.887 237 382.18 157.5 c 128,-1,28
 465.472 78 465.472 78 615.771 78 c 0,26,27
 830.872 78 830.872 78 971.224 247.5 c 128,-1,25
 1111.58 417 1111.58 417 1168.96 745 c 0,23,24
 1226.51 1074 1226.51 1074 1145.47 1243.5 c 128,-1,22
 1064.42 1413 1064.42 1413 849.32 1413 c 0,20,21
 668.42 1413 668.42 1413 552.5 1324 c 128,-1,19
 436.58 1235 436.58 1235 370.391 1047 c 1,17,18
 268.69 1047 l 1,16,-1
 328.872 1391 l 1,15,-1
 483.342 1456 483.342 1456 613.141 1488 c 128,-1,14
 742.939 1520 742.939 1520 852.739 1520 c 0,12,13
 1148.84 1520 1148.84 1520 1292.39 1306.5 c 128,-1,11
 1435.94 1093 1435.94 1093 1375.06 745 c 0,9,10
 1343.56 565 1343.56 565 1269.58 422.5 c 128,-1,8
 1195.61 280 1195.61 280 1075.22 168 c 0,6,7
 970.948 71 970.948 71 849.7 21 c 128,-1,5
 728.453 -29 728.453 -29 597.053 -29 c 0,3,4
 382.853 -29 382.853 -29 261.71 78.5 c 128,-1,2
 140.565 186 140.565 186 117.729 395 c 1,0,1
EndSplineSet
EndChar
StartChar: uni0187
Encoding: 391 391 391
Width: 1514
Flags: W
TeX: 117 0 0 0
Fore
1332.76 395 m 1,0,1
 1236.79 186 1236.79 186 1077.5 78 c 0,2,3
 919.283 -29 919.283 -29 705.083 -29 c 0,4,5
 573.683 -29 573.683 -29 469.929 21 c 0,6,7
 366.176 71 366.176 71 295.847 168 c 0,8,9
 214.64 280 214.64 280 190.881 422 c 0,10,11
 166.398 565 166.398 565 197.888 745 c 0,12,13
 258.768 1093 258.768 1093 476.93 1306 c 0,14,15
 695.268 1520 695.268 1520 991.367 1520 c 0,16,17
 1101.17 1520 1101.17 1520 1219.77 1488 c 0,18,19
 1304.85 1465 1304.85 1465 1395.95 1425 c 1,20,21
 1411.17 1512 1411.17 1512 1494.22 1570 c 0,22,23
 1572.21 1630 1572.21 1630 1674.81 1630 c 0,24,25
 1739.61 1630 1739.61 1630 1796.21 1614 c 0,26,27
 1851.73 1597 1851.73 1597 1901.77 1564 c 1,28,-1
 1863.45 1345 l 1,29,-1
 1777.95 1345 l 1,30,31
 1794.75 1441 1794.75 1441 1757.62 1486 c 0,32,33
 1727.7 1531 1727.7 1531 1653.9 1531 c 0,34,35
 1572 1531 1572 1531 1522.62 1470 c 0,36,37
 1473.25 1409 1473.25 1409 1450.51 1279 c 2,38,-1
 1409.92 1047 l 1,39,-1
 1308.22 1047 l 1,40,41
 1307.81 1235 1307.81 1235 1223.48 1324 c 0,42,43
 1138.25 1413 1138.25 1413 957.349 1413 c 0,44,45
 742.249 1413 742.249 1413 601.984 1244 c 0,46,47
 461.544 1074 461.544 1074 403.987 745 c 0,48,49
 346.606 417 346.606 417 427.74 248 c 0,50,51
 508.702 78 508.702 78 723.802 78 c 0,52,53
 874.102 78 874.102 78 985.296 158 c 0,54,55
 1096.32 237 1096.32 237 1167.16 395 c 1,56,-1
 1332.76 395 l 1,0,1
EndSplineSet
EndChar
StartChar: uni0188
Encoding: 392 392 392
Width: 1114
Flags: W
TeX: 117 0 0 0
Fore
973.981 319 m 1,0,1
 909.142 149 909.142 149 793.672 60 c 0,2,3
 678.202 -29 678.202 -29 519.803 -29 c 0,4,5
 311.002 -29 311.002 -29 210.868 124 c 0,6,7
 110.909 278 110.909 278 155.345 532 c 0,8,9
 199.955 787 199.955 787 353.621 940 c 0,10,11
 507.112 1092 507.112 1092 715.912 1092 c 0,12,13
 806.812 1092 806.812 1092 892.614 1068 c 0,14,15
 934.789 1057 934.789 1057 976.641 1039 c 1,16,17
 1017.14 1183 1017.14 1183 1103.53 1255 c 0,18,19
 1166.8 1308 1166.8 1308 1278.4 1308 c 0,20,21
 1343.2 1308 1343.2 1308 1398.9 1292 c 0,22,23
 1455.33 1275 1455.33 1275 1505.35 1242 c 1,24,-1
 1467.04 1023 l 1,25,-1
 1381.54 1023 l 1,26,27
 1398.34 1119 1398.34 1119 1362.11 1164 c 0,28,29
 1331.28 1209 1331.28 1209 1257.48 1209 c 0,30,31
 1175.58 1209 1175.58 1209 1125.31 1148 c 0,32,33
 1076.84 1087 1076.84 1087 1054.1 957 c 2,34,-1
 1013.51 725 l 1,35,-1
 917.208 725 l 1,36,37
 922.801 865 922.801 865 870.997 929 c 0,38,39
 818.294 993 818.294 993 700.394 993 c 0,40,41
 566.294 993 566.294 993 477.774 878 c 0,42,43
 389.082 762 389.082 762 348.845 532 c 0,44,45
 308.607 302 308.607 302 355.815 186 c 0,46,47
 403.922 70 403.922 70 538.922 70 c 0,48,49
 646.021 70 646.021 70 720.768 132 c 0,50,51
 795.514 194 795.514 194 840.782 319 c 1,52,-1
 973.981 319 l 1,0,1
EndSplineSet
EndChar
StartChar: uni018A
Encoding: 394 394 394
Width: 1548
Flags: W
TeX: 117 0 0 0
Fore
454.795 1386 m 0,20,21
 250.495 1386 250.495 1386 173.726 1297 c 128,-1,19
 93.9043 1206 93.9043 1206 61.3662 1020 c 1,17,18
 -54.7344 1020 l 1,16,-1
 5.44629 1364 l 1,15,-1
 147.665 1467 147.665 1467 278.84 1476 c 128,-1,14
 366.413 1493 366.413 1493 473.513 1493 c 2,12,13
 837.112 1493 l 2,14,15
 1184.51 1493 1184.51 1493 1343.55 1296 c 0,16,17
 1503.49 1099 1503.49 1099 1442.08 748 c 0,18,19
 1380.5 396 1380.5 396 1151.46 198 c 0,20,21
 922.426 0 922.426 0 575.926 0 c 2,22,-1
 41.3252 0 l 1,0,-1
 59.8682 106 l 1,1,-1
 230.868 106 l 1,2,-1
 454.795 1386 l 0,20,21
413.568 106 m 1,23,-1
 580.968 106 l 2,24,25
 842.868 106 842.868 106 1011.41 272 c 0,26,27
 1180.85 438 1180.85 438 1235.08 748 c 0,28,29
 1289.31 1058 1289.31 1058 1178.51 1222 c 0,30,31
 1067.7 1386 1067.7 1386 804.896 1386 c 2,32,-1
 637.495 1386 l 1,33,-1
 413.568 106 l 1,23,-1
EndSplineSet
EndChar
StartChar: uni018B
Encoding: 395 395 395
Width: 1432
Flags: W
TeX: 117 0 0 0
Fore
854.525 106 m 1,0,-1
 968.238 756 l 1,8,-1
 699.139 756 l 2,7,-1
 536.238 756 536.238 756 447.893 678 c 128,-1,6
 360.622 601 360.622 601 331.057 432 c 0,4,5
 301.316 262 301.316 262 362.371 184 c 128,-1,3
 423.426 106 423.426 106 585.426 106 c 2,1,2
 854.525 106 l 1,0,-1
1450.87 1493 m 1,9,-1
 1432.16 1386 l 1,28,-1
 1261.16 1386 l 1,27,-1
 1037.23 106 l 1,26,-1
 1208.23 106 l 1,25,-1
 1189.69 0 l 1,24,-1
 568.683 0 l 2,23,-1
 301.383 0 301.383 0 193.751 105 c 128,-1,22
 86.1191 210 86.1191 210 124.957 432 c 0,20,21
 150.148 576 150.148 576 258.992 694 c 1,18,19
 416.183 862 416.183 862 758.183 862 c 2,16,17
 986.781 862 l 1,15,-1
 1075.66 1370 l 1,14,-1
 459.152 1370 l 1,13,-1
 422.589 1161 l 1,12,-1
 311.89 1161 l 1,11,-1
 369.97 1493 l 1,10,-1
 1450.87 1493 l 1,9,-1
EndSplineSet
EndChar
StartChar: uni018C
Encoding: 396 396 396
Width: 1247
Flags: W
TeX: 117 0 0 0
Fore
780.502 479 m 2,0,-1
 798.87 584 l 2,1,2
 832.284 775 832.284 775 784.254 876 c 0,3,4
 735.322 977 735.322 977 609.322 977 c 0,5,6
 482.423 977 482.423 977 397.129 865 c 0,7,8
 312.735 753 312.735 753 274.073 532 c 0,9,10
 235.586 312 235.586 312 280.617 199 c 0,11,12
 326.55 86 326.55 86 453.45 86 c 0,13,14
 579.45 86 579.45 86 663.543 186 c 0,15,16
 746.913 287 746.913 287 780.502 479 c 2,0,-1
436.115 1556 m 1,17,-1
 1293.82 1556 l 1,18,-1
 1275.27 1450 l 1,19,-1
 1115.97 1450 l 1,20,-1
 880.849 106 l 1,21,-1
 1040.15 106 l 1,22,-1
 1021.6 0 l 1,23,-1
 696.704 0 l 1,24,-1
 725.744 166 l 1,25,26
 659.65 66 659.65 66 576.554 18 c 0,27,28
 492.73 -29 492.73 -29 382.03 -29 c 0,29,30
 205.63 -29 205.63 -29 121.147 126 c 0,31,32
 36.8379 282 36.8379 282 80.5732 532 c 0,33,34
 124.309 782 124.309 782 263.025 937 c 0,35,36
 401.741 1092 401.741 1092 578.142 1092 c 0,37,38
 688.841 1092 688.841 1092 756.043 1044 c 0,39,40
 822.521 997 822.521 997 853.628 897 c 1,41,-1
 947.396 1433 l 1,42,-1
 509.097 1433 l 1,43,-1
 483.904 1289 l 1,44,-1
 389.404 1289 l 1,45,-1
 436.115 1556 l 1,17,-1
EndSplineSet
EndChar
StartChar: uni018D
Encoding: 397 397 397
Width: 1173
Flags: W
TeX: 117 0 0 0
Fore
796.97 27 m 1,0,1
 851.995 2 851.995 2 873.124 -47 c 0,2,3
 897.526 -103 897.526 -103 873.56 -240 c 0,4,5
 850.992 -369 850.992 -369 750.896 -437 c 0,6,7
 650.975 -504 650.975 -504 474.575 -504 c 0,8,9
 425.975 -504 425.975 -504 335.173 -488 c 0,10,11
 244.548 -471 244.548 -471 149.171 -440 c 1,12,-1
 183.635 -243 l 1,13,-1
 285.209 -218 l 1,14,15
 280.438 -307 280.438 -307 337.19 -353 c 0,16,17
 394.118 -398 394.118 -398 478.719 -398 c 128,-1,18
 563.318 -398 563.318 -398 633.991 -349 c 0,19,20
 708.787 -297 708.787 -297 717.634 -231 c 0,21,22
 734.253 -136 734.253 -136 706.552 -104 c 0,23,24
 650.372 -29 650.372 -29 562.172 -29 c 16,25,26
 352.472 -29 352.472 -29 252.338 124 c 128,-1,27
 153.104 277 153.104 277 197.54 531 c 128,-1,28
 241.975 785 241.975 785 394.741 938 c 128,-1,29
 548.582 1092 548.582 1092 758.282 1092 c 0,30,31
 967.087 1092 967.087 1092 1067.04 938 c 128,-1,32
 1167.17 785 1167.17 785 1122.74 531 c 128,-1,33
 1078.31 277 1078.31 277 925.538 124 c 0,34,35
 857.117 57 857.117 57 796.97 27 c 1,0,1
740.963 993 m 0,36,37
 607.764 993 607.764 993 518.895 876 c 128,-1,38
 430.927 759 430.927 759 391.04 531 c 128,-1,39
 351.152 303 351.152 303 398.185 186 c 128,-1,40
 446.292 70 446.292 70 579.491 70 c 128,-1,41
 712.691 70 712.691 70 801.385 186 c 128,-1,42
 889.353 303 889.353 303 929.239 531 c 128,-1,43
 969.13 759 969.13 759 921.194 876 c 128,-1,44
 873.264 993 873.264 993 740.963 993 c 0,36,37
EndSplineSet
EndChar
StartChar: uni018E
Encoding: 398 398 398
Width: 1417
Flags: W
TeX: 117 0 0 0
Fore
1139.51 0 m 1,0,-1
 43.3057 0 l 1,23,-1
 101.387 332 l 1,22,-1
 212.087 332 l 1,21,-1
 175.523 123 l 1,20,-1
 807.323 123 l 1,19,-1
 916.662 748 l 1,18,-1
 476.562 748 l 1,17,-1
 443.848 561 l 1,16,-1
 333.147 561 l 1,15,-1
 419.919 1057 l 1,14,-1
 530.619 1057 l 1,13,-1
 497.905 870 l 1,12,-1
 938.005 870 l 1,11,-1
 1025.48 1370 l 1,10,-1
 408.076 1370 l 1,9,-1
 371.513 1161 l 1,8,-1
 260.812 1161 l 1,7,-1
 318.894 1493 l 1,6,-1
 1400.69 1493 l 1,5,-1
 1381.98 1386 l 1,4,-1
 1210.98 1386 l 1,3,-1
 987.05 106 l 1,2,-1
 1158.05 106 l 1,1,-1
 1139.51 0 l 1,0,-1
EndSplineSet
EndChar
StartChar: uni018F
Encoding: 399 399 399
Width: 1595
Flags: W
TeX: 117 0 0 0
Fore
966.691 1413 m 24,26,27
 806.491 1413 806.491 1413 695.471 1334 c 128,-1,28
 584.276 1254 584.276 1254 513.435 1096 c 1,29,-1
 347.834 1096 l 1,0,1
 443.798 1305 443.798 1305 602.017 1412 c 128,-1,2
 761.311 1520 761.311 1520 975.511 1520 c 24,3,4
 1268.01 1520 1268.01 1520 1410.74 1307 c 0,5,6
 1553.48 1094 1553.48 1094 1492.43 745 c 0,7,8
 1461.12 566 1461.12 566 1386.43 422 c 0,9,10
 1312.08 280 1312.08 280 1191.69 168 c 0,11,12
 1085.45 70 1085.45 70 964.197 20 c 0,13,14
 842.225 -29 842.225 -29 704.524 -29 c 0,15,16
 567.725 -29 567.725 -29 461.272 21 c 0,17,18
 355.72 71 355.72 71 285.388 168 c 0,19,20
 204.182 280 204.182 280 180.424 422 c 0,21,22
 155.765 564 155.765 564 187.429 745 c 2,23,-1
 199.851 816 l 1,24,-1
 1296.05 816 l 1,25,26
 1344.86 1095 1344.86 1095 1260.23 1244 c 0,27,28
 1177.29 1413 1177.29 1413 966.691 1413 c 24,26,27
1275.61 694 m 1,27,-1
 385.508 694 l 1,28,29
 334.425 402 334.425 402 418.733 246 c 0,30,31
 501.844 78 501.844 78 723.243 78 c 0,32,33
 943.743 78 943.743 78 1085.64 246 c 0,34,35
 1224.52 402 1224.52 402 1275.61 694 c 1,27,-1
EndSplineSet
EndChar
StartChar: uni0190
Encoding: 400 400 400
Width: 1238
Flags: W
TeX: 117 0 0 0
Fore
1182.95 1430 m 1,0,1
 1136.94 1167 l 1,42,-1
 1036.14 1167 l 1,41,-1
 1046.48 1293 1046.48 1293 990.63 1357 c 128,-1,40
 934.78 1421 934.78 1421 813.28 1421 c 0,38,39
 691.78 1421 691.78 1421 614.821 1351.5 c 128,-1,37
 537.862 1282 537.862 1282 514.945 1151 c 0,35,36
 489.403 1005 489.403 1005 555.471 932.5 c 128,-1,34
 621.537 860 621.537 860 779.037 860 c 2,32,33
 824.037 860 l 1,31,-1
 806.193 758 l 1,30,-1
 720.693 758 l 2,29,-1
 562.293 758 562.293 758 464.561 667.5 c 128,-1,28
 366.828 577 366.828 577 336.039 401 c 0,26,27
 309.098 247 309.098 247 373.265 158.5 c 128,-1,25
 437.433 70 437.433 70 575.133 70 c 0,23,24
 717.333 70 717.333 70 808.578 144 c 128,-1,22
 899.825 218 899.825 218 934.016 362 c 1,20,21
 1034.82 362 l 1,19,-1
 984.078 72 l 1,18,-1
 876.161 21 876.161 21 771.437 -4 c 128,-1,17
 666.713 -29 666.713 -29 561.413 -29 c 0,15,16
 323.813 -29 323.813 -29 216.869 82.5 c 128,-1,14
 109.925 194 109.925 194 146.488 403 c 0,12,13
 176.404 574 176.404 574 286.561 681.5 c 128,-1,11
 396.716 789 396.716 789 566.865 815 c 1,9,10
 432.062 847 432.062 847 371.396 937.5 c 128,-1,8
 310.727 1028 310.727 1028 334.344 1163 c 0,6,7
 363.735 1331 363.735 1331 490.968 1425.5 c 128,-1,5
 618.199 1520 618.199 1520 815.3 1520 c 0,3,4
 899.899 1520 899.899 1520 992.628 1497 c 128,-1,2
 1085.36 1474 1085.36 1474 1182.95 1430 c 1,0,1
EndSplineSet
EndChar
StartChar: uni0191
Encoding: 401 401 401
Width: 1336
Flags: W
TeX: 117 0 0 0
Fore
-31.3965 -426 m 0,0,1
 -161.896 -426 -161.896 -426 -281.4 -358 c 1,2,-1
 -240.288 -123 l 1,3,-1
 -137.688 -123 l 1,4,5
 -171.978 -319 -171.978 -319 -10.877 -319 c 0,6,7
 96.2227 -319 96.2227 -319 151.644 -244 c 0,8,9
 208.314 -167 208.314 -167 245.201 49 c 2,10,-1
 479.099 1386 l 1,11,-1
 308.099 1386 l 1,12,-1
 326.818 1493 l 1,13,-1
 1426.62 1493 l 1,14,-1
 1368.53 1161 l 1,15,-1
 1257.83 1161 l 1,16,-1
 1294.4 1370 l 1,17,-1
 659.001 1370 l 1,18,-1
 571.529 870 l 1,19,-1
 1030.53 870 l 1,20,-1
 1063.25 1057 l 1,21,-1
 1173.95 1057 l 1,22,-1
 1087.18 561 l 1,23,-1
 976.476 561 l 1,24,-1
 1009.18 748 l 1,25,-1
 550.186 748 l 1,26,-1
 426.502 41 l 2,27,28
 371.745 -272 371.745 -272 205.025 -371 c 0,29,30
 111.704 -426 111.704 -426 -31.3965 -426 c 0,0,1
EndSplineSet
EndChar
StartChar: florin
Encoding: 402 402 402
Width: 1236
Flags: W
Fore
721.791 1135 m 1,0,1
 775.03 1321 775.03 1321 882.887 1420.5 c 128,-1,2
 990.739 1520 990.739 1520 1140.14 1520 c 0,3,4
 1186.04 1520 1186.04 1520 1237.13 1508.5 c 128,-1,5
 1288.22 1497 1288.22 1497 1347.37 1475 c 1,6,-1
 1308.54 1253 l 1,7,-1
 1220.34 1253 l 1,8,9
 1229.98 1339 1229.98 1339 1203.4 1380 c 128,-1,10
 1176.82 1421 1176.82 1421 1111.12 1421 c 0,11,12
 1039.12 1421 1039.12 1421 987.814 1351.5 c 128,-1,13
 936.508 1282 936.508 1282 887.867 1112 c 1,14,-1
 805.46 821 l 1,15,-1
 1079.96 821 l 1,16,-1
 1061.42 715 l 1,17,-1
 774.315 715 l 1,18,-1
 558.209 -47 l 1,19,20
 504.971 -233 504.971 -233 396.214 -332.5 c 128,-1,21
 287.457 -432 287.457 -432 138.057 -432 c 0,22,23
 93.0566 -432 93.0566 -432 42.7803 -421 c 128,-1,24
 -7.49414 -410 -7.49414 -410 -67.3711 -387 c 1,25,-1
 -28.709 -166 l 1,26,-1
 59.4912 -166 l 1,27,28
 49.8457 -252 49.8457 -252 75.9736 -293 c 128,-1,29
 102.101 -334 102.101 -334 166.9 -334 c 0,30,31
 238.9 -334 238.9 -334 290.296 -264 c 128,-1,32
 341.692 -194 341.692 -194 390.157 -25 c 2,33,-1
 602.415 715 l 1,34,-1
 375.615 715 l 1,35,-1
 394.16 821 l 1,36,-1
 632.66 821 l 1,37,-1
 721.791 1135 l 1,0,1
EndSplineSet
EndChar
StartChar: uni0193
Encoding: 403 403 403
Width: 1577
Flags: W
TeX: 117 0 0 0
Fore
1672.87 1531 m 0,0,1
 1560.37 1531 1560.37 1531 1507.32 1413 c 0,2,3
 1483.47 1359 1483.47 1359 1469.48 1279 c 2,4,-1
 1428.9 1047 l 1,5,-1
 1327.2 1047 l 1,6,-1
 1328.07 1052 l 2,7,8
 1327.98 1319 1327.98 1319 1146.37 1387 c 0,9,10
 1078.02 1413 1078.02 1413 982.621 1413 c 0,11,12
 750.422 1413 750.422 1413 607.081 1247 c 0,13,14
 463.74 1081 463.74 1081 404.96 745 c 0,15,16
 312.24 215 312.24 215 591.797 105 c 0,17,18
 661.774 78 661.774 78 752.674 78 c 0,19,20
 956.074 78 956.074 78 1143.07 190 c 1,21,-1
 1210.42 575 l 1,22,-1
 957.52 575 l 1,23,-1
 976.238 682 l 1,24,-1
 1411.84 682 l 1,25,-1
 1314.4 125 l 1,26,27
 1048.05 -29 1048.05 -29 733.955 -29 c 0,28,29
 429.755 -29 429.755 -29 283.066 182 c 0,30,31
 137.455 394 137.455 394 198.86 745 c 0,32,33
 260.789 1099 260.789 1099 481.303 1310 c 0,34,35
 701.64 1520 701.64 1520 1012.14 1520 c 0,36,37
 1202.94 1520 1202.94 1520 1412.35 1436 c 1,38,39
 1448.32 1513 1448.32 1513 1513.19 1570 c 0,40,41
 1581.29 1630 1581.29 1630 1693.79 1630 c 0,42,43
 1820.69 1630 1820.69 1630 1920.74 1564 c 1,44,-1
 1882.42 1345 l 1,45,-1
 1796.92 1345 l 1,46,47
 1822.64 1492 1822.64 1492 1728.89 1522 c 0,48,49
 1705.27 1531 1705.27 1531 1672.87 1531 c 0,0,1
EndSplineSet
EndChar
StartChar: uni0194
Encoding: 404 404 404
Width: 1396
Flags: W
TeX: 0 0 0 0
Fore
650.785 733 m 0,0,-1
 372.623 1386 l 1,1,-1
 228.623 1386 l 1,2,-1
 247.343 1493 l 1,3,-1
 780.143 1493 l 1,4,-1
 761.424 1386 l 1,5,-1
 603.023 1386 l 1,6,-1
 806.876 905 l 1,7,-1
 1187.12 1386 l 1,8,-1
 1014.33 1386 l 1,9,-1
 1033.04 1493 l 1,10,-1
 1473.15 1493 l 1,11,-1
 1454.42 1386 l 1,12,-1
 1303.23 1386 l 1,13,-1
 847.132 811 l 0,14,15
 1226.8 126 1226.8 126 1031.45 -44 c 0,16,17
 865.864 -188 865.864 -188 549.063 -188 c 16,18,19
 229.563 -188 229.563 -188 209.652 12 c 0,20,21
 190.918 193 190.918 193 650.785 733 c 0,0,-1
693.217 636 m 1,22,23
 367.889 258 367.889 258 332.55 56 c 24,24,25
 308.408 -82 308.408 -82 567.608 -82 c 16,26,27
 812.408 -82 812.408 -82 836.55 56 c 16,28,29
 873.638 268 873.638 268 693.217 636 c 1,22,23
EndSplineSet
EndChar
StartChar: uni0195
Encoding: 405 405 405
Width: 1803
Flags: W
TeX: 117 0 0 0
Fore
25.0977 0 m 1,0,-1
 43.6416 106 l 1,1,-1
 193.042 106 l 1,2,-1
 428.164 1450 l 1,3,-1
 269.765 1450 l 1,4,-1
 288.308 1556 l 1,5,-1
 612.308 1556 l 1,6,-1
 492.998 874 l 1,7,8
 557.791 982 557.791 982 640.312 1037 c 0,9,10
 723.735 1092 723.735 1092 820.936 1092 c 0,11,12
 981.135 1092 981.135 1092 1036.36 991 c 0,13,14
 1093.04 888 1093.04 888 1055.96 676 c 2,15,-1
 999.103 351 l 2,16,17
 976.186 220 976.186 220 1003.49 160 c 0,18,19
 1031.69 100 1031.69 100 1114.32 99 c 0,20,21
 1226.82 99 1226.82 99 1350.36 229 c 0,22,23
 1450.97 336 1450.97 336 1484.22 526 c 0,24,25
 1511.16 680 1511.16 680 1474.28 783 c 0,26,27
 1437.22 885 1437.22 885 1339.07 931 c 1,28,-1
 1349.39 990 l 1,29,-1
 1450.19 990 l 1,30,31
 1577.6 926 1577.6 926 1635.12 797 c 0,32,33
 1693.38 667 1693.38 667 1665.92 510 c 0,34,35
 1646.5 399 1646.5 399 1591.91 303 c 0,36,37
 1536.06 205 1536.06 205 1450.22 131 c 0,38,39
 1373.69 64 1373.69 64 1282.97 29 c 0,40,41
 1191.17 -7 1191.17 -7 1095.77 -7 c 0,42,43
 948.174 -7 948.174 -7 871.344 94 c 0,44,45
 802.162 177 802.162 177 832.603 351 c 2,46,-1
 879.312 618 l 2,47,48
 913.426 813 913.426 813 883.547 884 c 0,49,50
 852.942 956 852.942 956 743.143 956 c 0,51,52
 627.942 956 627.942 956 551.373 863 c 0,53,54
 474.804 770 474.804 770 443.663 592 c 2,55,-1
 358.643 106 l 1,56,-1
 502.643 106 l 1,57,-1
 484.098 0 l 1,58,-1
 25.0977 0 l 1,0,-1
EndSplineSet
EndChar
StartChar: uni0196
Encoding: 406 406 406
Width: 780
Flags: W
TeX: 117 0 0 0
Fore
439.036 351 m 2,0,-1
 416.119 220 416.119 220 443.422 160 c 0,7,8
 472.351 99 472.351 99 554.251 99 c 2,9,-1
 565.95 99 l 1,0,0
 548.632 0 l 1,0,0
 536.932 0 l 1,10,11
 356.032 0 356.032 0 309.679 54 c 0,12,13
 222.047 155 222.047 155 256.336 351 c 2,5,-1
 437.402 1386 l 1,6,-1
 266.402 1386 l 1,7,-1
 285.119 1493 l 1,8,-1
 809.819 1493 l 1,9,-1
 791.102 1386 l 1,10,-1
 620.102 1386 l 1,11,-1
 439.036 351 l 2,0,-1
EndSplineSet
EndChar
StartChar: uni0197
Encoding: 407 407 407
Width: 768
Flags: W
TeX: 117 0 0 0
Fore
383.799 106 m 1,0,-1
 554.799 106 l 1,1,-1
 536.257 0 l 1,2,-1
 11.5557 0 l 1,3,-1
 30.0986 106 l 1,4,-1
 201.099 106 l 1,5,-1
 292.419 628 l 1,6,-1
 53.9189 628 l 1,7,-1
 83.6592 798 l 1,8,-1
 322.16 798 l 1,9,-1
 425.026 1386 l 1,10,-1
 254.026 1386 l 1,11,-1
 272.743 1493 l 1,12,-1
 797.443 1493 l 1,13,-1
 778.727 1386 l 1,14,-1
 607.727 1386 l 1,15,-1
 504.859 798 l 1,16,-1
 743.359 798 l 1,17,-1
 713.619 628 l 1,18,-1
 475.119 628 l 1,19,-1
 383.799 106 l 1,0,-1
EndSplineSet
EndChar
StartChar: uni0198
Encoding: 408 408 408
Width: 1466
Flags: W
TeX: 117 0 0 0
Fore
1232.98 1386 m 2,9,10
 1390 1517 1390 1517 1501.6 1517 c 0,11,12
 1561.9 1517 1561.9 1517 1617.43 1500 c 0,13,14
 1678.18 1482 1678.18 1482 1724.06 1451 c 1,15,-1
 1685.75 1232 l 1,16,-1
 1600.25 1232 l 1,17,18
 1617.04 1328 1617.04 1328 1580.81 1373 c 0,19,20
 1554.16 1411 1554.16 1411 1500.13 1416 c 0,21,22
 1421.83 1416 1421.83 1416 1343.83 1356 c 2,15,-1
 706.992 823 l 1,16,-1
 1226.86 106 l 1,17,-1
 1379.86 106 l 1,18,-1
 1361.31 0 l 1,19,-1
 1049.01 0 l 1,20,-1
 535.849 709 l 1,21,-1
 430.359 106 l 1,22,-1
 601.359 106 l 1,23,-1
 582.814 0 l 1,24,-1
 58.1152 0 l 1,0,-1
 76.6592 106 l 1,1,-1
 247.659 106 l 1,2,-1
 471.585 1386 l 1,3,-1
 300.585 1386 l 1,4,-1
 319.304 1493 l 1,5,-1
 844.003 1493 l 1,6,-1
 825.285 1386 l 1,7,-1
 654.285 1386 l 1,8,-1
 555.441 821 l 1,9,-1
 1232.98 1386 l 2,9,10
EndSplineSet
EndChar
StartChar: uni0199
Encoding: 409 409 409
Width: 1175
Flags: W
TeX: 117 0 0 0
Fore
396.297 543 m 1,8,-1
 870.849 956 l 1,9,-1
 733.148 956 l 1,10,-1
 751.867 1063 l 1,11,-1
 1184.77 1063 l 1,12,-1
 1166.05 956 l 1,13,-1
 1002.25 956 l 1,14,-1
 666.766 664 l 1,15,-1
 932.747 106 l 1,16,-1
 1070.45 106 l 1,17,-1
 1051.9 0 l 1,18,-1
 580.304 0 l 1,19,-1
 598.847 106 l 1,20,-1
 735.647 106 l 1,21,-1
 525.896 543 l 1,22,-1
 371.779 408 l 1,23,-1
 318.947 106 l 1,24,-1
 468.347 106 l 1,25,-1
 449.804 0 l 1,0,-1
 -14.5957 0 l 1,1,-1
 3.94727 106 l 1,2,-1
 153.347 106 l 1,3,-1
 345.608 1205 l 2,21,22
 373.949 1367 373.949 1367 478.769 1462 c 0,23,24
 582.514 1556 582.514 1556 736.414 1556 c 0,25,26
 805.714 1556 805.714 1556 857.814 1540 c 0,27,28
 913.34 1523 913.34 1523 963.368 1490 c 1,29,-1
 925.055 1271 l 1,30,-1
 839.555 1271 l 1,31,32
 856.35 1367 856.35 1367 819.222 1412 c 0,33,34
 789.294 1457 789.294 1457 715.494 1457 c 0,35,36
 633.594 1457 633.594 1457 584.223 1396 c 0,37,38
 535.201 1337 535.201 1337 512.108 1205 c 2,39,-1
 396.297 543 l 1,8,-1
EndSplineSet
EndChar
StartChar: uni019A
Encoding: 410 410 410
Width: 613
Flags: W
TeX: 117 0 0 0
Fore
23.0186 464 m 1,0,-1
 41.5625 570 l 1,1,-1
 199.962 570 l 1,2,-1
 353.911 1450 l 1,3,-1
 194.611 1450 l 1,4,-1
 213.155 1556 l 1,5,-1
 538.056 1556 l 1,6,-1
 365.562 570 l 1,7,-1
 522.162 570 l 1,8,-1
 503.618 464 l 1,9,-1
 347.019 464 l 1,10,-1
 284.389 106 l 1,11,-1
 440.988 106 l 1,12,-1
 422.444 0 l 1,13,-1
 -59.0547 0 l 1,14,-1
 -40.5117 106 l 1,15,-1
 118.788 106 l 1,16,-1
 181.419 464 l 1,17,-1
 23.0186 464 l 1,0,-1
EndSplineSet
EndChar
StartChar: uni019B
Encoding: 411 411 411
Width: 1220
Flags: W
TeX: 117 0 0 0
Fore
622.442 1307 m 2,0,1
 605.237 1399 605.237 1399 579.886 1429 c 0,2,3
 553.809 1460 553.809 1460 506.108 1460 c 0,4,5
 452.108 1460 452.108 1460 421.835 1431 c 0,6,7
 390.487 1401 390.487 1401 373.191 1333 c 1,8,-1
 288.591 1333 l 1,9,-1
 324.104 1536 l 1,10,11
 371.729 1551 371.729 1551 417.228 1559 c 0,12,13
 463.628 1567 463.628 1567 505.928 1567 c 0,14,15
 605.827 1567 605.827 1567 652.68 1521 c 0,16,17
 699.707 1476 699.707 1476 723.015 1352 c 1,18,-1
 872.46 1450 l 1,19,-1
 911.414 1364 l 1,20,-1
 740.996 1249 l 1,21,-1
 943.512 107 l 1,22,-1
 1050.61 107 l 1,23,-1
 1031.89 0 l 1,24,-1
 672.793 0 l 1,25,-1
 691.512 107 l 1,26,-1
 834.612 107 l 1,27,-1
 708.319 841 l 1,28,-1
 296.412 107 l 1,29,-1
 449.412 107 l 1,30,-1
 430.692 0 l 1,31,-1
 -9.40723 0 l 1,32,-1
 9.31152 107 l 1,33,-1
 118.212 107 l 1,34,-1
 660.83 1084 l 1,35,-1
 643.949 1183 l 1,36,-1
 370.936 996 l 1,37,-1
 331.08 1082 l 1,38,-1
 625.793 1285 l 1,39,-1
 622.442 1307 l 2,0,1
EndSplineSet
EndChar
StartChar: uni019C
Encoding: 412 412 412
Width: 1856
Flags: W
TeX: 117 0 0 0
Fore
826.112 207 m 1,0,1
 757.944 90 757.944 90 673.285 30.5 c 128,-1,2
 588.626 -29 588.626 -29 489.626 -29 c 0,3,4
 340.279 -29 340.279 -29 283.633 74.5 c 128,-1,5
 227.708 176.68 227.708 176.68 264.502 387 c 2,6,-1
 439.795 1389 l 1,7,-1
 290.395 1389 l 1,8,-1
 308.938 1495 l 1,9,-1
 767.938 1495 l 1,10,-1
 749.395 1389 l 1,11,-1
 605.395 1389 l 1,12,-1
 433.775 408 l 2,13,14
 405.261 245 405.261 245 436.389 176 c 128,-1,15
 467.519 107 467.519 107 567.418 107 c 0,16,17
 678.494 107 678.494 107 752.438 200 c 128,-1,18
 826.864 293.607 826.864 293.607 857.896 471 c 2,19,-1
 1018.49 1389 l 1,20,-1
 874.494 1389 l 1,21,-1
 893.038 1495 l 1,22,-1
 1346.64 1495 l 1,23,-1
 1328.09 1389 l 1,24,-1
 1184.09 1389 l 1,25,-1
 1011.25 401 l 2,26,27
 983.436 242.004 983.436 242.004 1014.83 174.5 c 128,-1,28
 1046.22 107 1046.22 107 1146.12 107 c 0,29,30
 1257.2 107 1257.2 107 1331.14 200 c 128,-1,31
 1405.56 293.609 1405.56 293.609 1436.59 471 c 2,32,-1
 1597.19 1389 l 1,33,-1
 1453.19 1389 l 1,34,-1
 1471.74 1495 l 1,35,-1
 1930.74 1495 l 1,36,-1
 1912.19 1389 l 1,37,-1
 1762.79 1389 l 1,38,-1
 1538.17 105 l 1,39,-1
 1696.57 105 l 1,40,-1
 1678.2 0 l 1,41,-1
 1354.2 0 l 1,42,-1
 1387.27 189 l 1,43,44
 1322.82 83 1322.82 83 1241.92 27 c 128,-1,45
 1161.02 -29 1161.02 -29 1071.02 -29 c 0,46,47
 959.426 -29 959.426 -29 895.485 32.5 c 128,-1,48
 831.544 94 831.544 94 826.112 207 c 1,0,1
EndSplineSet
EndChar
StartChar: uni019D
Encoding: 413 413 413
Width: 1688
Flags: W
TeX: 117 0 0 0
Fore
-264.95 -358 m 1,0,-1
 -223.838 -123 l 1,1,-1
 -121.238 -123 l 1,2,3
 -138.558 -222 -138.558 -222 -104.655 -270 c 0,4,5
 -73.627 -319 -73.627 -319 5.57324 -319 c 0,6,7
 112.673 -319 112.673 -319 168.093 -244 c 0,8,9
 223.515 -169 223.515 -169 261.65 49 c 2,10,-1
 495.549 1386 l 1,11,-1
 314.649 1386 l 1,12,-1
 333.368 1493 l 1,13,-1
 678.068 1493 l 1,14,-1
 1277.49 315 l 1,15,-1
 1464.85 1386 l 1,16,-1
 1284.85 1386 l 1,17,-1
 1303.57 1493 l 1,18,-1
 1775.17 1493 l 1,19,-1
 1756.45 1386 l 1,20,-1
 1575.55 1386 l 1,21,-1
 1328 -29 l 1,22,-1
 1219.11 -29 l 1,23,-1
 579.509 1228 l 1,24,-1
 371.853 41 l 2,25,26
 328.642 -206 328.642 -206 220.298 -316 c 0,27,28
 111.954 -426 111.954 -426 -60.8457 -426 c 0,29,30
 -78.8457 -426 -78.8457 -426 -141.571 -409 c 0,31,32
 -205.198 -392 -205.198 -392 -264.95 -358 c 1,0,-1
EndSplineSet
EndChar
StartChar: uni019E
Encoding: 414 414 414
Width: 1247
Flags: W
TeX: 117 0 0 0
Fore
77.3662 0 m 1,0,-1
 95.9102 106 l 1,1,-1
 245.31 106 l 1,2,-1
 394.011 956 l 1,3,-1
 235.61 956 l 1,4,-1
 254.329 1063 l 1,5,-1
 578.329 1063 l 1,6,-1
 545.266 874 l 1,7,8
 610.059 982 610.059 982 692.581 1037 c 128,-1,9
 776.003 1092 776.003 1092 873.202 1092 c 0,10,11
 1031.6 1092 1031.6 1092 1088.63 991 c 128,-1,12
 1145.66 890 1145.66 890 1108.22 676 c 2,13,-1
 934.159 -319 l 1,14,-1
 1081.76 -319 l 1,15,-1
 1063.04 -426 l 1,16,-1
 605.841 -426 l 1,17,-1
 624.559 -319 l 1,18,-1
 767.659 -319 l 1,19,-1
 931.579 618 l 2,20,21
 965.691 813 965.691 813 935.265 886 c 128,-1,22
 904.66 958 904.66 958 795.76 958 c 0,23,24
 680.56 958 680.56 958 603.815 864 c 128,-1,25
 527.246 771 527.246 771 495.932 592 c 2,26,-1
 410.91 106 l 1,27,-1
 554.91 106 l 1,28,-1
 536.365 0 l 1,29,-1
 77.3662 0 l 1,0,-1
EndSplineSet
EndChar
StartChar: uni019F
Encoding: 415 415 415
Width: 1595
Flags: W
TeX: 117 0 0 0
Fore
704.517 -29 m 0,0,1
 567.716 -29 567.716 -29 461.714 21 c 0,2,3
 355.711 71 355.711 71 285.38 168 c 0,4,5
 204.174 280 204.174 280 179.966 422 c 0,6,7
 155.757 564 155.757 564 187.421 745 c 0,8,9
 219.087 926 219.087 926 293.066 1068.5 c 0,10,11
 367.045 1211 367.045 1211 487.438 1323 c 0,12,13
 592.783 1421 592.783 1421 714.843 1470.5 c 0,14,15
 836.902 1520 836.902 1520 975.503 1520 c 0,16,17
 1268 1520 1268 1520 1410.74 1307 c 0,18,19
 1553.48 1094 1553.48 1094 1492.42 745 c 0,20,21
 1461.11 566 1461.11 566 1386.5 422.5 c 0,22,23
 1312.32 279.807 1312.32 279.807 1191.68 168 c 0,24,25
 1085.63 69.7139 1085.63 69.7139 964.276 20.5 c 0,26,27
 842.216 -29 842.216 -29 704.517 -29 c 0,0,1
723.235 78 m 0,28,29
 943.735 78 943.735 78 1085.71 246.5 c 0,30,31
 1216.51 401.724 1216.51 401.724 1275.8 694 c 1,32,-1
 385.299 694 l 1,33,34
 342.332 401.724 342.332 401.724 418.813 246.5 c 0,35,36
 501.835 78 501.835 78 723.235 78 c 0,28,29
1296.47 816 m 1,37,38
 1334.17 1094.57 1334.17 1094.57 1260.31 1244.5 c 0,39,40
 1177.28 1413 1177.28 1413 956.783 1413 c 0,41,42
 735.384 1413 735.384 1413 593.406 1244.5 c 0,43,44
 467.077 1094.57 467.077 1094.57 407.311 816 c 1,45,-1
 1296.47 816 l 1,37,38
EndSplineSet
EndChar
StartChar: uni01A2
Encoding: 418 418 418
Width: 2021
Flags: W
TeX: 117 0 0 0
Fore
751.379 -29 m 0,0,1
 614.579 -29 614.579 -29 508.576 21 c 0,2,3
 402.573 71 402.573 71 332.242 168 c 0,4,5
 251.036 280 251.036 280 226.827 422 c 0,6,7
 202.62 564 202.62 564 234.283 745 c 0,8,9
 265.948 926 265.948 926 339.928 1068.5 c 0,10,11
 413.906 1211 413.906 1211 534.301 1323 c 0,12,13
 639.646 1421 639.646 1421 761.705 1470.5 c 0,14,15
 883.764 1520 883.764 1520 1022.37 1520 c 0,16,17
 1205.73 1520 1205.73 1520 1330.25 1436.29 c 1,18,19
 1389.09 1461.95 1389.09 1461.95 1446.21 1476 c 0,20,21
 1515.34 1493 1515.34 1493 1579.24 1493 c 0,22,23
 1777.24 1493 1777.24 1493 1847.1 1383 c 0,24,25
 1916.96 1273 1916.96 1273 1873.74 1026 c 2,26,-1
 1656.81 -214 l 1,27,-1
 1827.81 -214 l 1,28,-1
 1809.09 -321 l 1,29,-1
 1246.59 -321 l 1,30,-1
 1265.31 -214 l 1,31,-1
 1474.11 -214 l 1,32,-1
 1689.64 1018 l 2,33,34
 1727.78 1236 1727.78 1236 1698.6 1311 c 0,35,36
 1669.42 1386 1669.42 1386 1562.32 1386 c 0,37,38
 1483.36 1386 1483.36 1386 1435.32 1337.79 c 1,39,40
 1446.88 1322.99 1446.88 1322.99 1457.6 1307 c 0,41,42
 1600.34 1094 1600.34 1094 1539.28 745 c 0,43,44
 1507.97 566 1507.97 566 1433.36 422.5 c 0,45,46
 1359.18 279.807 1359.18 279.807 1238.54 168 c 0,47,48
 1132.49 69.7139 1132.49 69.7139 1011.13 20.5 c 0,49,50
 889.078 -29 889.078 -29 751.379 -29 c 0,0,1
770.098 78 m 0,51,52
 990.598 78 990.598 78 1132.57 246.5 c 0,53,54
 1274.56 415 1274.56 415 1332.28 745 c 0,55,56
 1390.19 1076 1390.19 1076 1307.17 1244.5 c 0,57,58
 1224.15 1413 1224.15 1413 1003.65 1413 c 0,59,60
 782.245 1413 782.245 1413 640.268 1244.5 c 0,61,62
 498.29 1076 498.29 1076 440.384 745 c 0,63,64
 382.653 415 382.653 415 465.676 246.5 c 0,65,66
 548.698 78 548.698 78 770.098 78 c 0,51,52
EndSplineSet
EndChar
StartChar: uni01A3
Encoding: 419 419 419
Width: 1568
Flags: W
TeX: 117 0 0 0
Fore
986.018 1033.3 m 1,22,-1
 986.458 1035.35 986.458 1035.35 1028.24 1046.5 c 128,-1,21
 1090.08 1063 1090.08 1063 1154.88 1063 c 0,19,20
 1308.78 1063 1308.78 1063 1380.16 969.5 c 128,-1,18
 1451.56 875.994 1451.56 875.994 1422.87 712 c 2,16,17
 1242.5 -319 l 1,0,0
 1400.9 -319 l 1,0,0
 1382.19 -426 l 1,15,-1
 901.585 -426 l 1,14,-1
 920.303 -319 l 1,13,-1
 1076.9 -319 l 1,12,-1
 1257.27 712 l 2,30,-1
 1279.84 841 1279.84 841 1251.45 902.5 c 128,-1,29
 1223.05 964 1223.05 964 1141.15 964 c 0,27,28
 1083.07 964 1083.07 964 1069.71 950.956 c 128,-1,26
 1077.83 939 l 128,-1,20
 1177.51 786 1177.51 786 1133.08 532 c 0,21,22
 1088.64 278 1088.64 278 935.34 124.5 c 128,-1,23
 782.037 -29 782.037 -29 572.337 -29 c 0,12,13
 363.537 -29 363.537 -29 263.49 124.5 c 128,-1,14
 163.443 278 163.443 278 207.879 532 c 0,15,16
 252.314 786 252.314 786 405.531 939 c 128,-1,17
 558.747 1092 558.747 1092 768.446 1092 c 0,18,19
 898.335 1092 898.335 1092 986.018 1033.3 c 1,22,-1
589.655 70 m 0,0,1
 722.855 70 722.855 70 811.273 187 c 128,-1,2
 899.692 304 899.692 304 939.579 532 c 0,3,4
 979.465 760 979.465 760 931.896 876.5 c 128,-1,5
 884.327 993 884.327 993 751.127 993 c 0,6,7
 617.927 993 617.927 993 529.597 876.5 c 128,-1,8
 441.266 760 441.266 760 401.379 532 c 0,9,10
 361.492 304 361.492 304 409.423 187 c 128,-1,11
 457.355 70 457.355 70 589.655 70 c 0,0,1
EndSplineSet
EndChar
StartChar: uni01A4
Encoding: 420 420 420
Width: 1302
Flags: W
TeX: 117 0 0 0
Fore
465.256 1493 m 2,12,13
 929.655 1493 l 2,15,16
 1131.25 1493 1131.25 1493 1229.39 1380 c 128,-1,17
 1327.34 1266 1327.34 1266 1293.58 1073 c 0,18,19
 1259.99 881 1259.99 881 1122.14 767 c 128,-1,20
 984.309 653 984.309 653 782.704 653 c 2,21,-1
 501.005 653 l 1,22,-1
 405.312 106 l 1,23,-1
 613.211 106 l 1,24,-1
 594.669 0 l 1,25,-1
 33.0684 0 l 1,9,-1
 51.6113 106 l 1,10,-1
 222.611 106 l 1,11,-1
 446.538 1386 l 0,20,21
 242.238 1386 242.238 1386 165.469 1297 c 128,-1,19
 85.6475 1206 85.6475 1206 53.1084 1020 c 1,17,18
 -62.9912 1020 l 1,16,-1
 -2.81055 1364 l 1,15,-1
 98.1602 1437 98.1602 1437 270.583 1476 c 128,-1,14
 377.056 1493 377.056 1493 465.256 1493 c 2,12,13
519.724 760 m 1,0,-1
 757.323 760 l 2,1,2
 891.424 760 891.424 760 975.615 840 c 128,-1,3
 1059.99 921 1059.99 921 1086.58 1073 c 0,4,5
 1113.35 1226 1113.35 1226 1057.15 1306 c 128,-1,6
 1000.94 1386 1000.94 1386 866.838 1386 c 2,7,-1
 629.238 1386 l 1,8,-1
 519.724 760 l 1,0,-1
EndSplineSet
EndChar
StartChar: uni01A5
Encoding: 421 421 421
Width: 1235
Flags: W
TeX: 117 0 0 0
Fore
444.297 584 m 2,0,-1
 425.929 479 l 2,1,2
 392.339 287 392.339 287 441.271 186 c 0,3,4
 489.477 86 489.477 86 615.477 86 c 0,5,6
 742.376 86 742.376 86 826.945 199 c 0,7,8
 912.413 312 912.413 312 950.901 532 c 0,9,10
 989.562 753 989.562 753 943.457 865 c 0,11,12
 898.25 977 898.25 977 771.35 977 c 0,13,14
 645.35 977 645.35 977 561.98 876 c 0,15,16
 477.712 775 477.712 775 444.297 584 c 2,0,-1
370.691 1115 m 2,17,18
 399.732 1281 399.732 1281 503.128 1373 c 0,19,20
 607.597 1466 607.597 1466 761.497 1466 c 0,21,22
 821.797 1466 821.797 1466 881.822 1449 c 0,23,24
 938.423 1433 938.423 1433 988.446 1400 c 1,25,-1
 950.138 1181 l 1,26,-1
 864.638 1181 l 1,27,28
 881.433 1277 881.433 1277 845.205 1322 c 0,29,30
 814.377 1367 814.377 1367 740.577 1367 c 0,31,32
 658.677 1367 658.677 1367 608.231 1305 c 0,33,34
 559.935 1245 559.935 1245 537.191 1115 c 2,35,-1
 499.054 897 l 1,36,37
 565.149 997 565.149 997 648.971 1044 c 0,38,39
 732.068 1092 732.068 1092 842.769 1092 c 0,40,41
 1019.17 1092 1019.17 1092 1103.66 937 c 0,42,43
 1188.14 782 1188.14 782 1144.4 532 c 0,44,45
 1100.67 282 1100.67 282 961.771 126 c 0,46,47
 823.058 -29 823.058 -29 646.657 -29 c 0,48,49
 535.958 -29 535.958 -29 469.48 18 c 0,50,51
 402.277 66 402.277 66 371.171 166 c 1,52,-1
 286.325 -319 l 1,53,-1
 442.925 -319 l 1,54,-1
 424.206 -426 l 1,55,-1
 -57.2939 -426 l 1,56,-1
 -38.5752 -319 l 1,57,-1
 119.825 -319 l 1,58,-1
 370.691 1115 l 2,17,18
EndSplineSet
EndChar
StartChar: uni01A6
Encoding: 422 422 422
Width: 1375
Flags: W
TeX: 117 0 0 0
Fore
81.8184 0 m 1,0,-1
 100.362 106 l 1,1,-1
 271.362 106 l 1,2,-1
 495.288 1386 l 1,3,-1
 324.288 1386 l 1,4,-1
 343.007 1493 l 1,5,-1
 904.607 1493 l 1,6,-1
 885.888 1386 l 1,7,-1
 677.988 1386 l 1,8,-1
 639.676 1167 l 1,9,-1
 921.376 1167 l 2,10,11
 1122.98 1167 1122.98 1167 1221.02 1053.5 c 0,12,13
 1319.06 940 1319.06 940 1285.47 748 c 0,14,15
 1251.53 554 1251.53 554 1113.24 440 c 0,16,17
 1019.59 362.799 1019.59 362.799 897.32 337.879 c 1,18,19
 937.916 286.242 937.916 286.242 954.508 204 c 2,20,-1
 1035 -195 l 2,21,22
 1052.37 -281.117 1052.37 -281.117 1077.02 -317.5 c 0,23,24
 1097.68 -348 1097.68 -348 1134.24 -348 c 0,25,26
 1172.94 -348 1172.94 -348 1203.75 -318.5 c 0,27,28
 1234.56 -289 1234.56 -289 1251.86 -221 c 1,29,-1
 1336.46 -221 l 1,30,-1
 1300.94 -424 l 1,31,32
 1253.32 -439 1253.32 -439 1207.37 -447 c 0,33,34
 1161.42 -455 1161.42 -455 1106.52 -455 c 0,35,36
 1018.19 -455 1018.19 -455 965.018 -415 c 0,37,38
 888.039 -349.006 888.039 -349.006 866.934 -240 c 2,39,-1
 785.608 180 l 2,40,41
 757.344 325.971 757.344 325.971 608.71 326 c 0,42,-1
 492.55 326 l 1,43,-1
 454.062 106 l 1,44,-1
 661.963 106 l 1,45,-1
 643.418 0 l 1,46,-1
 81.8184 0 l 1,0,-1
511.444 434 m 1,47,-1
 749.044 434 l 2,48,49
 883.144 434 883.144 434 967.427 514.5 c 0,50,51
 1051.71 595 1051.71 595 1078.47 748 c 0,52,53
 1105.07 900 1105.07 900 1048.95 980.5 c 0,54,55
 992.829 1061 992.829 1061 858.732 1061 c 2,56,-1
 621.133 1061 l 1,57,-1
 511.444 434 l 1,47,-1
EndSplineSet
EndChar
StartChar: uni01A7
Encoding: 423 423 423
Width: 1334
Flags: W
TeX: 117 0 0 0
Fore
1065.17 72 m 1,0,-1
 937.458 21 937.458 21 818.784 -4 c 128,-1,41
 699.21 -29 699.21 -29 588.51 -29 c 0,39,40
 341.01 -29 341.01 -29 235.153 81 c 128,-1,38
 129.298 191 129.298 191 167.26 408 c 0,36,37
 195.076 567 195.076 567 289.096 662 c 128,-1,35
 383.84 756 383.84 756 577.211 817 c 2,33,34
 753.333 872 l 2,32,-1
 944.729 932 944.729 932 1011.2 993 c 128,-1,31
 1077.68 1054 1077.68 1054 1096.39 1161 c 0,29,30
 1117.91 1284 1117.91 1284 1055.3 1348 c 128,-1,28
 991.979 1413 991.979 1413 849.777 1413 c 0,26,27
 686.877 1413 686.877 1413 595.257 1342 c 128,-1,25
 502.91 1272 502.91 1272 459.97 1114 c 1,23,24
 358.27 1114 l 1,22,-1
 413.901 1432 l 1,21,-1
 547.424 1475 547.424 1475 663.047 1498 c 128,-1,20
 778.496 1520 778.496 1520 872.097 1520 c 0,18,19
 1091.7 1520 1091.7 1520 1194.83 1415 c 128,-1,17
 1297.96 1310 1297.96 1310 1264.72 1120 c 0,15,16
 1235.16 951 1235.16 951 1139.88 854 c 128,-1,14
 1043.72 757 1043.72 757 839.744 692 c 2,12,13
 652.122 633 l 2,11,-1
 478.7 578 478.7 578 417.254 520 c 128,-1,10
 356.708 462 356.708 462 337.813 354 c 0,8,9
 314.196 219 314.196 219 386.374 148 c 128,-1,7
 457.829 78 457.829 78 618.029 78 c 0,5,6
 789.929 78 789.929 78 888.874 160 c 128,-1,4
 986.749 241 986.749 241 1021.16 412 c 1,2,3
 1124.66 412 l 1,1,-1
 1065.17 72 l 1,0,-1
EndSplineSet
EndChar
StartChar: uni01A8
Encoding: 424 424 424
Width: 998
Flags: W
TeX: 117 0 0 0
Fore
821.807 59 m 1,0,-1
 725.909 15 725.909 15 633.86 -7 c 128,-1,41
 541.812 -29 541.812 -29 449.111 -29 c 0,39,40
 266.412 -29 266.412 -29 177.231 58 c 128,-1,38
 88.7764 144 88.7764 144 115.193 295 c 0,36,37
 134.611 406 134.611 406 207.157 476 c 128,-1,35
 278.979 547 278.979 547 423.1 594 c 2,33,34
 562.373 639 l 2,32,-1
 691.221 681 691.221 681 738.893 722 c 128,-1,31
 786.392 762 786.392 762 798.112 829 c 0,29,30
 812.458 911 812.458 911 765.63 952 c 128,-1,28
 719.703 993 719.703 993 615.302 993 c 0,26,27
 510.002 993 510.002 993 438.656 935 c 128,-1,25
 367.309 877 367.309 877 345.691 774 c 1,23,24
 250.291 774 l 1,22,-1
 290.877 1006 l 1,21,-1
 387.324 1048 387.324 1048 474.873 1070 c 128,-1,20
 562.422 1092 562.422 1092 638.021 1092 c 0,18,19
 808.122 1092 808.122 1092 889.901 1009 c 128,-1,17
 971.679 926 971.679 926 946.141 780 c 0,15,16
 928.296 678 928.296 678 860.949 612 c 128,-1,14
 794.503 546 794.503 546 663.506 502 c 1,12,13
 535.934 457 l 1,11,-1
 389.661 408 389.661 408 338.939 365 c 128,-1,10
 289.116 322 289.116 322 276.871 252 c 0,8,9
 261.301 163 261.301 163 311.578 116 c 128,-1,7
 362.031 70 362.031 70 473.632 70 c 0,5,6
 597.831 70 597.831 70 672.053 129 c 128,-1,4
 745.374 188 745.374 188 769.792 307 c 1,2,3
 865.191 307 l 1,1,-1
 821.807 59 l 1,0,-1
EndSplineSet
EndChar
StartChar: uni01AA
Encoding: 426 426 426
Width: 638
Flags: W
TeX: 117 0 0 0
Fore
361.527 1459 m 0,0,1
 218.428 1459 218.428 1459 199.708 1352 c 0,8,9
 178.19 1229 178.19 1229 458.09 1229 c 0,6,7
 470.69 1229 470.69 1229 483.466 1230 c 1,4,5
 507.285 1325 507.285 1325 472.182 1397 c 0,2,3
 441.628 1459 441.628 1459 361.527 1459 c 0,0,1
657.185 1333 m 1,10,11
 695.757 1394 695.757 1394 712.375 1489 c 2,47,48
 723.572 1553 l 1,46,-1
 813.572 1553 l 1,45,-1
 801.476 1489 l 2,44,-1
 760.289 1269 760.289 1269 635.443 1183 c 1,42,43
 460.875 643 460.875 643 232.818 -105 c 0,40,41
 199.35 -214 199.35 -214 238.278 -295 c 0,38,39
 266.132 -357 266.132 -357 348.032 -357 c 0,36,37
 421.832 -357 421.832 -357 468.58 -311 c 0,34,35
 514.076 -267 514.076 -267 537.172 -171 c 1,32,33
 622.672 -171 l 1,31,-1
 584.534 -389 l 1,30,-1
 522.786 -423 522.786 -423 461.487 -439 c 0,28,29
 399.288 -455 399.288 -455 334.488 -455 c 0,26,27
 180.588 -455 180.588 -455 109.558 -362 c 0,24,25
 21.6758 -247 21.6758 -247 66.3184 -105 c 1,22,23
 64.2666 -91 64.2666 -91 452.297 1129 c 1,20,21
 447.797 1129 447.797 1129 444.197 1129 c 0,18,19
 -40.0029 1129 -40.0029 1129 4.7334 1359 c 0,16,17
 43.1465 1558 43.1465 1558 380.646 1558 c 0,14,15
 525.546 1558 525.546 1558 601.077 1465 c 0,12,13
 648.905 1404 648.905 1404 657.185 1333 c 1,10,11
EndSplineSet
EndChar
StartChar: uni01AB
Encoding: 427 427 427
Width: 793
Flags: W
TeX: 117 0 0 0
Fore
419.095 956 m 1,0,-1
 273.295 956 l 1,1,-1
 292.014 1063 l 1,2,-1
 437.814 1063 l 1,3,-1
 495.545 1393 l 1,4,-1
 662.045 1393 l 1,5,-1
 604.314 1063 l 1,6,-1
 915.714 1063 l 1,7,-1
 896.995 956 l 1,8,-1
 585.595 956 l 1,9,-1
 467.51 281 l 2,10,11
 443.893 146 443.893 146 460.645 108 c 0,12,13
 477.396 70 477.396 70 540.396 70 c 0,14,15
 605.196 70 605.196 70 642.332 112.5 c 0,16,17
 679.467 155 679.467 155 697.886 250 c 1,18,-1
 822.986 250 l 1,19,-1
 761.057 -104 l 2,20,21
 732.366 -268 732.366 -268 628.259 -361.5 c 0,22,23
 524.152 -455 524.152 -455 370.252 -455 c 0,24,25
 305.452 -455 305.452 -455 249.389 -438.5 c 0,26,27
 193.325 -422 193.325 -422 143.298 -389 c 1,28,-1
 181.61 -170 l 1,29,-1
 267.11 -170 l 1,30,31
 256.616 -266 256.616 -266 286.994 -311 c 0,32,33
 317.371 -356 317.371 -356 391.172 -356 c 0,34,35
 473.044 -356 473.044 -356 522.98 -294.5 c 0,36,37
 571.734 -234.457 571.734 -234.457 594.557 -104 c 2,38,-1
 609.8 -16.8691 l 1,39,40
 564.206 -29 564.206 -29 508.678 -29 c 0,41,42
 365.577 -29 365.577 -29 318.51 41.5 c 0,43,44
 271.444 112 271.444 112 301.01 281 c 2,45,-1
 419.095 956 l 1,0,-1
EndSplineSet
EndChar
StartChar: uni01AC
Encoding: 428 428 428
Width: 1310
Flags: W
TeX: 117 0 0 0
Fore
735.84 1493 m 10,0,0
 1423.44 1493 l 17,8,-1
 1361.86 1141 l 1,9,-1
 1251.16 1141 l 1,10,-1
 1291.92 1374 l 1,11,-1
 896.823 1374 l 1,12,-1
 674.996 106 l 1,13,-1
 846.896 106 l 1,14,-1
 828.353 0 l 1,15,-1
 302.753 0 l 1,0,-1
 321.296 106 l 1,1,-1
 493.195 106 l 1,2,-1
 715.023 1374 l 0,20,21
 510.723 1374 510.723 1374 433.053 1285 c 128,-1,19
 354.133 1194 354.133 1194 321.594 1008 c 1,17,18
 205.493 1008 l 1,16,-1
 267.773 1364 l 1,15,-1
 372.869 1440 372.869 1440 541.167 1476 c 128,-1,14
 652.14 1493 652.14 1493 735.84 1493 c 10,0,0
EndSplineSet
EndChar
StartChar: uni01AD
Encoding: 429 429 429
Width: 795
Flags: W
TeX: 117 0 0 0
Fore
472.277 1063 m 1,0,-1
 783.677 1063 l 1,7,-1
 764.958 956 l 1,8,-1
 453.558 956 l 1,9,-1
 335.473 281 l 2,10,11
 311.854 146 311.854 146 328.607 108 c 128,-1,12
 345.359 70 345.359 70 408.359 70 c 0,13,14
 473.159 70 473.159 70 510.207 112 c 128,-1,15
 547.43 155 547.43 155 565.85 250 c 1,16,-1
 690.949 250 l 1,17,18
 665.583 105 665.583 105 582.762 38 c 128,-1,19
 507.14 -29 507.14 -29 376.64 -29 c 0,20,21
 233.539 -29 233.539 -29 186.562 42 c 128,-1,22
 139.407 112 139.407 112 168.973 281 c 2,23,-1
 287.058 956 l 1,0,-1
 141.258 956 l 1,1,-1
 159.978 1063 l 1,2,-1
 305.777 1063 l 1,20,-1
 330.619 1205 l 2,21,22
 358.96 1367 358.96 1367 463.778 1462 c 0,23,24
 567.524 1556 567.524 1556 721.424 1556 c 0,25,26
 790.724 1556 790.724 1556 842.825 1540 c 0,27,28
 898.351 1523 898.351 1523 948.378 1490 c 1,29,-1
 910.065 1271 l 1,30,-1
 824.565 1271 l 1,31,32
 841.36 1367 841.36 1367 804.232 1412 c 0,33,34
 774.305 1457 774.305 1457 700.505 1457 c 0,35,36
 618.604 1457 618.604 1457 569.232 1396 c 0,37,38
 520.212 1337 520.212 1337 497.119 1205 c 2,39,-1
 472.277 1063 l 1,0,-1
EndSplineSet
EndChar
StartChar: uni01AE
Encoding: 430 430 430
Width: 1312
Flags: W
TeX: 117 0 0 0
Fore
1088.57 -358 m 1,0,1
 1016.92 -392 1016.92 -392 948.247 -409 c 0,2,3
 878.673 -426 878.673 -426 814.772 -426 c 0,4,5
 616.772 -426 616.772 -426 546.916 -316 c 0,6,7
 477.061 -206 477.061 -206 521.171 41 c 2,8,-1
 754.369 1374 l 1,9,-1
 359.27 1374 l 1,10,-1
 318.507 1141 l 1,11,-1
 207.808 1141 l 1,12,-1
 269.387 1493 l 1,13,-1
 1462.79 1493 l 1,14,-1
 1401.21 1141 l 1,15,-1
 1290.51 1141 l 1,16,-1
 1331.27 1374 l 1,17,-1
 936.169 1374 l 1,18,-1
 704.369 49 l 2,19,20
 666.758 -166 666.758 -166 695.412 -244 c 0,21,22
 722.792 -319 722.792 -319 831.691 -319 c 0,23,24
 910.892 -319 910.892 -319 959.063 -270 c 0,25,26
 1007.06 -222 1007.06 -222 1027.08 -123 c 1,27,-1
 1129.68 -123 l 1,28,-1
 1088.57 -358 l 1,0,1
EndSplineSet
EndChar
StartChar: uni01B1
Encoding: 433 433 433
Width: 1619
Flags: W
TeX: 117 0 0 0
Fore
717.31 1356 m 1,0,-1
 414.909 1356 l 1,1,-1
 390.942 1219 l 1,2,-1
 285.643 1219 l 1,3,-1
 338.3 1520 l 1,4,-1
 871.1 1520 l 1,5,-1
 839.261 1338 l 1,6,7
 665.014 1268 665.014 1268 554.023 1112 c 128,-1,8
 444.107 957 444.107 957 403.52 725 c 0,9,10
 354.712 446 354.712 446 448.271 276 c 128,-1,11
 542.006 107 542.006 107 741.806 107 c 0,12,13
 941.605 107 941.605 107 1094.47 276 c 128,-1,14
 1247.51 446 1247.51 446 1296.32 725 c 0,15,16
 1337.08 958 1337.08 958 1281.4 1113 c 128,-1,17
 1225.72 1268 1225.72 1268 1076.86 1338 c 1,18,-1
 1108.7 1520 l 1,19,-1
 1639.7 1520 l 1,20,-1
 1587.04 1219 l 1,21,-1
 1481.74 1219 l 1,22,-1
 1505.71 1356 l 1,23,-1
 1205.11 1356 l 1,24,25
 1377.99 1269 1377.99 1269 1457 1093 c 128,-1,26
 1536.01 917 1536.01 917 1498.57 703 c 0,27,28
 1472.16 552 1472.16 552 1397.94 421 c 128,-1,29
 1322.82 290 1322.82 290 1205.8 187 c 0,30,31
 1100.78 96 1100.78 96 977.186 48 c 128,-1,32
 853.588 0 853.588 0 723.088 0 c 0,33,34
 592.588 0 592.588 0 486.686 48 c 128,-1,35
 380.606 95 380.606 95 307.602 187 c 0,36,37
 225.722 290 225.722 290 196.613 422 c 128,-1,38
 167.331 553 167.331 553 193.571 703 c 0,39,40
 230.834 916 230.834 916 372.324 1092 c 128,-1,41
 513.089 1269 513.089 1269 717.31 1356 c 1,0,-1
EndSplineSet
EndChar
StartChar: uni01B2
Encoding: 434 434 434
Width: 1483
Flags: W
TeX: 117 0 0 0
Fore
589.462 0 m 24,10,11
 396.128 -11.0957 396.128 -11.0957 339.71 54 c 0,12,13
 252.094 155.089 252.094 155.089 286.366 351 c 2,5,-1
 467.432 1386 l 1,6,-1
 296.432 1386 l 1,7,-1
 315.151 1493 l 1,8,-1
 839.852 1493 l 1,9,-1
 821.132 1386 l 1,10,-1
 650.132 1386 l 1,11,-1
 469.066 351 l 2,0,-1
 447.256 226.325 447.256 226.325 473.453 160 c 0,7,8
 492.114 112.753 492.114 112.753 608.182 107 c 24,9,-1
 799.427 97.5195 799.427 97.5195 960.934 276.5 c 128,-1,14
 1113.89 446 1113.89 446 1162.7 725 c 0,15,16
 1206.24 973.905 1206.24 973.905 1147.78 1113 c 128,-1,17
 1091.49 1244 1091.49 1244 959.589 1272 c 1,18,-1
 979.532 1386 l 1,19,-1
 1076.73 1386 l 1,23,-1
 1076.73 1386 l 1,24,25
 1261.68 1303.35 1261.68 1303.35 1326.79 1128 c 128,-1,26
 1402.91 919.998 1402.91 919.998 1364.95 703 c 0,27,28
 1338.53 552 1338.53 552 1263.87 421 c 128,-1,29
 1187.39 286.834 1187.39 286.834 1072.18 187 c 0,30,31
 967.157 96 967.157 96 843.561 48 c 128,-1,32
 742.59 8.78809 742.59 8.78809 589.462 0 c 24,10,11
EndSplineSet
EndChar
StartChar: uni01B3
Encoding: 435 435 435
Width: 1454
Flags: W
TeX: 117 0 0 0
Fore
683.379 106 m 17,0,0
 855.278 106 l 1,19,-1
 836.735 0 l 1,20,-1
 311.136 0 l 1,0,-1
 329.679 106 l 1,1,-1
 501.578 106 l 1,2,-1
 595.523 643 l 1,3,-1
 310.605 1386 l 1,4,-1
 184.605 1386 l 1,5,-1
 203.323 1493 l 1,6,-1
 702.823 1493 l 1,7,-1
 684.105 1386 l 1,8,-1
 527.506 1386 l 1,9,-1
 757.539 782 l 1,10,-1
 1198.91 1386 l 1,11,-1
 1334.38 1493 1334.38 1493 1457.02 1493 c 0,11,12
 1517.21 1493 1517.21 1493 1577.35 1476 c 0,13,14
 1633.95 1460 1633.95 1460 1683.98 1427 c 1,15,-1
 1645.67 1208 l 1,16,-1
 1560.17 1208 l 1,17,18
 1570.66 1304 1570.66 1304 1540.73 1349 c 0,19,20
 1509.9 1394 1509.9 1394 1436.1 1394 c 0,21,22
 1322.79 1394 1322.79 1394 1264.21 1322 c 0,23,24
 780.646 662 l 9,17,-1
 683.379 106 l 17,0,0
EndSplineSet
EndChar
StartChar: uni01B4
Encoding: 436 436 436
Width: 1449
Flags: W
TeX: 117 0 0 0
Fore
470.266 -240 m 1,15,16
 403.574 -364 403.574 -364 340.714 -409.5 c 128,-1,17
 277.854 -455 277.854 -455 177.953 -455 c 0,18,19
 135.653 -455 135.653 -455 92.5029 -447 c 128,-1,20
 49.3525 -439 49.3525 -439 6.97656 -424 c 1,21,-1
 42.4902 -221 l 1,22,-1
 127.09 -221 l 1,23,24
 120.594 -289 120.594 -289 141.083 -318.5 c 128,-1,25
 161.572 -348 161.572 -348 215.572 -348 c 0,26,27
 265.072 -348 265.072 -348 300.559 -317.5 c 128,-1,28
 336.043 -287 336.043 -287 385.438 -195 c 1,0,-1
 479.403 -18 l 1,1,-1
 292.498 956 l 1,2,-1
 183.598 956 l 1,3,-1
 202.316 1063 l 1,4,-1
 642.416 1063 l 1,5,-1
 623.698 956 l 1,6,-1
 470.698 956 l 1,7,-1
 611.914 225 l 1,8,-1
 961.302 864 l 2,9,10
 1082.74 1086.09 1082.74 1086.09 1303.26 1085 c 0,11,12
 1386.81 1084.59 1386.81 1084.59 1423.59 1068 c 0,13,14
 1525.86 1021.88 1525.86 1021.88 1530.22 1019 c 1,15,-1
 1491.9 800 l 1,16,-1
 1406.4 800 l 1,17,18
 1416.9 896 1416.9 896 1386.97 941 c 0,19,20
 1356.15 986 1356.15 986 1282.35 986 c 0,21,22
 1133.26 986 1133.26 986 1054.3 840 c 2,23,24
 470.266 -240 l 1,15,16
EndSplineSet
EndChar
StartChar: uni01B5
Encoding: 437 437 437
Width: 1350
Flags: W
TeX: 117 0 0 0
Fore
1141.86 798 m 1,0,-1
 1112.12 628 l 1,1,-1
 714.319 628 l 1,2,-1
 300.174 123 l 1,3,-1
 1059.77 123 l 1,4,-1
 1096.34 332 l 1,5,-1
 1206.14 332 l 1,6,-1
 1148.06 0 l 1,7,-1
 22.1553 0 l 1,8,-1
 34.751 72 l 1,9,-1
 490.219 628 l 1,10,-1
 267.02 628 l 1,11,-1
 296.76 798 l 1,12,-1
 629.76 798 l 1,13,-1
 1098.83 1370 l 1,14,-1
 404.026 1370 l 1,15,-1
 365.015 1147 l 1,16,-1
 254.314 1147 l 1,17,-1
 314.844 1493 l 1,18,-1
 1376.84 1493 l 1,19,-1
 1364.25 1421 l 1,20,-1
 853.859 798 l 1,21,-1
 1141.86 798 l 1,0,-1
EndSplineSet
EndChar
StartChar: uni01B6
Encoding: 438 438 438
Width: 1024
Flags: W
TeX: 117 0 0 0
Fore
286.341 464 m 1,0,-1
 304.885 570 l 1,1,-1
 467.784 570 l 1,2,-1
 800.813 956 l 1,3,-1
 326.514 956 l 1,4,-1
 294.323 772 l 1,5,-1
 198.923 772 l 1,6,-1
 249.831 1063 l 1,7,-1
 1032.83 1063 l 1,8,-1
 1017.79 977 l 1,9,-1
 666.685 570 l 1,10,-1
 785.484 570 l 1,11,-1
 766.941 464 l 1,12,-1
 575.241 464 l 1,13,-1
 266.012 106 l 1,14,-1
 786.212 106 l 1,15,-1
 819.977 299 l 1,16,-1
 916.276 299 l 1,17,-1
 863.968 0 l 1,18,-1
 34.168 0 l 1,19,-1
 49.2129 86 l 1,20,-1
 375.441 464 l 1,21,-1
 286.341 464 l 1,0,-1
EndSplineSet
EndChar
StartChar: uni01B7
Encoding: 439 439 439
Width: 1096
Flags: W
TeX: 117 0 0 0
Fore
552.391 852 m 2,0,-1
 710.791 852 710.791 852 775.021 751 c 0,34,35
 839.077 649 839.077 649 804.614 452 c 0,32,33
 774.524 280 774.524 280 678.005 181 c 0,30,31
 580.41 81 580.41 81 442.71 81 c 0,28,29
 300.511 81 300.511 81 236.73 164 c 128,-1,27
 172.951 247 172.951 247 192.117 408 c 1,25,26
 91.3164 408 l 1,24,-1
 34.6357 84 l 1,23,-1
 123.664 27 123.664 27 219.566 -1 c 0,21,22
 314.566 -29 314.566 -29 419.866 -29 c 0,19,20
 657.467 -29 657.467 -29 805.16 95 c 0,17,18
 953.929 220 953.929 220 994.862 454 c 0,15,16
 1028.45 646 1028.45 646 958.547 766 c 0,13,14
 887.914 887 887.914 887 727.388 916 c 0,11,12
 657.513 923 l 1,10,-1
 1067.46 1368 l 1,9,-1
 1089.33 1493 l 1,8,-1
 303.63 1493 l 1,7,-1
 243.1 1147 l 1,6,-1
 353.799 1147 l 1,5,-1
 392.812 1370 l 1,4,-1
 867.111 1370 l 1,3,-1
 484.735 954 l 1,2,-1
 466.891 852 l 1,1,-1
 552.391 852 l 2,0,-1
EndSplineSet
EndChar
StartChar: uni01B8
Encoding: 440 440 440
Width: 1103
Flags: W
TeX: 117 0 0 0
Fore
687.648 852 m 2,0,-1
 529.249 852 529.249 852 429.68 751 c 0,34,35
 329.936 649 329.936 649 295.472 452 c 0,32,33
 265.382 280 265.382 280 327.263 181 c 0,30,31
 389.868 81 389.868 81 527.568 81 c 0,28,29
 669.769 81 669.769 81 762.589 164 c 128,-1,27
 855.41 247 855.41 247 892.575 408 c 1,25,26
 993.374 408 l 1,24,-1
 936.694 84 l 1,23,-1
 827.722 27 827.722 27 722.024 -1 c 0,21,22
 617.225 -29 617.225 -29 511.925 -29 c 0,19,20
 274.325 -29 274.325 -29 170.019 95 c 0,17,18
 64.9863 220 64.9863 220 105.922 454 c 0,15,16
 139.511 646 139.511 646 251.404 766 c 0,13,14
 364.372 887 364.372 887 535.046 916 c 0,11,12
 607.371 923 l 1,10,-1
 353.12 1368 l 1,9,-1
 374.988 1493 l 1,8,-1
 1160.68 1493 l 1,7,-1
 1100.16 1147 l 1,6,-1
 989.459 1147 l 1,5,-1
 1028.46 1370 l 1,4,-1
 554.17 1370 l 1,3,-1
 790.993 954 l 1,2,-1
 773.148 852 l 1,1,-1
 687.648 852 l 2,0,-1
EndSplineSet
EndChar
StartChar: uni01B9
Encoding: 441 441 441
Width: 1103
Flags: W
TeX: 117 0 0 0
Fore
687.587 423 m 2,0,-1
 529.188 423 529.188 423 429.618 322 c 0,34,35
 329.874 220 329.874 220 295.41 23 c 0,32,33
 265.32 -149 265.32 -149 327.2 -248 c 0,30,31
 389.807 -348 389.807 -348 527.507 -348 c 0,28,29
 669.707 -348 669.707 -348 762.526 -265 c 128,-1,27
 855.347 -182 855.347 -182 892.513 -21 c 1,25,26
 993.314 -21 l 1,24,-1
 936.632 -345 l 1,23,-1
 827.66 -402 827.66 -402 721.961 -430 c 0,21,22
 617.163 -458 617.163 -458 511.863 -458 c 0,19,20
 274.264 -458 274.264 -458 169.956 -334 c 0,17,18
 64.9238 -209 64.9238 -209 105.86 25 c 0,15,16
 139.449 217 139.449 217 251.342 337 c 0,13,14
 364.311 458 364.311 458 534.983 487 c 0,11,12
 607.309 494 l 1,10,-1
 359.705 977 l 1,9,-1
 374.75 1063 l 1,8,-1
 1157.75 1063 l 1,7,-1
 1106.84 772 l 1,6,-1
 1011.44 772 l 1,5,-1
 1043.63 956 l 1,4,-1
 569.331 956 l 1,3,-1
 790.932 525 l 1,2,-1
 773.087 423 l 1,1,-1
 687.587 423 l 2,0,-1
EndSplineSet
EndChar
StartChar: uni01BB
Encoding: 443 443 443
Width: 1230
Flags: W
TeX: 117 0 0 0
Fore
359.143 1137 m 1,0,-1
 258.343 1137 l 1,1,-1
 304.877 1403 l 1,2,3
 411.149 1460 411.149 1460 514.497 1490 c 0,4,5
 616.945 1520 616.945 1520 710.546 1520 c 0,6,7
 920.246 1520 920.246 1520 1021.97 1407 c 0,8,9
 1123.71 1294 1123.71 1294 1089.77 1100 c 0,10,11
 1066.15 965 1066.15 965 932.538 798 c 1,12,-1
 1072.94 798 l 1,13,-1
 1043.2 628 l 1,14,-1
 777.697 628 l 1,15,-1
 278.924 164 l 1,16,-1
 839.624 164 l 1,17,-1
 871.813 348 l 1,18,-1
 977.117 348 l 1,19,-1
 916.233 0 l 1,20,-1
 49.5332 0 l 1,21,-1
 68.6016 109 l 1,22,-1
 555.376 561 l 2,23,24
 591.925 595 591.925 595 624.697 628 c 1,25,-1
 198.098 628 l 1,26,-1
 227.838 798 l 1,27,-1
 770.538 798 l 1,28,29
 783.937 818 783.937 818 796.084 836 c 0,30,31
 875.729 962 875.729 962 899.87 1100 c 0,32,33
 926.286 1251 926.286 1251 870.956 1336 c 0,34,35
 814.727 1421 814.727 1421 690.526 1421 c 0,36,37
 561.826 1421 561.826 1421 479.206 1350 c 0,38,39
 383.985 1279 383.985 1279 359.143 1137 c 1,0,-1
EndSplineSet
EndChar
StartChar: uni01BC
Encoding: 444 444 444
Width: 1339
Flags: W
TeX: 117 0 0 0
Fore
873.025 840 m 0,0,1
 1034.08 814 1034.08 814 1106.62 706.5 c 0,2,3
 1179.17 599 1179.17 599 1144.88 403 c 0,4,5
 1108.31 194 1108.31 194 962.356 82.5 c 0,6,7
 816.399 -29 816.399 -29 578.8 -29 c 0,8,9
 473.5 -29 473.5 -29 377.524 -4 c 0,10,11
 281.548 21 281.548 21 191.47 72 c 1,12,-1
 242.202 362 l 1,13,-1
 343.003 362 l 1,14,15
 326.812 218 326.812 218 392.165 144 c 0,16,17
 457.52 70 457.52 70 599.72 70 c 0,18,19
 737.42 70 737.42 70 832.551 158.5 c 0,20,21
 927.685 247 927.685 247 954.625 401 c 0,22,23
 985.414 577 985.414 577 919.349 667.5 c 0,24,25
 853.28 758 853.28 758 694.88 758 c 2,26,-1
 351.08 758 l 1,27,-1
 460.944 1386 l 1,28,-1
 289.944 1386 l 1,29,-1
 308.663 1493 l 1,30,-1
 1285.16 1493 l 1,31,-1
 1227.08 1161 l 1,32,-1
 1116.38 1161 l 1,33,-1
 1152.94 1370 l 1,34,-1
 640.845 1370 l 1,35,-1
 551.624 860 l 1,36,-1
 672.225 860 l 2,37,38
 749.142 860 749.142 860 873.025 840 c 0,0,1
EndSplineSet
EndChar
StartChar: uni01BD
Encoding: 445 445 445
Width: 1096
Flags: W
TeX: 117 0 0 0
Fore
569.924 525 m 1,0,-1
 730.05 504 l 2,1,2
 890.575 475 890.575 475 961.207 354 c 0,3,4
 1031.11 234 1031.11 234 994.553 25 c 0,5,6
 953.615 -209 953.615 -209 804.848 -334 c 0,7,8
 657.155 -458 657.155 -458 419.555 -458 c 0,9,10
 314.703 -458 314.703 -458 219.253 -430 c 0,11,12
 122.97 -401.755 122.97 -401.755 34.3232 -345 c 1,13,-1
 91.0049 -21 l 1,14,-1
 191.805 -21 l 1,15,16
 172.639 -182 172.639 -182 236.419 -265 c 0,17,18
 300.199 -348 300.199 -348 442.398 -348 c 0,19,20
 580.099 -348 580.099 -348 677.692 -248 c 0,21,22
 774.212 -149 774.212 -149 804.303 23 c 0,23,24
 838.766 220 838.766 220 774.709 322 c 0,25,26
 710.479 423 710.479 423 552.079 423 c 2,27,-1
 271.279 423 l 1,28,-1
 364.873 958 l 1,29,-1
 205.573 958 l 1,30,-1
 223.941 1063 l 1,31,-1
 1081.65 1063 l 1,32,-1
 1034.94 796 l 1,33,-1
 940.433 796 l 1,34,-1
 965.626 940 l 1,35,-1
 527.323 940 l 1,36,-1
 454.724 525 l 1,37,-1
 569.924 525 l 1,0,-1
EndSplineSet
EndChar
